<?xml version="1.0" encoding="UTF-8"?>
<svg id="Layer_1" data-name="Layer 1" xmlns="http://www.w3.org/2000/svg" viewBox="0 0 590.4 267">
  <defs>
    <style>
      .cls-1, .cls-2, .cls-3, .cls-4, .cls-5, .cls-6, .cls-7, .cls-8, .cls-9, .cls-10 {
        fill: none;
      }

      .cls-2 {
        stroke: #606060;
      }

      .cls-2, .cls-3, .cls-4, .cls-6, .cls-8 {
        stroke-linecap: round;
      }

      .cls-2, .cls-3, .cls-4, .cls-8 {
        stroke-linejoin: round;
      }

      .cls-2, .cls-8 {
        stroke-width: 1.5px;
      }

      .cls-3, .cls-8 {
        stroke: #fff;
      }

      .cls-4 {
        stroke: #aaa;
      }

      .cls-11 {
        font-family: FiraSans-Bold, 'Fira Sans';
        font-size: 5.32px;
        font-weight: 700;
      }

      .cls-11, .cls-12, .cls-13, .cls-14 {
        isolation: isolate;
      }

      .cls-11, .cls-15, .cls-13 {
        fill: #fff;
      }

      .cls-16 {
        letter-spacing: -.02em;
      }

      .cls-12 {
        font-size: 7px;
      }

      .cls-12, .cls-13 {
        font-family: FiraSans-Regular, 'Fira Sans';
      }

      .cls-17 {
        fill: #e6e6e6;
      }

      .cls-18 {
        fill: #fcdb51;
      }

      .cls-19 {
        fill: #9b9b9b;
      }

      .cls-20 {
        fill: #727272;
      }

      .cls-21 {
        fill: #95acc6;
      }

      .cls-22 {
        fill: #5c5c5c;
      }

      .cls-23 {
        fill: #606060;
      }

      .cls-24 {
        fill: #4f4f4f;
      }

      .cls-13 {
        font-size: 6px;
      }

      .cls-5 {
        stroke-width: 5px;
      }

      .cls-5, .cls-6 {
        stroke: #000;
      }

      .cls-5, .cls-6, .cls-7, .cls-9, .cls-10 {
        stroke-miterlimit: 10;
      }

      .cls-6, .cls-9, .cls-10 {
        stroke-width: .5px;
      }

      .cls-14 {
        fill: #b3b3ba;
        opacity: .5;
      }

      .cls-7 {
        stroke: #b3b3ba;
        stroke-width: .75px;
      }

      .cls-25 {
        letter-spacing: 0em;
      }

      .cls-9 {
        stroke: #020202;
      }

      .cls-10 {
        stroke: #6078c6;
      }
    </style>
  </defs>
  <rect class="cls-15" width="590" height="266"/>
  <path class="cls-17" d="m231.4,265.8L391.6.2h198.1v266s-358-.4-358.3-.4Z"/>
  <g>
    <rect class="cls-15" x=".4" y=".8" width="590" height="266"/>
    <path class="cls-17" d="m231.8,266.6L392,1h198.1v266s-358-.4-358.3-.4h0Z"/>
    <path class="cls-14" d="m398.5,228.7h-199.7c-8.5,0-15.5-4-15.5-8.9V78.4c0-4.9,6.9-8.9,15.5-8.9h199.7c8.5,0,15.5,4,15.5,8.9v141.4c0,4.9-7,8.9-15.5,8.9h0Z"/>
    <rect class="cls-22" x="179.6" y="63.6" width="226" height="28.6"/>
    <g>
      <path class="cls-24" d="m188.3,70.3h19.2c1.1,0,2,.9,2,2v12.1c0,1.1-.9,2-2,2h-19.2c-1.1,0-2-.9-2-2v-12.1c0-1.1.9-2,2-2Z"/>
      <path class="cls-4" d="m188.3,70.3h19.2c1.1,0,2,.9,2,2v12.1c0,1.1-.9,2-2,2h-19.2c-1.1,0-2-.9-2-2v-12.1c0-1.1.9-2,2-2Z"/>
    </g>
    <g>
      <path class="cls-24" d="m214.1,70.3h19.2c1.1,0,2,.9,2,2v12.1c0,1.1-.9,2-2,2h-19.2c-1.1,0-2-.9-2-2v-12.1c0-1.1.9-2,2-2Z"/>
      <path class="cls-4" d="m214.1,70.3h19.2c1.1,0,2,.9,2,2v12.1c0,1.1-.9,2-2,2h-19.2c-1.1,0-2-.9-2-2v-12.1c0-1.1.9-2,2-2Z"/>
    </g>
    <g>
      <path class="cls-24" d="m248.3,70.3h19.2c1.1,0,2,.9,2,2v12.1c0,1.1-.9,2-2,2h-19.2c-1.1,0-2-.9-2-2v-12.1c0-1.1.9-2,2-2Z"/>
      <path class="cls-4" d="m248.3,70.3h19.2c1.1,0,2,.9,2,2v12.1c0,1.1-.9,2-2,2h-19.2c-1.1,0-2-.9-2-2v-12.1c0-1.1.9-2,2-2Z"/>
    </g>
    <g>
      <path class="cls-24" d="m274.2,70.3h19.2c1.1,0,2,.9,2,2v12.1c0,1.1-.9,2-2,2h-19.2c-1.1,0-2-.9-2-2v-12.1c0-1.1.8-2,2-2Z"/>
      <path class="cls-4" d="m274.2,70.3h19.2c1.1,0,2,.9,2,2v12.1c0,1.1-.9,2-2,2h-19.2c-1.1,0-2-.9-2-2v-12.1c0-1.1.8-2,2-2Z"/>
    </g>
    <g>
      <path class="cls-24" d="m305.8,70.3h19.2c1.1,0,2,.9,2,2v12.1c0,1.1-.9,2-2,2h-19.2c-1.1,0-2-.9-2-2v-12.1c0-1.1.9-2,2-2Z"/>
      <path class="cls-4" d="m305.8,70.3h19.2c1.1,0,2,.9,2,2v12.1c0,1.1-.9,2-2,2h-19.2c-1.1,0-2-.9-2-2v-12.1c0-1.1.9-2,2-2Z"/>
    </g>
    <g>
      <path class="cls-15" d="m318.4,83.2h-5.3c-.4,0-.8-.4-.8-.8v-5.4c0-.4.4-.8.8-.8h5.3c.4,0,.8.4.8.8v5.4c0,.4-.3.8-.8.8Zm-5.1-1h4.9v-5h-4.9v5Z"/>
      <path class="cls-15" d="m320,75.7h-8.5c-.3,0-.5-.2-.5-.5s.2-.5.5-.5h8.5c.3,0,.5.2.5.5s-.2.5-.5.5Z"/>
      <path class="cls-15" d="m317.8,75.7h-4.1c-.4,0-.8-.4-.8-.8v-1.3c0-.4.4-.8.8-.8h4.1c.4,0,.8.4.8.8v1.2c.1.5-.3.9-.8.9Zm-3.9-1h3.7v-.8h-3.7v.8Z"/>
      <path class="cls-15" d="m314.7,81.3c-.3,0-.5-.2-.5-.5v-2.2c0-.3.2-.5.5-.5s.5.2.5.5v2.1c0,.3-.2.6-.5.6Z"/>
      <path class="cls-15" d="m316.8,81.3c-.3,0-.5-.2-.5-.5v-2.2c0-.3.2-.5.5-.5s.5.2.5.5v2.1c0,.3-.2.6-.5.6Z"/>
    </g>
    <g>
      <g>
        <path class="cls-15" d="m223.4,81.8c-2.3,0-4.2-1.8-4.2-3.9s1.9-3.9,4.2-3.9,4.2,1.8,4.2,3.9-1.9,3.9-4.2,3.9Zm0-6.7c-1.6,0-2.9,1.2-2.9,2.7s1.3,2.7,2.9,2.7,2.9-1.2,2.9-2.7-1.3-2.7-2.9-2.7Z"/>
        <path class="cls-15" d="m223.7,82.1c-4.6,0-8-3.8-8.2-3.9-.2-.2-.2-.5,0-.8,2.3-2.6,4.9-3.9,7.6-3.9,4.6,0,8,3.8,8.2,3.9.2.2.2.5,0,.8-2.3,2.6-4.9,3.9-7.6,3.9Zm-6.9-4.3c.9.9,3.6,3.1,6.9,3.1h0c2.2,0,4.3-1,6.3-3.1-.9-.9-3.6-3.1-6.9-3.1h0c-2.2,0-4.3,1.1-6.3,3.1Z"/>
      </g>
      <text class="cls-11" transform="translate(221.83 79.35) scale(1.06 1)"><tspan x="0" y="0">A</tspan></text>
    </g>
    <g>
      <g>
        <path class="cls-15" d="m280.7,78.2c.3.1.7.3.9.5l1.7,1.6c.2.2.4.6.5.8v.1c.1.3.3.3.5.1l5.1-6.2c.2-.2.2-.5,0-.8l-1.6-1.5c-.2-.2-.6-.2-.8,0l-6.4,4.9c-.2.2-.2.4.1.5h0Z"/>
        <path class="cls-15" d="m281.2,79.1c-.2-.2-.5-.4-.7-.4-.2-.1-.4,0-.4.2s0,.3.1.3,0,.2-.2.4l-1.5,2c-.2.2-.1.6.1.8l.8.8c.2.2.6.2.8.1l2.1-1.4c.2-.2.4-.2.5-.2s.2.1.3.1c.2,0,.2-.2.2-.4s-.3-.5-.5-.7l-1.6-1.6h0Z"/>
      </g>
      <polygon class="cls-23" points="280.6 79.7 279.2 81.6 280.2 82.6 282.2 81.3 280.6 79.7"/>
    </g>
    <line class="cls-8" x1="256.3" y1="79.8" x2="262" y2="74.6"/>
    <line class="cls-8" x1="257.7" y1="81.4" x2="263" y2="76.4"/>
    <line class="cls-8" x1="254.8" y1="78.5" x2="260.2" y2="73.5"/>
    <polygon class="cls-3" points="253.7 79.3 256.6 82.3 253 82.8 253.7 79.3"/>
    <g>
      <path class="cls-3" d="m196.3,74.4h3.5c1.1,0,2,.9,2,2v3.5c0,1.1-.9,2-2,2h-3.5c-1.1,0-2-.9-2-2v-3.5c0-1.1.9-2,2-2Z"/>
      <polyline class="cls-3" points="195 77.9 197.4 80.2 202.6 74.3"/>
    </g>
    <g>
      <circle class="cls-15" cx="393.3" cy="78.3" r="5.1"/>
      <g>
        <line class="cls-2" x1="391.3" y1="76.5" x2="395.6" y2="80.8"/>
        <line class="cls-2" x1="391.3" y1="80.8" x2="395.6" y2="76.5"/>
      </g>
    </g>
    <rect class="cls-18" x="179.3" y="92" width="226" height="26.8"/>
    <g>
      <path d="m274.4,104.2l-.4.6c-.5-.3-.9-.4-1.4-.4-.6,0-1,.3-1,.7s.3.6,1.1.8c1.1.3,1.8.7,1.8,1.6,0,1.1-1,1.6-2.1,1.6-.9,0-1.5-.3-2-.7l.5-.6c.4.3.9.5,1.5.5.7,0,1.1-.3,1.1-.8s-.3-.7-1.3-1c-1.1-.3-1.6-.8-1.6-1.5,0-.8.8-1.4,1.9-1.4.9,0,1.4.2,1.9.6h0Z"/>
      <path d="m280.2,106.3c0,1.6-.9,2.8-2.4,2.8s-2.4-1.1-2.4-2.8,1-2.7,2.5-2.7,2.3,1.1,2.3,2.7h0Zm-3.7,0c0,1.4.5,2,1.4,2s1.4-.6,1.4-2-.5-2-1.4-2-1.4.7-1.4,2h0Z"/>
      <path d="m285.6,109h-.8l-.1-.8c-.4.6-.9.9-1.6.9-.9,0-1.5-.6-1.5-1.6v-3.8h.9v3.7c0,.7.2,1,.8,1s1-.4,1.3-.9v-3.8h.9c.1,0,.1,5.3.1,5.3Z"/>
      <path d="m291.4,105.2v3.8h-.9v-3.7c0-.8-.3-1-.8-1-.6,0-1,.4-1.3.9v3.7h-1v-5.3h.8l.1.8c.4-.4.9-.8,1.6-.8,1,0,1.5.6,1.5,1.6h0Z"/>
      <path d="m297.3,101.6v7.4h-.8l-.1-.7c-.3.5-.9.8-1.5.8-1.3,0-2-1.1-2-2.7s.8-2.8,2-2.8c.6,0,1.1.3,1.4.7v-2.8l1,.1h0Zm-.9,6v-2.6c-.3-.4-.7-.7-1.2-.7-.8,0-1.3.7-1.3,2s.4,2,1.2,2c.6.1.9-.2,1.3-.7Z"/>
      <path d="m301.8,108.7c-.4.2-.7.4-1.2.4-.9,0-1.4-.5-1.4-1.5v-3.2h-.9v-.7h.9v-1.2l.9-.1v1.3h1.3l-.1.7h-1.1v3.2c0,.5.2.8.6.8.2,0,.4-.1.7-.2l.3.5h0Z"/>
      <path d="m305.5,103.7l-.1.9c-.2,0-.3-.1-.5-.1-.7,0-1,.5-1.3,1.5v3h-.9v-5.3h.8l.1,1.1c.3-.8.8-1.2,1.4-1.2.2,0,.4,0,.5.1h0Z"/>
      <path d="m310.3,108.5l-.2.6c-.5-.1-.9-.3-1-.8-.4.6-.9.8-1.6.8-1,0-1.7-.7-1.7-1.6,0-1.1.9-1.7,2.3-1.7h.8v-.4c0-.8-.4-1-1.1-1-.4,0-.9.1-1.4.3l-.2-.7c.7-.3,1.3-.4,1.8-.4,1.3,0,1.9.7,1.9,1.8v2.4c0,.4.2.6.4.7Zm-1.3-.9v-1.2h-.7c-1,0-1.5.4-1.5,1.1,0,.6.3.9.9.9.6,0,1-.3,1.3-.8Z"/>
      <path d="m315.3,104.2l-.4.6c-.4-.3-.7-.4-1.1-.4-.8,0-1.4.7-1.4,2s.5,1.9,1.4,1.9c.4,0,.8-.1,1.1-.4l.4.6c-.5.4-1,.6-1.6.6-1.4,0-2.3-1-2.3-2.7s.9-2.8,2.3-2.8c.6,0,1.1.2,1.6.6Z"/>
      <path d="m317.5,109h-.9v-7.4l.9-.1v7.5Zm1.1-3l2.2,2.9h-1.1l-2.1-2.9,1.9-2.4h1c0,.1-1.9,2.4-1.9,2.4Z"/>
    </g>
    <rect class="cls-15" x="181.3" y="118.6" width="224.2" height="102.2"/>
    <path class="cls-5" d="m182.8,61.5h220.7c2.2,0,4,1.8,4,4v151.4c0,2.2-1.8,4-4,4h-220.7c-2.2,0-4-1.8-4-4V65.5c0-2.2,1.8-4,4-4Z"/>
    <rect class="cls-7" x="233.3" y="130.2" width="116.1" height="88.1"/>
    <path class="cls-22" d="m403,218.6h-220c-1.1,0-2-.9-2-2v-19.9h224v19.9c0,1.1-.9,2-2,2Z"/>
    <path class="cls-15" d="m348.1,216.5h-162.9c-1.1,0-2-.9-2-2v-14c0-1.1.9-2,2-2h162.9c1.1,0,2,.9,2,2v14c0,1.1-.8,2-2,2Z"/>
    <path class="cls-20" d="m378.3,216.5h-23c-1.1,0-2-.9-2-2v-14c0-1.1.9-2,2-2h23c1.1,0,2,.9,2,2v14c0,1.1-.9,2-2,2Z"/>
    <path class="cls-19" d="m399.7,216.5h-14.7c-1.1,0-2-.9-2-2v-14c0-1.1.9-2,2-2h14.7c1.1,0,2,.9,2,2v14c0,1.1-.9,2-2,2Z"/>
    <rect class="cls-1" x="358.7" y="204.9" width="17.3" height="6.2"/>
    <text class="cls-13" transform="translate(358.66 209.43)"><tspan x="0" y="0">Input</tspan></text>
    <rect class="cls-1" x="184.4" y="200.4" width="51" height="9.3"/>
    <text class="cls-12" transform="translate(184.43 205.66)"><tspan x="0" y="0">soundt</tspan><tspan class="cls-16" x="22.09" y="0">r</tspan><tspan class="cls-25" x="24.63" y="0">ack</tspan></text>
    <line class="cls-10" x1="220.2" y1="199" x2="220.2" y2="207.5"/>
    <rect class="cls-9" x="389.6" y="204.6" width="8.2" height="6.2"/>
    <line class="cls-6" x1="391.2" y1="206.9" x2="395.9" y2="206.9"/>
    <line class="cls-6" x1="391.2" y1="208" x2="395.9" y2="208"/>
    <circle class="cls-21" cx="232.6" cy="136" r="4.2"/>
    <rect class="cls-21" x="244.5" y="131.8" width="89.8" height="8.5"/>
    <rect class="cls-21" x="245.3" y="145.3" width="89.8" height="3.8"/>
    <rect class="cls-21" x="245.3" y="153.8" width="89.8" height="3.8"/>
    <rect class="cls-21" x="245.3" y="169.6" width="89.8" height="3.8"/>
    <rect class="cls-21" x="245.3" y="178.1" width="81.8" height="4.3"/>
    <rect class="cls-21" x="245.3" y="161.4" width="76" height="3.8"/>
  </g>
</svg>