<?xml version="1.0" encoding="utf-8"?>
<!-- Generator: Adobe Illustrator 27.4.0, SVG Export Plug-In . SVG Version: 6.00 Build 0)  -->
<svg version="1.1" id="Layer_1" xmlns="http://www.w3.org/2000/svg" xmlns:xlink="http://www.w3.org/1999/xlink" x="0px" y="0px"
	 viewBox="0 0 600 276" style="enable-background:new 0 0 600 276;" xml:space="preserve">
<style type="text/css">
	.st0{fill:#FFFFFF;}
	.st1{fill:#E6E6E6;}
	.st2{fill:none;}
	.st3{fill:#4770A7;}
	.st4{fill:#6699FF;}
	.st5{fill:#4FB0B0;}
	.st6{font-family:'OpenSans';}
	.st7{font-size:16px;}
	.st8{fill:#002147;}
	.st9{fill:none;stroke:#FFFFFF;stroke-width:4;stroke-linecap:round;stroke-linejoin:round;stroke-miterlimit:10;}
</style>
<rect x="0.1" y="0.9" class="st0" width="599.4" height="275.7"/>
<polygon class="st1" points="392,0.3 600.2,0.3 600.2,276 224,276 "/>
<rect x="0.6" y="-0.1" class="st2" width="598.9" height="275.7"/>
<g>
	
		<image style="overflow:visible;opacity:0.25;enable-background:new    ;" width="461" height="158" xlink:href="Phil WIP/desktop clean up/3210E2A662365D2C.png"  transform="matrix(1 0 0 1 78 83)">
	</image>
	<g>
		<path class="st3" d="M520.7,210.8c0,6.6-5.4,12-12,12H96.9c-6.6,0-12-5.4-12-12V101.1c0-6.6,5.4-12,12-12h411.8
			c6.6,0,12,5.4,12,12L520.7,210.8L520.7,210.8z"/>
	</g>
</g>
<g>
	
		<image style="overflow:visible;opacity:0.25;" width="216" height="63" xlink:href="1A724C009E1279D6.png"  transform="matrix(1 0 0 1 120 99)">
	</image>
	<g>
		<path class="st4" d="M321.4,125.4c0,12.1-9.9,22-22,22h-153c-12.1,0-22-9.9-22-22l0,0c0-12.1,9.9-22,22-22h153
			C311.5,103.4,321.4,113.3,321.4,125.4L321.4,125.4z"/>
	</g>
</g>
<g>
	
		<image style="overflow:visible;opacity:0.25;" width="216" height="63" xlink:href="1A724C009E1279D2.png"  transform="matrix(1 0 0 1 177 158)">
	</image>
	<g>
		<path class="st5" d="M378.3,184.1c0,12.1-9.9,22-22,22h-153c-12.1,0-22-9.9-22-22l0,0c0-12.1,9.9-22,22-22h153
			C368.4,162.1,378.3,172,378.3,184.1L378.3,184.1z"/>
	</g>
</g>
<g>
	
		<image style="overflow:visible;opacity:0.25;" width="216" height="62" xlink:href="1A724C009E1279D1.png"  transform="matrix(1 0 0 1 208 131)">
	</image>
	<g>
		<path class="st0" d="M409.5,157c0,12.1-9.9,22-22,22h-153c-12.1,0-22-9.9-22-22l0,0c0-12.1,9.9-22,22-22h153
			C399.6,135,409.5,144.9,409.5,157L409.5,157z"/>
	</g>
</g>
<rect x="214" y="150" class="st2" width="195" height="19"/>
<text transform="matrix(1 0 0 1 236.0391 162.1602)" class="st6 st7">Continue with Apple</text>
<g>
	<g>
		
			<image style="overflow:visible;opacity:0.35;" width="124" height="124" xlink:href="1A724C009E1279DD.png"  transform="matrix(1 0 0 1 396 58)">
		</image>
		<g>
			<circle class="st8" cx="453.7" cy="116.1" r="46.3"/>
		</g>
	</g>
	<g>
		<path class="st9" d="M455.5,136.8h-25.3v-7.1c0,0,13.9-7.1,18.2-8.9c-6.2-6.2-7.1-8.9-7.1-17.8s0.7-16.7,12.8-16.7"/>
		<path class="st9" d="M453.7,136.8H479v-7.1c0,0-13.9-7.1-18.2-8.9c6.2-6.2,7.1-8.9,7.1-17.8s-0.7-16.7-12.8-16.7"/>
	</g>
</g>
</svg>
