<?xml version="1.0" encoding="UTF-8"?>
<svg id="Layer_1" data-name="Layer 1" xmlns="http://www.w3.org/2000/svg" viewBox="0 0 590 266.2">
  <defs>
    <style>
      .cls-1, .cls-2, .cls-3, .cls-4 {
        stroke: #9399b2;
      }

      .cls-1, .cls-2, .cls-4 {
        stroke-linecap: round;
        stroke-linejoin: round;
      }

      .cls-1, .cls-5, .cls-6 {
        fill: #9399b2;
      }

      .cls-2, .cls-4, .cls-7 {
        fill: none;
      }

      .cls-8 {
        fill: #f9d43a;
      }

      .cls-9 {
        fill: #e6e6e6;
      }

      .cls-10, .cls-3, .cls-11, .cls-12 {
        fill: #fff;
      }

      .cls-13 {
        fill: #fffdfd;
      }

      .cls-14 {
        fill: #878787;
      }

      .cls-15 {
        fill: #eaeaea;
        stroke-width: 4px;
      }

      .cls-15, .cls-3, .cls-11, .cls-7, .cls-6, .cls-12 {
        stroke-miterlimit: 10;
      }

      .cls-15, .cls-11, .cls-7 {
        stroke: #000;
      }

      .cls-3, .cls-11, .cls-6 {
        stroke-width: .5px;
      }

      .cls-4 {
        stroke-width: 2.79px;
      }

      .cls-16 {
        opacity: .4;
      }

      .cls-6 {
        opacity: .5;
        stroke: #fff;
      }

      .cls-12 {
        stroke: #96c;
        stroke-width: 6px;
      }
    </style>
  </defs>
  <rect class="cls-10" width="590" height="266"/>
  <g class="cls-16">
    <rect class="cls-14" x="87.72" y="59.99" width="152.97" height="125.32" rx="5" ry="5"/>
  </g>
  <g>
    <rect class="cls-10" x="85.45" y="58.94" width="150.78" height="122.54" rx="2" ry="2"/>
    <rect class="cls-7" x="85.45" y="58.94" width="150.78" height="122.54" rx="2" ry="2"/>
  </g>
  <rect class="cls-7" x="340.7" y="75.88" width="138.32" height="116.26" rx="2" ry="2"/>
  <path class="cls-9" d="m231.4,265.8L391.6.2h198.1v266s-358-.4-358.3-.4Z"/>
  <g class="cls-16">
    <rect class="cls-14" x="342.1" y="76.25" width="142.6" height="120.32" rx="5" ry="5"/>
  </g>
  <g>
    <rect class="cls-13" x="338.44" y="73.62" width="142.77" height="118.09" rx="2" ry="2"/>
    <rect class="cls-7" x="338.44" y="73.62" width="142.77" height="118.09" rx="2" ry="2"/>
  </g>
  <rect class="cls-8" x="85.87" y="59.26" width="149.71" height="13.17" rx="2" ry="2"/>
  <rect class="cls-6" x="132.83" y="79.6" width="69.5" height="96.82"/>
  <rect class="cls-11" x="129.9" y="76.93" width="70.23" height="97.29"/>
  <g>
    <line class="cls-4" x1="147.51" y1="87.65" x2="183.97" y2="87.65"/>
    <line class="cls-4" x1="147.51" y1="94.08" x2="180.38" y2="94.08"/>
    <line class="cls-4" x1="147.51" y1="101.12" x2="183.97" y2="101.12"/>
    <line class="cls-4" x1="147.51" y1="107.48" x2="178.92" y2="107.48"/>
  </g>
  <g>
    <line class="cls-4" x1="147.51" y1="145.19" x2="183.97" y2="145.19"/>
    <line class="cls-4" x1="147.51" y1="151.63" x2="176.96" y2="151.63"/>
    <line class="cls-4" x1="147.51" y1="158.67" x2="183.97" y2="158.67"/>
    <line class="cls-4" x1="147.51" y1="165.02" x2="179.89" y2="165.02"/>
  </g>
  <rect class="cls-6" x="148.08" y="115.59" width="29.44" height="24.98"/>
  <rect class="cls-3" x="146.5" y="114.39" width="30.01" height="25"/>
  <circle class="cls-5" cx="142.2" cy="87.21" r="1.73"/>
  <rect class="cls-8" x="338.82" y="74.12" width="141.91" height="12.03" rx="2" ry="2"/>
  <rect class="cls-6" x="383.55" y="94.44" width="63.5" height="88.47"/>
  <rect class="cls-11" x="380.87" y="92" width="64.17" height="88.9"/>
  <g>
    <line class="cls-4" x1="396.97" y1="101.8" x2="430.28" y2="101.8"/>
    <line class="cls-4" x1="396.97" y1="107.68" x2="427" y2="107.68"/>
    <line class="cls-4" x1="396.97" y1="114.11" x2="430.28" y2="114.11"/>
    <line class="cls-4" x1="396.97" y1="119.92" x2="425.66" y2="119.92"/>
  </g>
  <g>
    <line class="cls-4" x1="396.97" y1="154.38" x2="430.28" y2="154.38"/>
    <line class="cls-4" x1="396.97" y1="160.27" x2="423.88" y2="160.27"/>
    <line class="cls-4" x1="396.97" y1="166.7" x2="430.28" y2="166.7"/>
    <line class="cls-4" x1="396.97" y1="172.5" x2="426.55" y2="172.5"/>
  </g>
  <rect class="cls-6" x="397.49" y="127.33" width="26.9" height="22.83"/>
  <rect class="cls-3" x="396.04" y="126.24" width="27.42" height="22.84"/>
  <circle class="cls-5" cx="392.11" cy="101.4" r="1.58"/>
  <g>
    <line class="cls-2" x1="458.41" y1="99.51" x2="458.41" y2="174.73"/>
    <polygon class="cls-5" points="453.43 100.97 458.41 92.34 463.4 100.97 453.43 100.97"/>
    <polygon class="cls-5" points="453.43 173.28 458.41 181.91 463.4 173.28 453.43 173.28"/>
  </g>
  <rect class="cls-1" x="457.5" y="98.95" width="1.44" height="76.36"/>
  <g class="cls-16">
    <rect class="cls-14" x="209.79" y="94.2" width="159.95" height="134.96" rx="5" ry="5"/>
  </g>
  <path class="cls-15" d="m363.49,208.18c0,7.74-7.67,14.08-17.03,14.08h-124.56c-9.37,0-17.03-6.33-17.03-14.08v-103.55c0-7.74,7.67-14.08,17.03-14.08h124.56c9.37,0,17.03,6.33,17.03,14.08v103.55Z"/>
  <path class="cls-12" d="m363.49,216.08c0,7.74-7.67,6.18-17.03,6.18h-124.56c-9.37,0-17.03,1.56-17.03-6.18v-111.45c0-10.85-.57-14.08,6.09-14.08h147.96c5.66,0,4.58,2.9,4.58,14.08v111.45Z"/>
  <rect class="cls-8" x="207.46" y="92.2" width="153.2" height="13.5" rx="2" ry="2"/>
  <g>
    <rect class="cls-6" x="214.9" y="112.86" width="71.23" height="99.23"/>
    <rect class="cls-11" x="211.9" y="110.12" width="71.98" height="99.72"/>
    <line class="cls-4" x1="229.95" y1="121.11" x2="267.32" y2="121.11"/>
    <line class="cls-4" x1="229.95" y1="127.71" x2="263.64" y2="127.71"/>
    <line class="cls-4" x1="229.95" y1="134.92" x2="267.32" y2="134.92"/>
    <line class="cls-4" x1="229.95" y1="141.43" x2="262.14" y2="141.43"/>
    <line class="cls-4" x1="229.95" y1="180.09" x2="267.32" y2="180.09"/>
    <line class="cls-4" x1="229.95" y1="186.69" x2="260.14" y2="186.69"/>
    <line class="cls-4" x1="229.95" y1="193.9" x2="267.32" y2="193.9"/>
    <line class="cls-4" x1="229.95" y1="200.41" x2="263.14" y2="200.41"/>
    <rect class="cls-6" x="230.54" y="149.75" width="30.17" height="25.6"/>
    <rect class="cls-3" x="228.91" y="148.52" width="30.76" height="25.62"/>
    <rect class="cls-6" x="286.88" y="112.86" width="71.23" height="99.23"/>
    <rect class="cls-11" x="283.88" y="110.12" width="71.98" height="99.72"/>
    <line class="cls-4" x1="301.52" y1="180.76" x2="338.88" y2="180.76"/>
    <line class="cls-4" x1="301.52" y1="187.35" x2="335.2" y2="187.35"/>
    <line class="cls-4" x1="301.52" y1="194.57" x2="338.88" y2="194.57"/>
    <line class="cls-4" x1="301.52" y1="201.08" x2="333.7" y2="201.08"/>
    <line class="cls-4" x1="301.93" y1="149.43" x2="339.3" y2="149.43"/>
    <line class="cls-4" x1="301.93" y1="156.03" x2="332.12" y2="156.03"/>
    <line class="cls-4" x1="301.93" y1="163.24" x2="339.3" y2="163.24"/>
    <line class="cls-4" x1="301.93" y1="169.76" x2="335.12" y2="169.76"/>
    <rect class="cls-6" x="287.27" y="119.09" width="60.98" height="25.44"/>
    <rect class="cls-3" x="283.93" y="117.86" width="63.31" height="25.62"/>
    <circle class="cls-5" cx="295.15" cy="149.03" r="1.77"/>
    <circle class="cls-5" cx="224.61" cy="120.78" r="1.77"/>
  </g>
</svg>