<?xml version="1.0" encoding="UTF-8"?>
<svg id="Layer_1" data-name="Layer 1" xmlns="http://www.w3.org/2000/svg" viewBox="0 0 590 266.2">
  <defs>
    <style>
      .cls-1 {
        stroke: #011e41;
        stroke-width: 4.89px;
      }

      .cls-1, .cls-2, .cls-3, .cls-4, .cls-5 {
        fill: none;
      }

      .cls-1, .cls-3, .cls-4 {
        stroke-linecap: round;
      }

      .cls-1, .cls-4 {
        stroke-linejoin: round;
      }

      .cls-6 {
        fill: #e6e6e6;
      }

      .cls-7 {
        fill: #eec22d;
      }

      .cls-8, .cls-9, .cls-10 {
        fill: #fff;
      }

      .cls-2 {
        stroke: #eec22d;
        stroke-width: 4.47px;
      }

      .cls-2, .cls-3, .cls-9, .cls-11, .cls-10, .cls-5 {
        stroke-miterlimit: 10;
      }

      .cls-3 {
        stroke-width: 1.35px;
      }

      .cls-3, .cls-9 {
        stroke: #000;
      }

      .cls-9 {
        stroke-width: 4px;
      }

      .cls-11 {
        fill: #9399b2;
        isolation: isolate;
        opacity: .5;
      }

      .cls-11, .cls-10 {
        stroke-width: .5px;
      }

      .cls-11, .cls-5 {
        stroke: #fff;
      }

      .cls-10, .cls-4 {
        stroke: #9399b2;
      }

      .cls-4 {
        stroke-width: 2.79px;
      }
    </style>
  </defs>
  <rect class="cls-8" width="590" height="266"/>
  <path class="cls-6" d="m231.4,265.8L391.6.2h198.1v266s-358-.4-358.3-.4h0Z"/>
  <g>
    <g>
      <path class="cls-8" d="m252.9,198.55c0,8.45-6.84,15.41-15.14,15.41h-93.9c-8.31,0-15.14-6.96-15.14-15.41v-117.68c0-8.45,6.84-15.41,15.14-15.41h93.9c8.31,0,15.14,6.96,15.14,15.41v117.68h0Z"/>
      <path class="cls-2" d="m252.9,198.55c0,8.45-6.84,15.41-15.14,15.41h-93.9c-8.31,0-15.14-6.96-15.14-15.41v-117.68c0-8.45,6.84-15.41,15.14-15.41h93.9c8.31,0,15.14,6.96,15.14,15.41v117.68h0Z"/>
    </g>
    <path class="cls-7" d="m250.07,212.07h0l-111.39.6h0l-7.43-6.46h0l114.12-137.86h0l7.62,8.65h0l-2.93,135.08h0Z"/>
  </g>
  <g>
    <path class="cls-9" d="m479.59,198.15c0,8.75-7.04,15.9-15.63,15.9h-114.32c-8.6,0-15.63-7.16-15.63-15.9v-116.99c0-8.75,7.04-15.9,15.63-15.9h114.32c8.6,0,15.63,7.16,15.63,15.9v116.99Z"/>
    <path class="cls-9" d="m479.59,198.15c0,8.75-7.04,15.9-15.63,15.9h-114.32c-8.6,0-15.63-7.16-15.63-15.9v-116.99c0-8.75,7.04-15.9,15.63-15.9h114.32c8.6,0,15.63,7.16,15.63,15.9v116.99Z"/>
  </g>
  <g>
    <line class="cls-4" x1="351.49" y1="94.79" x2="393.7" y2="94.79"/>
    <line class="cls-4" x1="351.49" y1="102.24" x2="393.7" y2="102.24"/>
    <line class="cls-4" x1="351.49" y1="110.39" x2="393.7" y2="110.39"/>
    <line class="cls-4" x1="351.49" y1="117.75" x2="393.7" y2="117.75"/>
  </g>
  <g>
    <line class="cls-4" x1="351.49" y1="133.75" x2="393.7" y2="133.75"/>
    <line class="cls-4" x1="351.49" y1="141.1" x2="393.7" y2="141.1"/>
    <line class="cls-4" x1="351.49" y1="149.25" x2="393.7" y2="149.25"/>
    <line class="cls-4" x1="351.49" y1="156.71" x2="393.7" y2="156.71"/>
  </g>
  <g>
    <line class="cls-4" x1="413.63" y1="177.38" x2="455.84" y2="177.38"/>
    <line class="cls-4" x1="413.63" y1="185.53" x2="455.84" y2="185.53"/>
  </g>
  <rect class="cls-11" x="401.97" y="82.48" width="71.33" height="78.52"/>
  <rect class="cls-11" x="353.12" y="165.67" width="46.59" height="39.53"/>
  <rect class="cls-10" x="399.47" y="79.98" width="71.33" height="78.52"/>
  <g>
    <path d="m409.53,93.59h-5.28c-.39,0-.78-.4-.78-.8v-5.37c0-.4.39-.8.78-.8h5.28c.39,0,.78.4.78.8v5.37c0,.4-.29.8-.78.8Zm-4.98-.99h4.79v-4.97h-4.79v4.97Z"/>
    <path d="m411.09,86.14h-8.4c-.29,0-.49-.2-.49-.5s.2-.5.49-.5h8.5c.29,0,.49.2.49.5s-.29.5-.59.5Z"/>
    <path d="m408.94,86.14h-4.1c-.39,0-.78-.4-.78-.8v-1.19c0-.4.39-.8.78-.8h4.1c.39,0,.78.4.78.8v1.19c0,.5-.29.8-.78.8Zm-3.81-.99h3.62v-.7h-3.62v.7Z"/>
    <path d="m405.91,91.7c-.29,0-.49-.2-.49-.5v-2.09c0-.3.2-.5.49-.5s.49.2.49.5v2.09c0,.2-.2.5-.49.5Z"/>
    <path d="m407.97,91.7c-.29,0-.49-.2-.49-.5v-2.09c0-.3.2-.5.49-.5s.49.2.49.5v2.09c0,.2-.2.5-.49.5Z"/>
  </g>
  <g>
    <path d="m460.53,92.2c-2.15,0-3.91-1.79-3.91-3.98s1.76-3.98,3.91-3.98,3.91,1.79,3.91,3.98-1.76,3.98-3.91,3.98Zm0-6.76c-1.47,0-2.74,1.29-2.74,2.78s1.27,2.78,2.74,2.78,2.74-1.29,2.74-2.78-1.27-2.78-2.74-2.78Z"/>
    <g>
      <path d="m460.83,92.6c-4.3,0-7.52-3.78-7.62-3.98-.2-.2-.2-.5,0-.8,2.15-2.58,4.59-3.98,7.13-3.98,4.3,0,7.52,3.78,7.62,3.98.2.2.2.5,0,.8-2.25,2.58-4.59,3.98-7.13,3.98Zm-6.45-4.37c.88.89,3.32,3.18,6.45,3.18h0c2.05,0,4.1-.99,5.86-3.08-.88-.89-3.32-3.18-6.45-3.18h0c-2.05-.1-4.01.99-5.86,3.08Z"/>
      <line class="cls-3" x1="456.43" y1="82.06" x2="466.2" y2="94.09"/>
      <line class="cls-5" x1="457.17" y1="81.1" x2="468.04" y2="94.23"/>
    </g>
  </g>
  <g>
    <line class="cls-1" x1="293.75" y1="121.3" x2="293.75" y2="153.9"/>
    <line class="cls-1" x1="309.48" y1="137.21" x2="277.43" y2="137.21"/>
  </g>
  <rect class="cls-10" x="350.61" y="163.76" width="47.49" height="39.56"/>
  <g>
    <path d="m357.57,173.16h-3.45c-.26,0-.51-.26-.51-.52v-3.51c0-.26.26-.52.51-.52h3.45c.26,0,.51.26.51.52v3.51c0,.26-.19.52-.51.52Zm-3.26-.65h3.13v-3.25h-3.13v3.25Z"/>
    <path d="m358.59,168.28h-5.5c-.19,0-.32-.13-.32-.33s.13-.33.32-.33h5.56c.19,0,.32.13.32.33s-.19.33-.38.33Z"/>
    <path d="m357.19,168.28h-2.69c-.26,0-.51-.26-.51-.52v-.78c0-.26.26-.52.51-.52h2.69c.26,0,.51.26.51.52v.78c0,.33-.19.52-.51.52Zm-2.49-.65h2.37v-.46h-2.37v.46Z"/>
    <path d="m355.2,171.92c-.19,0-.32-.13-.32-.33v-1.37c0-.2.13-.33.32-.33s.32.13.32.33v1.37c0,.13-.13.33-.32.33Z"/>
    <path d="m356.55,171.92c-.19,0-.32-.13-.32-.33v-1.37c0-.2.13-.33.32-.33s.32.13.32.33v1.37c0,.13-.13.33-.32.33Z"/>
  </g>
  <g>
    <path d="m390.95,172.25c-1.41,0-2.56-1.17-2.56-2.6s1.15-2.6,2.56-2.6,2.56,1.17,2.56,2.6-1.15,2.6-2.56,2.6Zm0-4.42c-.96,0-1.79.85-1.79,1.82s.83,1.82,1.79,1.82,1.79-.85,1.79-1.82-.83-1.82-1.79-1.82Z"/>
    <g>
      <path d="m391.14,172.51c-2.81,0-4.92-2.47-4.99-2.6-.13-.13-.13-.33,0-.52,1.41-1.69,3.01-2.6,4.67-2.6,2.81,0,4.92,2.47,4.99,2.6.13.13.13.33,0,.52-1.47,1.69-3.01,2.6-4.67,2.6Zm-4.22-2.86c.58.59,2.17,2.08,4.22,2.08h0c1.34,0,2.69-.65,3.84-2.02-.58-.59-2.17-2.08-4.22-2.08h0c-1.34-.07-2.62.65-3.84,2.02Z"/>
      <line class="cls-3" x1="388.27" y1="165.61" x2="394.66" y2="173.48"/>
      <line class="cls-5" x1="388.75" y1="164.98" x2="395.86" y2="173.57"/>
    </g>
  </g>
</svg>