<?xml version="1.0" encoding="utf-8"?>
<!-- Generator: Adobe Illustrator 19.2.1, SVG Export Plug-In . SVG Version: 6.00 Build 0)  -->
<svg version="1.1" id="Layer_1" xmlns="http://www.w3.org/2000/svg" xmlns:xlink="http://www.w3.org/1999/xlink" x="0px" y="0px"
	 viewBox="0 0 25 25" style="enable-background:new 0 0 25 25;" xml:space="preserve">
<style type="text/css">
	.st0{fill:#FFFFFF;}
</style>
<g>
	<path class="st0" d="M1.6,23.4v-1.6C1.6,21.2,2,21,2.2,21l6.9-3.2c0.5-0.2,0.8-0.7,0.9-1.2s-0.2-1.1-0.6-1.4C7.8,13.8,7,10.9,7,9.4
		V5.5c0-1.6,2.8-3.9,5.5-3.9S18,3.8,18,5.5v3.9c0,1.5-0.6,4.4-2.3,5.7c-0.4,0.3-0.6,0.9-0.6,1.4c0.1,0.5,0.4,1,0.9,1.2l6.8,3.2
		c0.1,0,0.7,0.1,0.7,1v1.5L1.6,23.4L1.6,23.4z M23.4,19.5l-6.8-3.2c2.2-1.7,2.9-5.1,2.9-6.9V5.5c0-2.6-3.6-5.5-7-5.5s-7,2.9-7,5.5
		v3.9c0,1.7,0.8,5.2,3,6.9l-6.9,3.2c0,0-1.6,0.7-1.6,1.6v2.3C0,24.3,0.7,25,1.6,25h21.9c0.9,0,1.6-0.7,1.6-1.6v-2.3
		C25,20.2,23.4,19.5,23.4,19.5"/>
</g>
</svg>
