<?xml version="1.0" encoding="utf-8"?>
<!-- Generator: Adobe Illustrator 16.0.4, SVG Export Plug-In . SVG Version: 6.00 Build 0)  -->
<!DOCTYPE svg PUBLIC "-//W3C//DTD SVG 1.1//EN" "http://www.w3.org/Graphics/SVG/1.1/DTD/svg11.dtd">
<svg version="1.1" id="Layer_1" xmlns="http://www.w3.org/2000/svg" xmlns:xlink="http://www.w3.org/1999/xlink" x="0px" y="0px"
	 width="25px" height="24.905px" viewBox="0 0 25 24.905" enable-background="new 0 0 25 24.905" xml:space="preserve">
<g>
	<path fill="#FFFFFF" d="M24.783,12.486L13.094,0.24C12.945,0.087,12.743,0,12.531,0c-0.213,0-0.416,0.087-0.562,0.24L0.217,12.486
		c-0.299,0.31-0.288,0.803,0.022,1.101c0.311,0.299,0.803,0.289,1.102-0.022l11.19-11.659l11.128,11.66
		c0.153,0.159,0.357,0.24,0.562,0.24c0.195-0.001,0.39-0.072,0.539-0.219C25.07,13.29,25.08,12.796,24.783,12.486"/>
	<path fill="#FFFFFF" d="M21.832,23.347h-0.814V12.17c0-0.431-0.35-0.779-0.779-0.779c-0.431,0-0.779,0.349-0.779,0.779v11.177
		h-2.271V12.17c0-0.431-0.349-0.779-0.779-0.779s-0.778,0.349-0.778,0.779v11.177H9.37V12.17c0-0.431-0.349-0.779-0.78-0.779
		c-0.43,0-0.778,0.349-0.778,0.779v11.177H5.541V12.17c0-0.431-0.349-0.779-0.78-0.779c-0.43,0-0.779,0.349-0.779,0.779v11.177
		H3.167c-0.431,0-0.779,0.349-0.779,0.779s0.348,0.779,0.779,0.779h18.666c0.432,0,0.78-0.349,0.78-0.779
		S22.264,23.347,21.832,23.347"/>
</g>
</svg>
