<?xml version="1.0" encoding="utf-8"?>
<!-- Generator: Adobe Illustrator 16.0.4, SVG Export Plug-In . SVG Version: 6.00 Build 0)  -->
<!DOCTYPE svg PUBLIC "-//W3C//DTD SVG 1.1//EN" "http://www.w3.org/Graphics/SVG/1.1/DTD/svg11.dtd">
<svg version="1.1" id="Layer_1" xmlns="http://www.w3.org/2000/svg" xmlns:xlink="http://www.w3.org/1999/xlink" x="0px" y="0px"
	 width="21.15px" height="25px" viewBox="0 0 21.15 25" enable-background="new 0 0 21.15 25" xml:space="preserve">
<g>
	<path fill="#FFFFFF" d="M19.587,22.656c0,0.431-0.351,0.78-0.781,0.78h-1.562V1.562h1.562c0.431,0,0.781,0.352,0.781,0.782V22.656z
		 M3.18,23.437v-3.155h0.814c0.423,0,0.766-0.342,0.766-0.766c0-0.423-0.343-0.765-0.766-0.765H3.18v-3.137h0.814
		c0.423,0,0.766-0.342,0.766-0.766c0-0.423-0.343-0.765-0.766-0.765H3.18v-3.16h0.831c0.423,0,0.765-0.343,0.765-0.765
		c0-0.423-0.342-0.767-0.765-0.767H3.18V6.25h0.758c0.422,0,0.765-0.343,0.765-0.765c0-0.424-0.343-0.766-0.765-0.766H3.18V1.611
		c0-0.019,0.002-0.033,0.004-0.047C3.196,1.563,3.211,1.562,3.23,1.562h12.451v21.875H3.18z M18.806,0H3.23
		C2.107,0,1.618,0.83,1.618,1.611V4.72H0.765C0.342,4.72,0,5.062,0,5.485C0,5.907,0.342,6.25,0.765,6.25h0.853v3.143h-0.78
		c-0.423,0-0.765,0.344-0.765,0.767c0,0.422,0.342,0.765,0.765,0.765h0.78v3.16H0.821c-0.423,0-0.765,0.342-0.765,0.765
		c0,0.424,0.342,0.766,0.765,0.766h0.797v3.137H0.821c-0.423,0-0.765,0.342-0.765,0.765c0,0.424,0.342,0.766,0.765,0.766h0.797
		v3.155C1.618,24.732,2.632,25,3.193,25h15.613c1.295,0,2.344-1.049,2.344-2.344V2.344C21.15,1.049,20.101,0,18.806,0"/>
</g>
</svg>
