<?xml version="1.0" encoding="utf-8"?>
<!-- Generator: Adobe Illustrator 16.0.4, SVG Export Plug-In . SVG Version: 6.00 Build 0)  -->
<!DOCTYPE svg PUBLIC "-//W3C//DTD SVG 1.1//EN" "http://www.w3.org/Graphics/SVG/1.1/DTD/svg11.dtd">
<svg version="1.1" id="Layer_1" xmlns="http://www.w3.org/2000/svg" xmlns:xlink="http://www.w3.org/1999/xlink" x="0px" y="0px"
	 width="25px" height="19.541px" viewBox="0 0 25 19.541" enable-background="new 0 0 25 19.541" xml:space="preserve">
<g>
	<path fill="#FFFFFF" d="M12.453,12.403L2.407,7.068l10.064-5.395l10.095,5.379L12.453,12.403z M17.969,17.102
		c-0.614,0.295-2.239,0.876-5.511,0.876c-3.292,0-4.88-0.618-5.454-0.916v-5.789l5.072,2.701c0.115,0.062,0.244,0.094,0.371,0.094
		c0.124,0,0.249-0.029,0.362-0.09l5.16-2.725V17.102z M24.188,14.268v-6.3l0.393-0.208c0.256-0.132,0.416-0.396,0.42-0.684
		c0.002-0.288-0.152-0.555-0.405-0.693L12.844,0.096c-0.235-0.129-0.519-0.128-0.755,0.002L0.402,6.394
		C0.153,6.534-0.001,6.796,0,7.082c0.002,0.286,0.159,0.547,0.411,0.683l5.143,2.737c-0.065,0.114-0.112,0.239-0.112,0.38v6.609
		c0,0.223,0.095,0.435,0.262,0.583c0.169,0.15,1.792,1.467,6.754,1.467c4.945,0,6.613-1.244,6.787-1.386
		c0.181-0.148,0.287-0.37,0.287-0.605V10.77c0-0.109-0.024-0.214-0.064-0.308l3.158-1.669v5.479
		c-0.463,0.271-0.776,0.769-0.776,1.344c0,0.861,0.698,1.562,1.562,1.562c0.862,0,1.562-0.7,1.562-1.562
		C24.973,15.039,24.655,14.54,24.188,14.268"/>
</g>
</svg>
