<svg width="588" height="266" viewBox="0 0 588 266" fill="none" xmlns="http://www.w3.org/2000/svg">
<g clip-path="url(#clip0_3341_47684)">
<rect width="590" height="266" fill="white"/>
<path d="M232.102 266.4H591.102V0.400391H392.602L232.102 266.4Z" fill="#E6E6E6"/>
<path d="M402.398 223C402.398 223.6 401.998 224 401.398 224H185.398C184.898 224 184.398 223.6 184.398 223V94C184.398 93.5 184.898 93 185.398 93H401.398C401.998 93 402.398 93.5 402.398 94V223Z" fill="#F3F3F3"/>
<path d="M401.398 224.5H185.398C184.598 224.5 183.898 223.8 183.898 223V94C183.898 93.2 184.598 92.5 185.398 92.5H401.398C402.198 92.5 402.898 93.2 402.898 94V223C402.898 223.9 402.198 224.5 401.398 224.5ZM185.398 93.5C185.098 93.5 184.898 93.7 184.898 94V223C184.898 223.3 185.098 223.5 185.398 223.5H401.398C401.698 223.5 401.898 223.3 401.898 223V94C401.898 93.7 401.698 93.5 401.398 93.5H185.398Z" fill="black"/>
<path d="M402.398 82H184.398V98H402.398V82Z" fill="#EEC22D"/>
<path d="M402.898 98.5H183.898V81.5H402.898V98.5ZM184.898 97.5H401.898V82.5H184.898V97.5Z" fill="black"/>
<path d="M338.098 110.6H256.898V216.6H338.098V110.6Z" fill="#CCCCCC"/>
<path d="M333.2 106.2H252V212.2H333.2V106.2Z" fill="white"/>
<path d="M333.2 212.7H252C251.7 212.7 251.5 212.5 251.5 212.2V106.2C251.5 105.9 251.7 105.7 252 105.7H333.2C333.5 105.7 333.7 105.9 333.7 106.2V212.2C333.7 212.4 333.5 212.7 333.2 212.7ZM252.5 211.7H332.7V106.7H252.5V211.7Z" fill="#9AB1E8"/>
<path d="M229.698 70.4004H174.898V126.2H229.698V70.4004Z" fill="#A8A8A8"/>
<path d="M402.301 158H190.301V185.9H402.301V158Z" fill="#A8A8A8"/>
<path d="M226.099 120.3C226.099 121.4 225.199 122.3 224.099 122.3H171.199C170.099 122.3 169.199 121.4 169.199 120.3V67.2998C169.199 66.1998 170.099 65.2998 171.199 65.2998H224.099C225.199 65.2998 226.099 66.1998 226.099 67.2998V120.3Z" fill="#011E41"/>
<path d="M402.301 180.6H184.301V145.4H402.301V180.6Z" fill="#011E41"/>
<g opacity="0.5">
<path d="M376.198 232.5C388.791 232.5 398.998 222.292 398.998 209.7C398.998 197.108 388.791 186.9 376.198 186.9C363.606 186.9 353.398 197.108 353.398 209.7C353.398 222.292 363.606 232.5 376.198 232.5Z" fill="#B3B3BA"/>
</g>
<path d="M374.402 230.4C386.994 230.4 397.202 220.192 397.202 207.6C397.202 195.008 386.994 184.8 374.402 184.8C361.809 184.8 351.602 195.008 351.602 207.6C351.602 220.192 361.809 230.4 374.402 230.4Z" fill="#011E41"/>
<path fill-rule="evenodd" clip-rule="evenodd" d="M188.401 81.2003C186.901 80.4003 185.801 81.1003 185.801 82.8003V103C185.801 104.7 187.001 105.4 188.501 104.7L208.301 94.8003C209.801 94.1003 209.801 92.8003 208.301 92.0003L188.401 81.2003Z" fill="white"/>
<path d="M374.001 219.2C380.463 219.2 385.701 213.962 385.701 207.5C385.701 201.038 380.463 195.8 374.001 195.8C367.539 195.8 362.301 201.038 362.301 207.5C362.301 213.962 367.539 219.2 374.001 219.2Z" fill="white"/>
<path d="M374.298 212.3C377.005 212.3 379.198 210.106 379.198 207.4C379.198 204.694 377.005 202.5 374.298 202.5C371.592 202.5 369.398 204.694 369.398 207.4C369.398 210.106 371.592 212.3 374.298 212.3Z" fill="#011E41"/>
<path d="M378.602 197.5H369.602L370.402 191.6H378.102L378.602 197.5Z" fill="white"/>
<path d="M369.602 217.4H378.602L377.902 223.3H370.202L369.602 217.4Z" fill="white"/>
<path d="M368.198 198.6L363.498 206.2L358.898 202.5L362.898 196L368.198 198.6Z" fill="white"/>
<path d="M380.5 216.7L385.2 209.1L389.8 212.8L385.7 219.3L380.5 216.7Z" fill="white"/>
<path d="M363.399 208.6L368.199 216.2L362.799 218.7L358.699 212.2L363.399 208.6Z" fill="white"/>
<path d="M385.101 205.6L380.301 198L385.701 195.6L389.801 202.1L385.101 205.6Z" fill="white"/>
<path d="M253.099 163C253.099 165.1 251.299 166.9 249.099 166.9H195.699C193.499 166.9 191.699 165.1 191.699 163C191.699 160.9 193.499 159.1 195.699 159.1H249.099C251.299 159.1 253.099 160.8 253.099 163Z" fill="#2566DF"/>
<path d="M393.898 163C393.898 165.1 392.098 166.9 389.898 166.9H254.898C252.698 166.9 250.898 165.1 250.898 163C250.898 160.9 252.698 159.1 254.898 159.1H389.998C392.098 159.1 393.898 160.8 393.898 163Z" fill="white"/>
<path d="M389.9 167.2H254.9C252.5 167.2 250.5 165.3 250.5 162.9C250.5 160.5 252.5 158.6 254.9 158.6H390C392.4 158.6 394.4 160.5 394.4 162.9C394.3 165.3 392.3 167.2 389.9 167.2ZM254.9 159.5C252.9 159.5 251.3 161.1 251.3 163C251.3 164.9 252.9 166.5 254.9 166.5H390C392 166.5 393.6 164.9 393.6 163C393.6 161.1 392 159.5 390 159.5H254.9Z" fill="#A8A8A8"/>
<path d="M250.899 170.4C255.152 170.4 258.599 166.953 258.599 162.7C258.599 158.447 255.152 155 250.899 155C246.647 155 243.199 158.447 243.199 162.7C243.199 166.953 246.647 170.4 250.899 170.4Z" fill="#2566DF"/>
</g>
<defs>
<clipPath id="clip0_3341_47684">
<rect width="590" height="266" fill="white"/>
</clipPath>
</defs>
</svg>
