<svg width="588" height="266" viewBox="0 0 588 266" fill="none" xmlns="http://www.w3.org/2000/svg">
<g clip-path="url(#clip0_3341_48948)">
<rect width="588" height="266" fill="white"/>
<path d="M231.312 266.4H589.096V0.400391H391.268L231.312 266.4Z" fill="#E6E6E6"/>
<path d="M401.038 223C401.038 223.6 400.64 224 400.042 224H184.774C184.276 224 183.777 223.6 183.777 223V94C183.777 93.5 184.276 93 184.774 93H400.042C400.64 93 401.038 93.5 401.038 94V223Z" fill="#F3F3F3"/>
<path d="M400.04 224.5H184.772C183.975 224.5 183.277 223.8 183.277 223V94C183.277 93.2 183.975 92.5 184.772 92.5H400.04C400.837 92.5 401.535 93.2 401.535 94V223C401.535 223.9 400.837 224.5 400.04 224.5ZM184.772 93.5C184.473 93.5 184.274 93.7 184.274 94V223C184.274 223.3 184.473 223.5 184.772 223.5H400.04C400.339 223.5 400.538 223.3 400.538 223V94C400.538 93.7 400.339 93.5 400.04 93.5H184.772Z" fill="black"/>
<path d="M401.038 82H183.777V98H401.038V82Z" fill="#EEC22D"/>
<path d="M401.535 98.5H183.277V81.5H401.535V98.5ZM184.274 97.5H400.538V82.5H184.274V97.5Z" fill="black"/>
<path d="M336.952 110.6H256.027V216.6H336.952V110.6Z" fill="#CCCCCC"/>
<path d="M332.073 106.2H251.148V212.2H332.073V106.2Z" fill="white"/>
<path d="M332.072 212.7H251.147C250.848 212.7 250.648 212.5 250.648 212.2V106.2C250.648 105.9 250.848 105.7 251.147 105.7H332.072C332.37 105.7 332.57 105.9 332.57 106.2V212.2C332.57 212.4 332.37 212.7 332.072 212.7ZM251.645 211.7H331.573V106.7H251.645V211.7Z" fill="#9AB1E8"/>
<g opacity="0.5">
<path d="M230.617 71.5996H174.309V127.9H230.617V71.5996Z" fill="#A8A8A8"/>
</g>
<path d="M227.126 68.0996H172.512V123.9H227.126V68.0996Z" fill="#011E41"/>
<path d="M227.126 68H172.512V71.7H227.126V68Z" fill="#67C1F9"/>
<path d="M296.789 122.9H259.117V118.8H296.789V122.9Z" fill="#D6D8D8"/>
<path d="M296.789 131.3H259.117V127.2H296.789V131.3Z" fill="#D6D8D8"/>
<path d="M296.789 139.2H259.117V135.1H296.789V139.2Z" fill="#D6D8D8"/>
<path d="M324.297 155.1H286.625V151H324.297V155.1Z" fill="#D6D8D8"/>
<path d="M324.297 163.5H286.625V159.4H324.297V163.5Z" fill="#D6D8D8"/>
<path d="M324.297 171.4H286.625V167.3H324.297V171.4Z" fill="#D6D8D8"/>
<path d="M297.887 188.9H260.215V184.8H297.887V188.9Z" fill="#D6D8D8"/>
<path d="M297.887 197.4H260.215V193.3H297.887V197.4Z" fill="#D6D8D8"/>
<path d="M297.887 205.3H260.215V201.2H297.887V205.3Z" fill="#D6D8D8"/>
<path d="M208.23 81.2533L185.609 103.951L191.458 109.82L214.079 87.1222L208.23 81.2533Z" fill="white"/>
<path d="M184.473 105.199L181.583 112.799C181.184 113.699 181.683 114.199 182.679 113.899L190.253 110.999L184.473 105.199Z" fill="white"/>
<path d="M215.269 85.8996L216.265 84.8996C216.764 84.3996 216.764 83.5996 216.265 83.0996L212.279 79.0996C211.78 78.5996 210.983 78.5996 210.485 79.0996L209.488 80.0996L215.269 85.8996Z" fill="white"/>
<g opacity="0.35">
<path d="M382.497 173H327.883V227.6H382.497V173Z" fill="#A8A8A8"/>
</g>
<path d="M379.11 167.9H324.496V223.7H379.11V167.9Z" fill="#011E41"/>
<path d="M352.301 174.4V186.2" stroke="#CBCFD1" stroke-width="1.5" stroke-miterlimit="10" stroke-linecap="round" stroke-linejoin="round"/>
<path d="M346.223 180.301H358.082" stroke="#CBCFD1" stroke-width="1.5" stroke-miterlimit="10" stroke-linecap="round" stroke-linejoin="round"/>
<path opacity="0.5" d="M346.223 213.8H358.082" stroke="#CBCFD1" stroke-width="1.5" stroke-miterlimit="10" stroke-linecap="round" stroke-linejoin="round"/>
<path d="M352.003 201.8C353.379 201.8 354.495 200.681 354.495 199.3C354.495 197.919 353.379 196.8 352.003 196.8C350.627 196.8 349.512 197.919 349.512 199.3C349.512 200.681 350.627 201.8 352.003 201.8Z" stroke="#E6E6E6" stroke-width="0.75" stroke-miterlimit="10"/>
<path d="M256.028 110.6C256.028 110.6 255.131 113.9 268.585 114.5C282.04 115.1 294.697 115.1 301.772 115.1C308.848 115.1 315.426 119.6 315.426 128.8C315.426 137.3 314.828 145 300.278 145C272.173 145 271.376 152.7 271.376 161C271.376 168.4 272.472 178.9 294.597 178.9C309.646 178.9 308.45 205.4 308.45 205.4" stroke="#09ADA8" stroke-miterlimit="10"/>
</g>
<defs>
<clipPath id="clip0_3341_48948">
<rect width="588" height="266" fill="white"/>
</clipPath>
</defs>
</svg>
