<svg width="32" height="32" viewBox="0 0 32 32" fill="none" xmlns="http://www.w3.org/2000/svg">
<path d="M31.5 16C31.5 24.5604 24.5604 31.5 16 31.5C7.43959 31.5 0.5 24.5604 0.5 16C0.5 7.43959 7.43959 0.5 16 0.5C24.5604 0.5 31.5 7.43959 31.5 16Z" fill="#FFCE09" stroke="#16191C"/>
<path d="M19.6777 24.275V23.3555C18.1696 23.2084 18.0593 23.098 18.0593 21.3325V12.7624C16.6984 13.167 14.9328 13.4244 13.3144 13.7187V14.675C14.5282 14.8221 14.8225 14.9325 14.8225 16.5877V21.3325C14.8225 23.098 14.6754 23.2451 13.2041 23.3555V24.3118L19.6777 24.275ZM16.1466 11.2543C17.2501 11.2543 18.0593 10.4451 18.0593 9.48882C18.0593 8.38537 17.2501 7.57617 16.1466 7.57617C15.1903 7.57617 14.234 8.38537 14.234 9.48882C14.234 10.298 15.08 11.2543 16.1466 11.2543Z" fill="#16191C"/>
</svg>
