<svg width="32" height="32" viewBox="0 0 32 32" fill="none" xmlns="http://www.w3.org/2000/svg">
<path d="M31.5 16C31.5 24.5604 24.5604 31.5 16 31.5C7.43959 31.5 0.5 24.5604 0.5 16C0.5 7.43959 7.43959 0.5 16 0.5C24.5604 0.5 31.5 7.43959 31.5 16Z" fill="white" stroke="#16191C"/>
<path fill-rule="evenodd" clip-rule="evenodd" d="M17.4425 7.24378C17.4425 6.55686 16.8656 6 16.1539 6C15.4422 6 14.8652 6.55686 14.8652 7.24378V17.8953L11.5144 14.5392C11.0206 14.0445 10.2048 14.0299 9.69232 14.5066C9.17984 14.9832 9.16473 15.7706 9.65858 16.2653L15.1225 21.7379C15.3625 21.9783 15.6926 22.1155 16.0385 22.1186C16.3844 22.1217 16.717 21.9904 16.9616 21.7543L22.6317 16.2817C23.135 15.796 23.135 15.0084 22.6317 14.5227C22.1285 14.037 21.3125 14.037 20.8093 14.5227L17.4425 17.7722V7.24378ZM7.28869 20.9254C8.0004 20.9254 8.57735 21.4822 8.57735 22.1692V23.4627L8.57737 23.5039C8.64822 23.5091 8.73344 23.5124 8.83508 23.5124H23.3711L23.4125 23.5123C23.4149 23.4727 23.4182 23.4315 23.4227 23.3889V22.1692C23.4227 21.4822 23.9996 20.9254 24.7113 20.9254C25.423 20.9254 26 21.4822 26 22.1692V23.4627C26 23.5215 25.9957 23.5803 25.987 23.6386C25.9825 23.6695 25.9835 23.6941 25.991 23.8732L25.9925 23.9084L25.9933 23.9272C25.9999 24.0729 26.0176 24.4634 25.8475 24.8533C25.6227 25.3685 25.1882 25.673 24.7276 25.8272C24.324 25.9623 23.8567 26 23.3711 26H8.83508C7.97956 26 7.05183 25.852 6.47055 25.1413C6.18908 24.7972 6.08313 24.4277 6.03874 24.145C5.99963 23.8958 5.99987 23.6446 6.00002 23.4893L6.00004 23.4627V22.1692C6.00004 21.4822 6.57699 20.9254 7.28869 20.9254Z" fill="black"/>
</svg>
