<?xml version="1.0" encoding="utf-8"?>
<!-- Generator: Adobe Illustrator 19.1.0, SVG Export Plug-In . SVG Version: 6.00 Build 0)  -->
<svg version="1.1" id="Layer_1" xmlns="http://www.w3.org/2000/svg" xmlns:xlink="http://www.w3.org/1999/xlink" x="0px" y="0px"
	 viewBox="0 0 29.6 29.6" style="enable-background:new 0 0 29.6 29.6;" xml:space="preserve">
<style type="text/css">
	.st0{opacity:0.75;fill:#FFFFFF;}
	.st1{fill:#FFFFFF;}
	.st2{clip-path:url(#SVGID_2_);fill:#0E2050;}
	.st3{clip-path:url(#SVGID_2_);fill:#FFFFFF;}
	.st4{clip-path:url(#SVGID_2_);fill:none;stroke:#0E2050;stroke-width:0.657;stroke-miterlimit:10;}
	.st5{clip-path:url(#SVGID_2_);fill:none;stroke:#0E2050;stroke-width:0.789;stroke-linecap:round;}
	.st6{clip-path:url(#SVGID_4_);fill:#FFFFFF;}
	.st7{clip-path:url(#SVGID_4_);fill:#0E2050;}
	.st8{fill:none;}
</style>
<g>
	<circle class="st0" cx="14.8" cy="14.8" r="14.8"/>
	<path class="st1" d="M14.7,25.4c5.9,0,10.7-4.8,10.7-10.7c0-5.9-4.8-10.7-10.7-10.7S4,8.9,4,14.8C4,20.7,8.8,25.4,14.7,25.4"/>
	<g>
		<defs>
			<rect id="SVGID_1_" x="4" y="3.8" width="21.6" height="21.7"/>
		</defs>
		<clipPath id="SVGID_2_">
			<use xlink:href="#SVGID_1_"  style="overflow:visible;"/>
		</clipPath>
		<path class="st2" d="M14.7,25.4c5.9,0,10.7-4.8,10.7-10.7S20.6,4,14.7,4S4,8.8,4,14.7S8.8,25.4,14.7,25.4"/>
		<path class="st3" d="M24.1,17.7H12.8c-0.6,0-1.1-0.5-1.1-1.1V5.2c0-0.6,0.5-1.1,1.1-1.1h11.3c0.6,0,1.1,0.5,1.1,1.1v11.3
			C25.3,17.2,24.8,17.7,24.1,17.7"/>
		<path class="st4" d="M24.1,17.7H12.8c-0.6,0-1.1-0.5-1.1-1.1V5.2c0-0.6,0.5-1.1,1.1-1.1h11.3c0.6,0,1.1,0.5,1.1,1.1v11.3
			C25.3,17.2,24.8,17.7,24.1,17.7z"/>
		<path class="st5" d="M23,9.8h-7.5 M23,7.4h-7.5"/>
	</g>
	<g>
		<defs>
			<path id="SVGID_3_" d="M4,14.7c0,5.9,4.8,10.7,10.7,10.7c5.9,0,10.7-4.8,10.7-10.7C25.4,8.8,20.6,4,14.7,4C8.8,4,4,8.8,4,14.7"/>
		</defs>
		<clipPath id="SVGID_4_">
			<use xlink:href="#SVGID_3_"  style="overflow:visible;"/>
		</clipPath>
		<path class="st6" d="M6.7,25.8v-6.8c0-1.8,0.9-2.7,1.7-3.1c0.8-0.4,1.7-0.5,1.8-0.5l0.2,0l1,1.6l1-1.6l3.7-0.5
			c0.2,0,0.5-0.1,0.7-0.2l2.8-1.6c0.3-0.2,0.6-0.3,0.9-0.3c0.6,0,1.3,0.3,1.6,0.9c0.2,0.4,0.3,0.9,0.2,1.4c-0.1,0.5-0.4,0.9-0.8,1.1
			L18.7,18c-0.5,0.3-2.3,0.9-3,1.2v6.6H6.7z"/>
		<path class="st7" d="M20.5,13.3c0.5,0,1,0.3,1.2,0.7c0.4,0.7,0.2,1.6-0.5,2l-2.8,1.8c-0.6,0.4-3.2,1.2-3.2,1.2v6.4H7.1v-6.4
			c0-3.1,3-3.2,3.1-3.2l1.2,2l1.2-2l3.5-0.4c0.3,0,0.6-0.1,0.8-0.3l2.8-1.6C20,13.3,20.3,13.3,20.5,13.3 M20.5,12.5
			c-0.4,0-0.8,0.1-1.1,0.3l-2.8,1.6c-0.2,0.1-0.3,0.2-0.5,0.2L12.6,15l-0.4,0L12,15.4l-0.6,0.9l-0.5-0.9L10.7,15l-0.5,0
			c-1.4,0-3.9,0.9-3.9,3.9v6.4v0.8h0.8h8.2h0.8v-0.8v-5.9c0.8-0.3,2.3-0.8,2.8-1.1l0,0l0,0l2.8-1.7c1.1-0.6,1.4-2,0.8-3.1
			C22.1,12.9,21.3,12.5,20.5,12.5"/>
		<path class="st6" d="M11.3,15.6c-1.7,0-3.1-1.4-3.1-3.1c0-1.7,1.4-3.1,3.1-3.1c1.7,0,3.1,1.4,3.1,3.1
			C14.5,14.2,13.1,15.6,11.3,15.6"/>
		<path class="st7" d="M11.3,9.7c1.5,0,2.8,1.2,2.8,2.8c0,1.5-1.2,2.8-2.8,2.8c-1.5,0-2.8-1.2-2.8-2.8C8.6,10.9,9.8,9.7,11.3,9.7
			 M11.3,8.9c-2,0-3.5,1.6-3.5,3.5c0,2,1.6,3.5,3.5,3.5s3.5-1.6,3.5-3.5C14.9,10.5,13.3,8.9,11.3,8.9"/>
	</g>
	<path class="st1" d="M7.1,19l0,3.3c2.1,2.1,5,3.3,8.2,3.1l0-6.4H7.1z"/>
	<rect x="4" y="3.8" class="st8" width="21.6" height="21.7"/>
</g>
</svg>
