<svg width="24" height="24" viewBox="0 0 24 24" fill="none" xmlns="http://www.w3.org/2000/svg">
<path d="M23.625 12C23.625 18.4203 18.4203 23.625 12 23.625C5.57969 23.625 0.375 18.4203 0.375 12C0.375 5.57969 5.57969 0.375 12 0.375C18.4203 0.375 23.625 5.57969 23.625 12Z" fill="white" stroke="#16191C" stroke-width="0.75"/>
<path fill-rule="evenodd" clip-rule="evenodd" d="M13.0098 5.87057C13.0098 5.38977 12.6059 5 12.1077 5C11.6095 5 11.2057 5.38977 11.2057 5.87057V13.3261L8.86034 10.9772C8.51465 10.631 7.94359 10.6208 7.58485 10.9544C7.22611 11.288 7.21554 11.8392 7.56123 12.1854L11.386 16.0159C11.554 16.1842 11.785 16.2802 12.0272 16.2823C12.2693 16.2845 12.5022 16.1926 12.6734 16.0274L16.6424 12.1969C16.9947 11.8569 16.9947 11.3057 16.6424 10.9657C16.2902 10.6257 15.719 10.6257 15.3667 10.9657L13.0098 13.2404V5.87057ZM5.90209 15.4481C6.40028 15.4481 6.80415 15.8378 6.80415 16.3186V17.224L6.80416 17.2528C6.85375 17.2565 6.91341 17.2589 6.98456 17.2589H17.1598L17.1887 17.2588C17.1904 17.2311 17.1927 17.2022 17.1959 17.1724V16.3186C17.1959 15.8378 17.5997 15.4481 18.0979 15.4481C18.5961 15.4481 19 15.8378 19 16.3186V17.224C19 17.2652 18.997 17.3064 18.9909 17.3471C18.9877 17.3688 18.9885 17.386 18.9937 17.5114L18.9948 17.536L18.9953 17.5492C18.9999 17.6512 19.0123 17.9245 18.8932 18.1974C18.7359 18.558 18.4317 18.7711 18.1093 18.879C17.8268 18.9736 17.4997 19 17.1598 19H6.98456C6.38569 19 5.73628 18.8964 5.32938 18.399C5.13235 18.1581 5.05819 17.8995 5.02712 17.7016C4.99974 17.5272 4.99991 17.3514 5.00001 17.2427L5.00003 17.224V16.3186C5.00003 15.8378 5.40389 15.4481 5.90209 15.4481Z" fill="black"/>
</svg>
