<svg xmlns="http://www.w3.org/2000/svg" xmlns:xlink="http://www.w3.org/1999/xlink" width="22.236" height="22.219" viewBox="0 0 22.236 22.219"><defs><path id="a" d="M.146.14h22V22.14h-22z"/></defs><clipPath id="b"><use xlink:href="#a" overflow="visible"/></clipPath><path clip-path="url(#b)" fill="#FFF" d="M15.207 11.14l6.1-6.1c1.123-1.12 1.123-2.94 0-4.06-1.12-1.12-2.94-1.12-4.06 0l-6.1 6.1L5.045.98C3.925-.14 2.107-.14.985.98c-1.12 1.122-1.12 2.94 0 4.06l6.1 6.1-6.1 6.104c-1.12 1.12-1.12 2.94 0 4.06.56.562 1.295.84 2.03.84.734 0 1.47-.278 2.03-.84l6.1-6.102 6.1 6.098c.56.56 1.295.84 2.03.84.734 0 1.47-.28 2.03-.84 1.122-1.12 1.122-2.938 0-4.06l-6.098-6.1z"/></svg>