<svg xmlns="http://www.w3.org/2000/svg" xmlns:xlink="http://www.w3.org/1999/xlink" width="169" height="222" viewBox="0 0 169 222"><defs><path id="a" d="M5 5h159v212H5z"/></defs><clipPath id="b"><use xlink:href="#a" overflow="visible"/></clipPath><path clip-path="url(#b)" fill="#3D9092" d="M164 207c0 5.5-4.5 10-10 10H15c-5.5 0-10-4.5-10-10V15C5 9.5 9.5 5 15 5h139c5.5 0 10 4.5 10 10v192z"/><path clip-path="url(#b)" fill="#FFF" d="M93.757 185l9.92-15.272 17.785 3.91-9.397-22.91-9.396-22.91-13.853 5.68-13.853 5.683 9.397 22.91"/><path clip-path="url(#b)" fill="#FFF" d="M75.243 185l-9.92-15.272-17.785 3.91 9.397-22.91 9.396-22.91 13.853 5.68 13.853 5.683-9.397 22.91"/><path clip-path="url(#b)" fill="#3D9092" d="M30.432 88.743c0-29.86 24.207-54.068 54.068-54.068 29.86 0 54.068 24.207 54.068 54.068 0 29.86-24.208 54.068-54.068 54.068-29.86.002-54.068-24.206-54.068-54.067"/><path clip-path="url(#b)" fill="#FFF" d="M38.432 88.743c0-25.443 20.625-46.068 46.068-46.068 25.442 0 46.068 20.625 46.068 46.068 0 25.443-20.626 46.068-46.068 46.068-25.443.002-46.068-20.623-46.068-46.067"/><path clip-path="url(#b)" fill="#3D9092" d="M60.1 88.743c0-13.475 10.925-24.4 24.4-24.4 13.476 0 24.4 10.925 24.4 24.4 0 13.475-10.925 24.4-24.4 24.4-13.476 0-24.4-10.925-24.4-24.4"/></svg>