<svg xmlns="http://www.w3.org/2000/svg" xmlns:xlink="http://www.w3.org/1999/xlink" width="73" height="73" viewBox="0 0 73 73"><defs><path id="a" d="M.705.706h71.59v71.59H.705z"/></defs><clipPath id="b"><use xlink:href="#a" overflow="visible"/></clipPath><path clip-path="url(#b)" fill="#8AB2B2" d="M36.5 7.744c-15.857 0-28.757 12.9-28.757 28.756 0 15.855 12.9 28.755 28.757 28.755 15.857 0 28.757-12.9 28.757-28.755 0-15.855-12.9-28.756-28.757-28.756m0 64.55C16.763 72.295.705 56.24.705 36.502S16.763.707 36.5.707c19.737 0 35.795 16.057 35.795 35.795 0 19.738-16.058 35.795-35.795 35.795"/><path clip-path="url(#b)" fill="#8AB2B2" d="M30.348 30.777c0 2.43-1.973 4.406-4.406 4.406s-4.404-1.975-4.404-4.406c0-2.433 1.97-4.406 4.404-4.406s4.406 1.974 4.406 4.407M51.462 30.777c0 2.43-1.973 4.406-4.406 4.406s-4.404-1.975-4.404-4.406c0-2.433 1.972-4.406 4.404-4.406 2.433 0 4.406 1.974 4.406 4.407M24.8 54.56c-1.21 0-2.388-.624-3.042-1.745-.98-1.678-.412-3.832 1.267-4.812 8.143-4.748 18.785-4.762 26.944-.02 1.68.975 2.252 3.13 1.276 4.81-.976 1.68-3.13 2.253-4.81 1.276-6.014-3.49-13.87-3.485-19.867.013-.558.323-1.168.478-1.77.478"/></svg>