<svg xmlns="http://www.w3.org/2000/svg" xmlns:xlink="http://www.w3.org/1999/xlink" width="41" height="41" viewBox="0 0 41 41"><defs><path id="a" d="M.156.156h40.688v40.688H.156z"/></defs><clipPath id="b"><use xlink:href="#a" overflow="visible"/></clipPath><path clip-path="url(#b)" fill="#FFA100" d="M20.5 4.156c-9.012 0-16.344 7.333-16.344 16.344 0 9.012 7.332 16.344 16.344 16.344 9.013 0 16.345-7.332 16.345-16.344 0-9.01-7.332-16.344-16.345-16.344m0 36.688C9.282 40.844.156 31.717.156 20.5.156 9.282 9.282.156 20.5.156c11.22 0 20.345 9.126 20.345 20.344 0 11.217-9.126 20.344-20.345 20.344"/><path clip-path="url(#b)" fill="#FFA100" d="M23.92 20.5c0 1.887-1.53 3.42-3.42 3.42s-3.42-1.533-3.42-3.42c0-1.89 1.53-3.42 3.42-3.42s3.42 1.53 3.42 3.42"/><path clip-path="url(#b)" fill="#FFA100" d="M20.367 20.5c0 .867.703 1.57 1.57 1.57h7.89c.868 0 1.57-.703 1.57-1.57s-.702-1.572-1.57-1.57l-7.89-.002c-.867.002-1.57.705-1.57 1.572"/><path clip-path="url(#b)" fill="#FFA100" d="M20.5 20.895c.868 0 1.57-.703 1.57-1.57v-7.89c0-.868-.702-1.57-1.57-1.57s-1.57.702-1.57 1.57v7.89c0 .866.704 1.57 1.57 1.57"/></svg>