<svg xmlns="http://www.w3.org/2000/svg" width="132.192" height="106.114" viewBox="0 0 132.192 106.114"><path fill="#FFB500" d="M125.068 18.96c-.564-.03-1.107-.048-1.664-.072v-3.535c0-1.762-.69-3.406-1.947-4.626-1.27-1.237-2.928-1.903-4.764-1.84-1.275.035-2.465.122-3.69.19V7.542c0-1.837-.784-3.597-2.15-4.83-1.38-1.243-3.25-1.837-5.074-1.647-20.568 2.17-34.722 12.783-39.575 16.957-4.854-4.174-19.008-14.788-39.57-16.956-3.93-.417-7.23 2.657-7.23 6.476v1.535c-1.224-.068-2.413-.155-3.69-.19-1.858-.054-3.49.603-4.763 1.84-1.256 1.22-1.947 2.864-1.947 4.626v1.37c-.55.02-1.09.032-1.648.058-3.45.17-6.152 3.022-6.152 6.496v67.16c0 1.787.71 3.45 2.003 4.683 1.293 1.232 3.078 1.89 4.855 1.807 17.634-.83 35.91 1.695 54.25 7.5 1.266.4 2.574.603 3.89.603 1.32 0 2.63-.203 3.894-.603 18.34-5.805 36.573-8.336 54.253-7.5 1.76.063 3.562-.576 4.852-1.81 1.293-1.23 2.004-2.895 2.004-4.68V25.45c0-3.46-2.696-6.31-6.138-6.49m-8.226-4.876c.357.02.732.12.992.372.168.164.37.454.37.897v67.664c0 .702-.563 1.25-1.31 1.272-19.03.58-32.894 5.385-41.383 9.47 6.705-5.847 17.724-13.276 31.748-14.788 3.275-.353 5.746-3.122 5.746-6.442V14.282c1.27-.073 2.51-.16 3.838-.198m-10.52-7.848c.518-.058.884.19 1.05.34.16.147.433.465.433.966V72.53c0 .646-.484 1.205-1.104 1.27-18.085 1.95-31.315 12.514-37.895 19.017V22.67c3.308-2.95 17.202-14.29 37.517-16.434M24.604 7.542c0-.72.59-1.304 1.465-1.304h.017c20.303 2.14 34.2 13.472 37.517 16.43v70.14c-6.586-6.503-19.83-17.06-37.896-19.007-.62-.065-1.104-.624-1.104-1.27V7.54zm-10.4 7.812c0-.443.204-.733.372-.897.26-.252.62-.347.992-.372 1.327.037 2.57.125 3.837.198V72.53c0 3.32 2.47 6.09 5.746 6.442 14.027 1.512 25.046 8.943 31.75 14.79-8.503-4.093-22.36-8.89-41.385-9.472-.746-.023-1.31-.57-1.31-1.272V15.354zM7.82 91.73c-.558.045-.863-.222-1.02-.373-.18-.17-.394-.472-.394-.92v-67.16c0-.685.54-1.27 1.204-1.3.473-.024.928-.033 1.396-.052v61.092c0 3.52 2.79 6.36 6.353 6.47 12.498.382 22.61 2.66 30.318 5.298-12.78-2.582-25.46-3.632-37.857-3.054m118.186-1.292c0 .448-.213.748-.393.92-.27.26-.616.4-1.02.374-12.414-.577-25.087.473-37.867 3.056 7.705-2.64 17.822-4.918 30.328-5.3 3.565-.11 6.355-2.95 6.355-6.47V24.092c.467.02.922.035 1.39.06.68.034 1.21.606 1.21 1.3v64.986z"/></svg>