<svg xmlns="http://www.w3.org/2000/svg" xmlns:xlink="http://www.w3.org/1999/xlink" width="15.721" height="24.406" viewBox="0 0 15.721 24.406"><defs><path id="a" d="M.157.126h15.36v24.06H.157z"/></defs><clipPath id="b"><use xlink:href="#a" overflow="visible"/></clipPath><path clip-path="url(#b)" fill="#FFF" d="M4.587 21.37c0 1.554 1.293 2.815 2.813 2.815 1.52 0 2.813-1.262 2.813-2.814 0-1.52-1.294-2.81-2.813-2.81-1.52 0-2.813 1.292-2.813 2.81m.29-6.724c0 1.486 1.036 2.52 2.523 2.52 1.488 0 2.52-1.034 2.52-2.52v-.648c3.235-.645 5.597-2.554 5.597-6.693 0-4.527-3.72-7.18-7.987-7.18C4.328.126.157 2.196.157 5.85c0 1.293 1.035 2.425 2.328 2.425 2.587 0 2.167-2.91 5.045-2.91 1.487 0 2.36 1.1 2.36 2.1 0 1.49-.938 2.168-2.458 2.46-1.326.225-2.555.387-2.555 2.133v2.588z"/></svg>