<svg xmlns="http://www.w3.org/2000/svg" xmlns:xlink="http://www.w3.org/1999/xlink" width="18.016" height="21.243" viewBox="0 0 18.016 21.243"><defs><path id="a" d="M.125.134h17.75v21H.125z"/></defs><clipPath id="b"><use xlink:href="#a" overflow="visible"/></clipPath><path clip-path="url(#b)" fill="#FFF" d="M15.66 16.383h-2.534v2.534c0 .233-.094.444-.247.596-.153.153-.364.247-.597.247-.466 0-.843-.377-.843-.843v-2.534H8.905c-.466 0-.843-.377-.843-.843s.377-.843.843-.843h2.535v-2.534c0-.465.376-.843.842-.843s.843.378.843.843v2.534h2.533c.467 0 .844.377.844.843 0 .233-.095.444-.247.596-.154.153-.364.247-.596.247M12.28 9.947c-3.09 0-5.593 2.504-5.593 5.594 0 3.09 2.503 5.594 5.592 5.594s5.594-2.504 5.594-5.593c0-3.09-2.505-5.593-5.594-5.593"/><path clip-path="url(#b)" fill="#FFF" d="M2.488 2.8c-.097-.418-.03-.727.726-.727h8.295l.484 1.453H3.48c-.825 0-.848-.106-.992-.726m.645 15.232V5.464H13.21v3.588c.687.097 1.337.3 1.938.595V4.493s0-.967-.97-.967h-.245l-.485-1.454-.003-.01c.488-.05.87-.458.87-.96 0-.534-.436-.968-.97-.968H1.627S.125.134.125 2.12v15.376s0 2.47 1.988 2.47c0 0 .175-.004.38-.075.166.045.343.076.54.076H7.45c-.517-.563-.94-1.215-1.237-1.934h-3.08z"/></svg>