<svg xmlns="http://www.w3.org/2000/svg" xmlns:xlink="http://www.w3.org/1999/xlink" width="169" height="222" viewBox="0 0 169 222"><defs><path id="a" d="M5 5h159v212H5z"/></defs><clipPath id="b"><use xlink:href="#a" overflow="visible"/></clipPath><path clip-path="url(#b)" fill="#FFA000" d="M164 207c0 5.5-4.5 10-10 10H15c-5.5 0-10-4.5-10-10V15C5 9.5 9.5 5 15 5h139c5.5 0 10 4.5 10 10v192z"/><path clip-path="url(#b)" fill="#FFF" d="M24 76h21v21H24zM24 35h122v21H24zM24 107h21v21H24zM24 139h21v21H24zM24 170h21v21H24zM55 76h41v21H55zM55 107h41v21H55zM55 139h41v21H55zM55 170h41v21H55zM106 76h40v21h-40zM106 107h40v21h-40zM106 139h40v21h-40zM106 170h40v21h-40z"/></svg>