<svg xmlns="http://www.w3.org/2000/svg" width="49" height="77.667" viewBox="0 0 49 77.667"><path fill="#FFF" d="M46.544 17.297V5.504c0-1.615-1.322-2.937-2.937-2.937H5.517c-1.614 0-2.936 1.322-2.936 2.937v11.868c0 10.976 13.413 16.28 13.413 21.97 0 5.69-13.412 11.014-13.412 21.967v11.74c0 1.616 1.322 2.938 2.938 2.938h38.089c1.615 0 2.937-1.322 2.937-2.937V61.31c0-10.89-13.062-15.632-13.062-21.965S46.544 28.33 46.544 17.297M27.607 39.343c0 5.174 3.688 8.858 6.942 12.108 3.696 3.694 6.12 6.376 6.12 9.857v7.338h-1.62l-10.255-9.86c-2.33-2.24-6.14-2.24-8.468 0l-10.253 9.86h-1.62V61.31c0-3.91 3.342-7.203 6.574-10.387 3.362-3.313 6.837-6.74 6.837-11.58 0-4.842-3.474-8.265-6.834-11.574-3.972-3.913-6.576-6.75-6.576-10.4V9.976H40.67v7.323c0 3.573-2.435 6.27-6.15 9.98-3.24 3.233-6.913 6.9-6.913 12.065"/></svg>