<svg xmlns="http://www.w3.org/2000/svg" width="515" height="102" viewBox="0 0 515 102"><path fill="#FFF" d="M433.754 46.006h39v54h-39zM474.754 5.006V16.72h27v29.286h12v-41"/><path fill="#FFF" d="M454.254 25.506v12h27v36h12v-48"/><g fill="#FFF"><path d="M406.797 56.682V46.077h-29.71v53.88h12.448v-21.55h16.29v-10.22h-16.29V56.68h17.262zm-35.293 43.275V88.924H355.22V46.077h-12.46v53.88h28.744zm-37.594 0V89.25h-17.88V77.37h16.93V67.22h-16.93V56.526h17.88v-10.45h-30.338v53.88h30.338zm-41.338 0v-53.88h-12.46v20.658h-19.716V46.077H247.93v53.88h12.466v-22.43h19.715v22.43h12.462zM240.994 82.86c0-17.07-21.96-13.954-21.96-22.353 0-3.023 2.333-5.096 7.43-5.096 3.272 0 6.296.55 9.272 1.595l1.103-10.863c-3.108-.713-7.027-1.04-9.822-1.04-13.562 0-21.316 6.712-21.316 16.86 0 18.045 21.568 13.34 21.568 22.512 0 3.898-3.36 5.58-7.355 5.58-4.477 0-8.465-.96-11.967-2.4l-1.205 11.82c3.768.967 7.828 1.428 12.85 1.428 12.7 0 21.4-7.732 21.4-18.043m-36.886 17.097L185.43 72.012l17.802-25.935h-15.08l-14.77 23.773V46.077h-12.44v53.88h12.44V74.645l14.606 25.312h16.12zm-63.38-26.584c0 10.46-5.335 16.21-12.692 16.21-8.457 0-12.53-6.4-12.53-16.94 0-10.446 5.35-16.286 12.7-16.286 8.533 0 12.52 6.48 12.52 17.016m13.183-1.28c0-16.68-8.135-27.06-24.828-27.06-14.688 0-26.735 11.102-26.735 28.91 0 16.67 8.134 27.05 24.83 27.05 14.685 0 26.733-11.1 26.733-28.9m-69.36 1.28c0 10.46-5.364 16.21-12.7 16.21-8.466 0-12.527-6.4-12.527-16.94 0-10.446 5.34-16.286 12.68-16.286 8.546 0 12.547 6.48 12.547 17.016m13.158-1.28c0-16.68-8.135-27.06-24.822-27.06-14.688 0-26.735 11.102-26.735 28.91 0 16.67 8.136 27.05 24.817 27.05 14.693 0 26.74-11.1 26.74-28.9M27.78 83.342c0 4.087-3.1 6.788-8.702 6.788-1.59 0-3.828-.153-4.87-.237V77.045c.958-.082 3.516-.082 4.157-.082 5.982 0 9.416 2.234 9.416 6.38m-1.36-22.1c0 4.065-2.478 6.544-8.534 6.544-1.437 0-2.637 0-3.68-.088V55.73c1.36-.082 2.875-.166 4.788-.166 5.12 0 7.426 2.246 7.426 5.678m14.7 21.863c0-5.664-3.683-10.527-8.87-11.893v-.238c4.72-2.07 7.345-6.627 7.345-11.662 0-9.023-6.945-13.566-18.516-13.566-6.627 0-14.373.156-19.325.395v53.814c7.827 0 13.663.16 17.093.16 15.644 0 22.27-8.072 22.27-17.01M407.064 26.438c0-10.154-13.047-8.3-13.047-13.277 0-1.8 1.373-3.046 4.412-3.046 1.942 0 3.75.334 5.507.952l.666-6.454c-1.86-.436-4.188-.623-5.844-.623-8.08 0-12.675 3.994-12.675 10.016 0 10.73 12.816 7.937 12.816 13.396 0 2.326-2.005 3.31-4.366 3.31-2.652 0-5.035-.565-7.12-1.416l-.708 7.026c2.22.564 4.648.853 7.637.853 7.552-.002 12.72-4.612 12.72-10.737M377.878 1.006c-3.947 0-5.36 4.366-3.28 6.746 1.716 2.037 1.472 4.027-1.892 7.593l2.94 2.61c9.824-8.355 7.404-16.95 2.232-16.95M361.074 14.44c0 2.703-1.986 4.365-5.135 4.365-.706 0-1.468-.053-1.85-.096V10.49c.425-.045 1.276-.095 2.05-.095 3.464 0 4.934 1.533 4.934 4.043m9.922 22.16l-6.646-10.3c-.717-1.183-1.566-2.368-2.47-3.604 4.08-1.037 6.935-4.557 6.935-8.877 0-6.784-4.555-9.493-12.11-9.493-3.84 0-7.308.04-10.013.236V36.6h7.4V24.08h.424l7.463 12.52h9.016zm-29.57 0v-6.36H330.78v-7.07h10.07v-6.027h-10.07V10.78h10.646V4.563h-18.05V36.6h18.05zm-24.586 0V4.564h-7.076v7.973c0 3.795.145 10.924.336 13.672-.725-2.04-1.71-4.412-2.764-6.4l-7.97-15.244h-9.724v32.04h7.07V28.1c0-4.168-.19-11.05-.336-13.43.568 1.905 1.383 3.848 2.514 6.176l8.256 15.755h9.694zm-40.254-22.16c0 2.703-1.996 4.365-5.13 4.365-.71 0-1.468-.053-1.85-.096V10.49c.433-.045 1.284-.095 2.046-.095 3.465 0 4.934 1.533 4.934 4.043m9.918 22.162l-6.637-10.3c-.73-1.185-1.572-2.37-2.477-3.606 4.086-1.037 6.926-4.557 6.926-8.877 0-6.784-4.54-9.493-12.092-9.493-3.855 0-7.314.04-10.02.236v32.04h7.403V24.08h.432l7.444 12.522h9.02zM247.73 24.834h-7.592l2.557-7.832c.476-1.617.817-3.085 1.14-4.513h.103c.32 1.427.7 2.895 1.232 4.465l2.56 7.88zm11.864 11.768l-11.06-32.04h-8.783l-10.627 32.04h7.353l1.903-5.934h11.16l1.946 5.934h8.108zm-32.376 0V30.24h-10.624v-7.07h10.067v-6.027h-10.066V10.78h10.624V4.563h-18.03v32.04h18.03zm-21.35 0V30.05h-9.683V4.562h-7.4v32.04h17.084zM167.016 20.41c0 6.856-3.806 10.01-8.905 10.01-1.134 0-2.145-.1-2.76-.194V10.553c.805-.1 1.815-.1 3.052-.1 6.66 0 8.614 3.916 8.614 9.956m7.956-.575c0-11.425-6.422-15.616-16.105-15.616-4.318 0-8.414.142-10.938.283v32.003c2.944.14 6.134.287 9.52.287 10.467 0 17.522-5.95 17.522-16.958m-40.146-5.516c0 2.71-2.008 4.376-5.143 4.376-.71 0-1.475-.045-1.857-.094V10.37c.424-.062 1.28-.1 2.047-.1 3.476 0 4.953 1.52 4.953 4.05m9.95 22.23l-6.662-10.327c-.712-1.19-1.57-2.383-2.48-3.62 4.095-1.042 6.954-4.567 6.954-8.906 0-6.806-4.574-9.528-12.142-9.528-3.864 0-7.337.05-10.048.24v32.142h7.428V23.988h.424l7.478 12.563h9.05zm-36.424-15.853c0 6.23-3.195 9.667-7.57 9.667-5.054 0-7.48-3.816-7.48-10.095 0-6.238 3.194-9.717 7.575-9.717 5.087 0 7.475 3.86 7.475 10.144m7.862-.765c0-9.945-4.86-16.146-14.826-16.146-8.753 0-15.944 6.62-15.944 17.243 0 9.96 4.854 16.143 14.81 16.143 8.763 0 15.96-6.618 15.96-17.24m-33.39-9.19V4.41H65.11v32.142h7.416v-12.85h9.725v-6.105h-9.724v-6.854h10.298zM62.164 36.55L51.774 20.22l9.28-15.808h-8.418l-5.773 10.436L41.008 4.41H32.44l9.476 15.766L31.863 36.55h8.765l6.1-10.85 6.103 10.852h9.334zM24.156 20.698c0 6.23-3.195 9.667-7.576 9.667-5.047 0-7.475-3.816-7.475-10.095 0-6.238 3.19-9.717 7.566-9.717 5.1 0 7.486 3.86 7.486 10.144m7.857-.765c0-9.945-4.86-16.146-14.818-16.146-8.762 0-15.95 6.62-15.95 17.243 0 9.96 4.86 16.143 14.812 16.143 8.77 0 15.956-6.618 15.956-17.24"/></g></svg>