<svg xmlns="http://www.w3.org/2000/svg" xmlns:xlink="http://www.w3.org/1999/xlink" width="172.25" height="148.393" viewBox="0 0 172.25 148.393"><defs><path id="a" d="M3.208 0C1.316 0 .606 1.3 1.634 2.892l35.33 54.67c10.595-13.547 26.686-22.59 44.893-23.74l-19.99-30.93C60.837 1.302 58.447 0 56.554 0H3.208z"/></defs><clipPath id="b"><use xlink:href="#a" overflow="visible"/></clipPath><linearGradient id="c" gradientUnits="userSpaceOnUse" x1="-450.565" y1="595.645" x2="-449.565" y2="595.645" gradientTransform="matrix(0 -141.737 -141.737 0 84466.14 -63722.27)"><stop offset="0" stop-color="#E79E25"/><stop offset="1" stop-color="#EBB22A"/></linearGradient><path clip-path="url(#b)" fill="url(#c)" d="M.606 0h81.25v57.562H.607z"/><g><defs><path id="d" d="M115.337 0c-1.893 0-4.283 1.3-5.312 2.892l-20.003 30.95c18.183 1.232 34.234 10.332 44.772 23.924l35.46-54.874c1.03-1.59.32-2.892-1.57-2.892h-53.347z"/></defs><clipPath id="e"><use xlink:href="#d" overflow="visible"/></clipPath><linearGradient id="f" gradientUnits="userSpaceOnUse" x1="-450.565" y1="595.641" x2="-449.565" y2="595.641" gradientTransform="scale(141.737) rotate(-90 73.49 -523.072)"><stop offset="0" stop-color="#E79E25"/><stop offset="1" stop-color="#EBB22A"/></linearGradient><path clip-path="url(#e)" fill="url(#f)" d="M90.022 0h81.264v57.766H90.022z"/></g><g><defs><path id="g" d="M67.682 120.012l2.398-19.223c.024-.19-.062-.454-.192-.593l-13.244-14.14c-.13-.14-.084-.282.103-.32l19.026-3.654c.187-.037.414-.202.505-.367l9.354-16.966c.092-.164.242-.164.333 0l9.356 16.972c.093.165.318.33.506.366l19.026 3.65c.184.037.23.18.102.318l-13.245 14.14c-.13.14-.218.405-.194.593l2.406 19.22c.023.187-.098.274-.27.194l-17.542-8.228c-.172-.08-.45-.08-.623 0l-17.537 8.23c-.044.02-.084.03-.12.03-.103 0-.166-.083-.148-.224M34.145 95.67c0 28.527 23.126 51.655 51.654 51.655 28.525 0 51.653-23.128 51.653-51.656 0-28.527-23.128-51.655-51.654-51.655-28.53 0-51.655 23.128-51.655 51.654"/></defs><clipPath id="h"><use xlink:href="#g" overflow="visible"/></clipPath><linearGradient id="i" gradientUnits="userSpaceOnUse" x1="-450.565" y1="595.643" x2="-449.565" y2="595.643" gradientTransform="matrix(0 -141.737 -141.737 0 84510.516 -63722.27)"><stop offset="0" stop-color="#E79E25"/><stop offset="1" stop-color="#EBB22A"/></linearGradient><path clip-path="url(#h)" fill="url(#i)" d="M34.145 44.015h103.31v103.31H34.144z"/></g></svg>