<svg xmlns="http://www.w3.org/2000/svg" width="127.293" height="36" viewBox="0 0 127.293 36"><path fill="#FFF" d="M10.833 20.34C4.713 20.34.168 16.335.168 10.08.168 3.87 4.804 0 10.833 0c6.21 0 10.665 3.915 10.665 10.26 0 6.165-4.725 10.08-10.665 10.08zm-4.23 15.435c-1.934 0-3.24-.36-3.51-2.43-.09-.945-.134-1.935-.27-2.88-.09-.675-.224-1.665-1.08-1.755h-.54v-.585c1.036 0 2.116 0 3.15-.045.046 1.755.136 3.555.36 5.31.09 1.08.946 1.576 1.936 1.576.854 0 1.664-.315 1.89-1.215.27-1.124.45-2.564.45-3.69 0-.944-.54-1.44-1.44-1.44v-.494h4.004v.495c-3.646 0 .045 7.155-4.95 7.155zm9.675-31.41C14.974 2.34 13.083.99 10.653.99c-5.085 0-6.705 4.545-6.705 8.865 0 2.07.36 4.41 1.53 6.165 1.305 1.935 3.285 3.285 5.67 3.285 5.22 0 6.57-4.59 6.57-8.91 0-2.025-.36-4.32-1.44-6.03zm4.05 24.614c-.45.45-.314 5.985-.314 6.57h-.495c-1.576-1.8-3.33-3.42-4.95-5.176V33.344c.044 1.53.494 1.62 1.89 1.71v.495h-4.186v-.496c1.125-.136 1.395-.405 1.44-1.485.045-.856.09-1.71.09-2.566V29.97c0-.135-.045-.315-.045-.45-.54-.63-.856-.766-1.666-.945v-.45h2.61c.585 1.08 3.51 3.87 4.545 4.995 0-.495.044-.945.044-1.44s-.045-.99-.09-1.485c-.045-1.395-.54-1.53-1.845-1.575v-.495c1.304.044 2.654.044 4.004 0V28.575c-.316.045-.766.135-1.035.404zM60.11 4.904c-.405-3.285-3.42-3.15-5.985-3.15h-1.71v7.29h1.98c1.17 0 2.34 0 3.465-.18v4.68h-.675c-.18-3.555-1.755-2.97-4.77-2.97v4.635c0 3.33.405 3.15 3.6 3.735v.718h-18.72L32.208 11.7c-.81.99-3.465 4.59-3.465 5.715 0 .99 1.395 1.305 2.115 1.575l-.045.674h-8.37v-.854c3.42-.18 4.41-1.53 6.21-4.185l2.79-3.96-3.015-4.995c-1.35-2.205-3.06-4.095-5.805-4.14V.675h6.345l4.68 7.245c.675-1.035 2.835-4.14 2.835-5.265 0-.99-1.305-1.035-2.025-1.17v-.81h8.055V1.485c-3.24.225-4.455 1.62-6.165 4.185-.675 1.08-1.35 2.115-2.07 3.195l3.96 6.166c1.215 1.89 2.7 3.78 5.175 3.78 2.835 0 5.805-.18 5.805-3.69V4.86c0-2.745-.585-3.105-3.33-3.51V.63h14.715l.315 4.275h-.81zM22.533 35.55v-.495c1.215-.18 1.395-.226 1.44-1.485.045-.54.045-1.125.045-1.665 0-.63.09-2.61-.36-2.97-.226-.18-.855-.314-1.125-.36v-.45h4.455V28.575c-1.71.27-1.53.81-1.53 2.385v1.485c0 .315 0 .63.045.99.045 1.305.18 1.485 1.485 1.62v.496h-4.455zm12.78-6.57c-.63.584-2.925 5.985-3.375 7.02h-.225l-2.745-6.255c-.36-.81-.63-1.035-1.53-1.17v-.45h4.185V28.575c-.27.045-1.125.18-1.125.585 0 .585 1.485 3.78 1.8 4.365.225-.585 1.665-3.69 1.665-4.32 0-.405-.945-.54-1.26-.63v-.45h3.555V28.575c-.315.09-.72.18-.945.404zm7.83 6.57H36.89v-.495c1.26-.18 1.44-.226 1.484-1.485v-2.295-1.215c-.045-1.17-.315-1.35-1.485-1.44v-.495h6.39l-.09 2.205H42.74c-.09-.404-.09-.9-.45-1.17-.45-.405-1.62-.405-2.25-.405h-.18l-.046 2.52c.315 0 1.575.046 1.845-.134.134-.09.27-.72.314-.853h.449v.135c0 .945-.045 1.935-.045 2.925H41.93c-.09-.9-.136-1.17-1.08-1.17h-1.036l.045 1.305c0 1.035 0 1.44 1.214 1.44 1.35 0 1.935-1.08 2.295-2.25l.45.09c-.136.988-.362 1.843-.676 2.788zm10.35.045c-.584 0-1.17 0-1.755-.135-1.665-.36-2.655-2.475-3.42-3.825.855-.225 1.575-.405 1.575-1.485s-1.035-1.44-1.935-1.53v3.69c0 1.755-.36 2.565 1.665 2.745v.495h-4.545v-.495c1.71-.226 1.44-.855 1.44-2.385v-2.565c-.045-1.26-.27-1.35-1.485-1.53v-.45c1.08 0 2.16-.045 3.24-.045 1.305 0 3.285.27 3.285 1.98 0 .945-.63 1.44-1.44 1.755.675 1.305 2.025 3.06 3.51 3.33v.45h-.135zm3.285.134c-.63 0-1.665-.36-2.25-.63v-2.52h.45c.18 1.08.63 2.52 1.935 2.52.675 0 1.17-.494 1.17-1.17 0-1.754-3.51-1.35-3.51-3.734 0-1.485 1.395-2.25 2.7-2.25.675 0 1.305.225 1.89.54l-.09 2.07H58.623c-.225-.854-.495-1.98-1.575-1.98-.585 0-1.035.495-1.035 1.08 0 1.755 3.6 1.395 3.6 3.825 0 1.575-1.44 2.25-2.835 2.25zm4.14-.18v-.495c1.215-.18 1.44-.226 1.485-1.485v-1.665c0-.63.135-2.61-.315-2.97-.225-.18-.855-.314-1.17-.36v-.45h4.455V28.575c-1.665.27-1.53.81-1.53 2.385v1.485c0 .315.045.63.045.99.045 1.305.18 1.485 1.485 1.62v.496h-4.455zm12.24-15.21c-6.075 0-10.62-4.005-10.62-10.215S67.173 0 73.203 0c6.21 0 10.665 3.96 10.665 10.305 0 6.12-4.77 10.035-10.71 10.035zm5.49-15.975C77.343 2.34 75.453.99 72.978.99c-5.04 0-6.66 4.59-6.66 8.865 0 2.07.36 4.41 1.485 6.165 1.305 1.98 3.285 3.33 5.715 3.33 5.175 0 6.57-4.59 6.57-8.955 0-2.025-.36-4.32-1.44-6.03zm-5.31 26.28h-.09c-.36-1.8-.72-1.666-2.43-1.71V32.625c0 1.71-.225 2.205 1.575 2.43v.495h-4.59v-.495c1.215-.18 1.485-.226 1.53-1.485.045-.585.045-1.125.045-1.71 0-.99 0-1.935-.045-2.925-1.755 0-2.07-.134-2.385 1.755l-.495-.045c.09-.855.135-1.71.18-2.52.765.044 1.53.135 2.34.135.764 0 1.484-.044 2.25-.044.81 0 1.62 0 2.384-.09 0 .135-.045.27-.045.405 0 .72.09 1.44.135 2.116h-.36zm8.235-1.71c-.495.36-2.205 3.195-2.205 3.69 0 1.665-.225 2.25 1.62 2.43v.495h-4.68v-.495c1.8-.18 1.575-.72 1.575-2.34-.36-.675-1.935-3.465-2.61-3.825-.27-.18-.675-.27-.945-.27v-.495h3.915V28.575c-.27.09-.855.135-.855.495 0 .405 1.26 2.16 1.575 2.655.225-.45 1.125-2.115 1.125-2.655 0-.36-.45-.45-.72-.495v-.45h3.195V28.575c-.36.09-.72.135-.99.36zm43.02-12.6c-2.025 2.07-4.995 3.285-7.92 3.285l-10.17.045H106.278c-.225.045-.585 0-.81 0-2.43-.045-3.375-.18-5.49-1.485-3.6-2.25-5.22-4.77-7.785-8.145 2.07 0 5.04-1.935 5.04-4.186 0-3.06-3.06-4.186-5.625-4.186h-.045c-.045 4.68-.135 9.315-.135 13.995 0 2.88.944 2.79 3.69 3.15v.853h-7.02c.043-4.905.18-9.765.18-14.625 0-.72 0-2.565-.63-3.105-.406-.36-1.306-.315-1.846-.315V.81c2.43-.045 4.815-.135 7.2-.135 3.015 0 7.83.54 7.83 4.545 0 2.655-2.25 4.41-4.635 5.084 1.71 2.025 7.11 8.505 9.99 8.505 2.745 0 3.51-1.17 3.51-3.826v-9.54c0-2.88-.495-3.51-3.42-3.96v-.72c2.61-.045 5.22-.09 7.83-.09 6.525 0 13.185 1.755 13.185 9.495 0 2.34-1.034 4.5-2.7 6.165zm-33.03 16.29v-.495c1.125-.18 1.71-.315 1.71-1.665 0-1.305-1.26-1.755-2.385-1.8v3.285c0 .495.045.99.045 1.485.045 1.395.225 1.53 1.665 1.62v.496h-4.635v-.494c.315-.045 1.035-.136 1.26-.405.27-.36.225-2.024.225-2.52 0-.72.135-2.79-.36-3.194-.27-.18-.765-.27-1.125-.314V28.172c1.08-.044 2.16-.09 3.195-.09 1.35 0 3.78.405 3.78 2.16 0 1.978-1.8 2.293-3.375 2.383zm12.915 2.97c-.63 0-1.215 0-1.8-.135-1.665-.36-2.61-2.475-3.375-3.825.855-.225 1.53-.405 1.53-1.485s-.99-1.44-1.89-1.53v3.69c0 1.755-.36 2.565 1.665 2.745v.495h-4.545v-.495c1.665-.226 1.44-.855 1.44-2.385v-.99c0-.54-.045-1.035-.045-1.575 0-1.26-.27-1.35-1.44-1.53v-.45c1.08 0 2.16-.045 3.24-.045 1.306 0 3.286.27 3.286 1.98 0 .945-.675 1.44-1.44 1.755.63 1.305 1.98 3.06 3.466 3.33v.45h-.092zm7.155-.945c-.045.315-.18.585-.27.9h-6.255v-.495c1.215-.18 1.395-.226 1.44-1.485.045-.45.045-.9.045-1.305v-.99c0-.405 0-.81-.045-1.215-.045-1.17-.27-1.35-1.44-1.44v-.495h6.345l-.045 2.205h-.495c-.045-.404-.09-.9-.405-1.17-.45-.405-1.665-.405-2.25-.405h-.18l-.045 2.52c.315 0 1.575.046 1.8-.134.135-.09.27-.72.314-.853H110.597V33.347h-.495c-.09-.9-.09-1.17-1.035-1.17h-1.035v1.305c.045 1.035 0 1.44 1.215 1.44 1.395 0 1.98-1.08 2.34-2.25l.45.09c-.134.628-.224 1.303-.404 1.888zm2.43-32.985c-.405 0-.9.045-1.35.18V15.75c0 2.385.945 2.97 3.33 2.97 4.86 0 7.47-3.645 7.47-8.235 0-5.67-4.05-8.82-9.45-8.82zm1.8 34.064c-.63 0-1.665-.36-2.25-.63v-2.52h.45c.18 1.08.63 2.52 1.935 2.52.675 0 1.17-.494 1.17-1.17 0-1.754-3.51-1.35-3.51-3.734 0-1.485 1.395-2.25 2.7-2.25.675 0 1.305.225 1.89.54l-.09 2.07H117.708c-.225-.854-.495-1.98-1.575-1.98-.585 0-1.035.495-1.035 1.08 0 1.755 3.6 1.395 3.6 3.825 0 1.575-1.44 2.25-2.835 2.25zm6.75 0c-.675 0-1.665-.36-2.25-.63v-2.52h.45c.18 1.08.585 2.52 1.89 2.52.72 0 1.215-.494 1.215-1.17 0-1.754-3.555-1.35-3.555-3.734 0-1.485 1.395-2.25 2.7-2.25.72 0 1.305.225 1.935.54l-.135 2.07H124.413c-.18-.854-.45-1.98-1.53-1.98-.585 0-1.08.495-1.08 1.08 0 1.755 3.6 1.395 3.6 3.825 0 1.575-1.395 2.25-2.79 2.25z"/></svg>