<?xml version="1.0" encoding="utf-8"?>
<!-- Generator: Adobe Illustrator 19.1.0, SVG Export Plug-In . SVG Version: 6.00 Build 0)  -->
<svg version="1.1" id="Layer_1" xmlns="http://www.w3.org/2000/svg" xmlns:xlink="http://www.w3.org/1999/xlink" x="0px" y="0px"
	 viewBox="0 0 26.5 26.5" style="enable-background:new 0 0 26.5 26.5;" xml:space="preserve">
<style type="text/css">
	.st0{fill:#FFFFFF;}
</style>
<g>
	<g>
		<path class="st0" d="M5.1,6.6c-0.4,0-0.8-0.3-0.8-0.7s0.3-0.7,0.8-0.7h4.8V3.8c0-0.8,0.7-1.4,1.5-1.4h4.2c0.8,0,1.5,0.6,1.5,1.4
			v1.3h4.8c0.4,0,0.8,0.3,0.8,0.7s-0.3,0.7-0.8,0.7H5.1z M15.5,5.1V3.8h-4v1.2H15.5z"/>
		<path class="st0" d="M15.6,2.4C16.4,2.4,17,3,17,3.8v1.4h4.2h0.7c0.4,0,0.7,0.3,0.7,0.7c0,0.4-0.3,0.7-0.7,0.7h-0.7H5.8H5.1
			c-0.4,0-0.7-0.3-0.7-0.7c0-0.4,0.3-0.7,0.7-0.7h0.7H10V3.8c0-0.7,0.6-1.4,1.4-1.4H15.6 M11.4,5.1h4.2V3.8h-4.2V5.1 M15.6,2.3h-4.2
			c-0.8,0-1.5,0.7-1.5,1.5V5h-4H5.1C4.7,5,4.3,5.4,4.3,5.8c0,0.5,0.4,0.8,0.8,0.8h0.7h15.3h0.7c0.5,0,0.8-0.4,0.8-0.8
			c0-0.5-0.4-0.8-0.8-0.8h-0.7h-4V3.8C17.1,3,16.4,2.3,15.6,2.3L15.6,2.3z M11.6,3.9h3.9V5h-3.9V3.9L11.6,3.9z"/>
	</g>
	<g>
		<path class="st0" d="M8.6,22.3c-1.6,0-2.9-1.2-2.9-2.8V7.8h15.5v11.8c0,1.5-1.3,2.8-2.9,2.8H8.6z M18.3,19.9V9.3h-1.2v10.7H18.3z
			 M14.1,19.9V9.3h-1.3v10.7H14.1z M9.9,19.9V9.3H8.7v10.7H9.9z"/>
		<path class="st0" d="M21.2,7.8v7.7v2.6v1.5c0,1.5-1.2,2.7-2.8,2.7H8.6c-1.5,0-2.8-1.2-2.8-2.7v-1.5v-2.6V7.8H21.2 M17,20h1.4V9.2
			H17V20 M12.8,20h1.4V9.2h-1.4V20 M8.6,20H10V9.2H8.6V20 M21.3,7.7h-0.1H5.8H5.7v0.1v7.7v2.6v1.5c0,1.6,1.3,2.8,2.9,2.8h9.7
			c1.6,0,2.9-1.3,2.9-2.8v-1.5v-2.6V7.8V7.7L21.3,7.7z M17.1,9.3h1.1v10.5h-1.1V9.3L17.1,9.3z M12.9,9.3h1.1v10.5h-1.1V9.3L12.9,9.3
			z M8.8,9.3h1.1v10.5H8.8V9.3L8.8,9.3z"/>
	</g>
</g>
</svg>
