<svg xmlns="http://www.w3.org/2000/svg" width="7" height="11" viewBox="0 0 7 11">
    <g fill="none" fill-rule="evenodd">
        <g fill="#FFF" fill-rule="nonzero">
            <g>
                <g>
                    <g>
                        <g>
                            <g>
                                <path d="M2.954 10c-.116 0-.233-.042-.321-.128-.177-.171-.177-.451 0-.623l4.395-4.248L2.633.75c-.177-.171-.177-.45 0-.622.177-.17.466-.17.643 0L7.992 4.69c.177.171.177.45 0 .622l-4.716 4.56c-.089.086-.205.128-.322.128z" transform="translate(-577.000000, -254.000000) translate(62.000000, 169.000000) translate(399.000000, 59.000000) translate(15.000000, 18.000000) translate(21.000000, 3.912500) translate(78.000000, 5.000000)"/>
                            </g>
                        </g>
                    </g>
                </g>
            </g>
        </g>
    </g>
</svg>
