<svg width="14" height="15" viewBox="0 0 14 15" fill="none" xmlns="http://www.w3.org/2000/svg">
<path d="M3.35986 9.57344V9.85344H4.61986V9.71344C5.17986 6.49344 8.11986 4.11344 11.3399 4.11344L10.2199 5.23344C9.93986 5.51344 9.93986 5.79344 10.2199 6.07344C10.3599 6.21344 10.3599 6.21344 10.6399 6.21344C10.9199 6.21344 11.0599 5.93344 11.0599 5.93344L13.5799 3.27344L11.0599 0.753437C10.7799 0.613438 10.3599 0.613438 10.2199 0.753437C9.93986 1.03344 9.93986 1.31344 10.2199 1.59344L11.3399 2.71344C7.55986 2.71344 4.05986 5.65344 3.35986 9.57344Z" fill="#002147"/>
<path d="M11.62 12.6534H1.26V4.95336H4.48L5.74 3.69336H0.98C0.56 3.69336 0 3.97336 0 4.67336C0 5.37336 0 12.5134 0 12.9334C0 13.3534 0.56 13.9134 0.98 13.9134H11.76C12.32 13.9134 12.74 13.3534 12.74 12.9334V5.93336L11.62 7.19336V12.6534Z" fill="#002147"/>
</svg>
