<?xml version="1.0" encoding="utf-8"?>
<!-- Generator: Adobe Illustrator 19.2.1, SVG Export Plug-In . SVG Version: 6.00 Build 0)  -->
<svg version="1.1" id="Layer_1" xmlns="http://www.w3.org/2000/svg" xmlns:xlink="http://www.w3.org/1999/xlink" x="0px" y="0px"
	 viewBox="0 0 9.7 9.5" style="enable-background:new 0 0 9.7 9.5;" xml:space="preserve">
<style type="text/css">
	.st0{fill:#33CCFF;}
</style>
<g>
	<path class="st0" d="M2.4,6.4l0,0.2h0.9l0-0.1c0.4-2.3,2.5-4,4.8-4L7.3,3.3c-0.2,0.2-0.2,0.4,0,0.6C7.4,4,7.4,4,7.6,4
		c0.2,0,0.3-0.2,0.3-0.2l1.8-1.9L7.9,0.1C7.7,0,7.4,0,7.3,0.1c-0.2,0.2-0.2,0.4,0,0.6l0.8,0.8C5.4,1.5,2.9,3.6,2.4,6.4z"/>
	<path class="st0" d="M8.3,8.6H0.9V3.1h2.3l0.9-0.9H0.7C0.4,2.2,0,2.4,0,2.9s0,5.6,0,5.9s0.4,0.7,0.7,0.7h7.7c0.4,0,0.7-0.4,0.7-0.7
		v-5L8.3,4.7V8.6z"/>
</g>
</svg>
