<?xml version="1.0" encoding="utf-8"?>
<!-- Generator: Adobe Illustrator 19.2.1, SVG Export Plug-In . SVG Version: 6.00 Build 0)  -->
<svg version="1.1" id="Layer_1" xmlns="http://www.w3.org/2000/svg" xmlns:xlink="http://www.w3.org/1999/xlink" x="0px" y="0px"
	 viewBox="0 0 20 20" style="enable-background:new 0 0 20 20;" xml:space="preserve">
<style type="text/css">
	.st0{fill:#9E1C51;}
</style>
<g>
	<path class="st0" d="M13.5,6.5c-0.2-0.2-0.6-0.2-0.9,0L10,9.1L7.3,6.5c-0.2-0.2-0.6-0.2-0.9,0c-0.2,0.2-0.2,0.6,0,0.9L9.1,10
		l-2.7,2.7c-0.2,0.2-0.2,0.6,0,0.9c0.2,0.2,0.6,0.2,0.9,0l2.7-2.7l2.6,2.7c0.2,0.2,0.6,0.2,0.9,0c0.2-0.2,0.2-0.6,0-0.9L10.9,10
		l2.7-2.7C13.8,7.1,13.8,6.7,13.5,6.5 M10,18.8c-4.8,0-8.8-3.9-8.8-8.8S5.2,1.2,10,1.2s8.8,3.9,8.8,8.8S14.8,18.8,10,18.8 M10,0
		C4.5,0,0,4.5,0,10s4.5,10,10,10s10-4.5,10-10S15.5,0,10,0"/>
</g>
</svg>
