<svg width="14" height="14" viewBox="0 0 14 14" fill="none" xmlns="http://www.w3.org/2000/svg">
<path d="M3.35986 8.96016V9.24016H4.61986V9.10015C5.17986 5.88016 8.11986 3.50016 11.3399 3.50016L10.2199 4.62016C9.93986 4.90016 9.93986 5.18016 10.2199 5.46016C10.3599 5.60016 10.3599 5.60016 10.6399 5.60016C10.9199 5.60016 11.0599 5.32016 11.0599 5.32016L13.5799 2.66016L11.0599 0.140156C10.7799 0.000156254 10.3599 0.000156254 10.2199 0.140156C9.93986 0.420156 9.93986 0.700156 10.2199 0.980156L11.3399 2.10016C7.55986 2.10016 4.05986 5.04016 3.35986 8.96016Z" fill="#002147"/>
<path d="M11.62 12.0401H1.26V4.34008H4.48L5.74 3.08008H0.98C0.56 3.08008 0 3.36008 0 4.06008C0 4.76008 0 11.9001 0 12.3201C0 12.7401 0.56 13.3001 0.98 13.3001H11.76C12.32 13.3001 12.74 12.7401 12.74 12.3201V5.32008L11.62 6.58008V12.0401Z" fill="#002147"/>
</svg>
