<?xml version="1.0" encoding="utf-8"?>
<!-- Generator: Adobe Illustrator 16.0.4, SVG Export Plug-In . SVG Version: 6.00 Build 0)  -->
<!DOCTYPE svg PUBLIC "-//W3C//DTD SVG 1.1//EN" "http://www.w3.org/Graphics/SVG/1.1/DTD/svg11.dtd">
<svg version="1.1" id="Layer_1" xmlns="http://www.w3.org/2000/svg" xmlns:xlink="http://www.w3.org/1999/xlink" x="0px" y="0px"
	 width="20px" height="20px" viewBox="0 0 20 20" enable-background="new 0 0 20 20" xml:space="preserve">
<g>
	<path fill="#CA2567" d="M13.536,6.464c-0.244-0.244-0.64-0.244-0.886,0L10,9.116L7.349,6.464c-0.245-0.244-0.641-0.244-0.885,0
		c-0.244,0.244-0.244,0.64,0,0.884L9.116,10l-2.652,2.651c-0.244,0.245-0.244,0.641,0,0.885c0.244,0.243,0.64,0.243,0.885,0
		L10,10.884l2.65,2.652c0.246,0.243,0.642,0.243,0.886,0c0.243-0.244,0.243-0.64,0-0.885L10.884,10l2.652-2.652
		C13.779,7.104,13.779,6.708,13.536,6.464 M10,18.77c-4.825,0-8.75-3.944-8.75-8.77S5.175,1.25,10,1.25s8.75,3.925,8.75,8.75
		S14.825,18.77,10,18.77 M10,0C4.477,0,0,4.477,0,10s4.477,10,10,10c5.523,0,10-4.477,10-10S15.523,0,10,0"/>
</g>
</svg>
