<svg xmlns="http://www.w3.org/2000/svg" width="16" height="16" viewBox="0 0 16 16">
    <path fill="#FFF" fill-rule="nonzero" d="M13.28 13.76V7.52l1.28-1.44v8c0 .48-.48 1.12-1.12 1.12H1.12C.64 15.2 0 14.56 0 14.08V4.64c0-.8.64-1.12 1.12-1.12h5.44L5.12 4.96H1.44v8.8h11.84zm-9.44-3.52c.8-4.48 4.8-7.84 9.12-7.84l-1.28-1.28c-.32-.32-.32-.64 0-.96.16-.16.64-.16.96 0l2.88 2.88-2.88 3.04s-.16.32-.48.32c-.32 0-.32 0-.48-.16-.32-.32-.32-.64 0-.96L12.96 4c-3.68 0-7.04 2.72-7.68 6.4v.16H3.84v-.32z"/>
</svg>
