<?xml version="1.0" encoding="utf-8"?>
<!-- Generator: Adobe Illustrator 19.2.1, SVG Export Plug-In . SVG Version: 6.00 Build 0)  -->
<svg version="1.1" id="Layer_1" xmlns="http://www.w3.org/2000/svg" xmlns:xlink="http://www.w3.org/1999/xlink" x="0px" y="0px"
	 viewBox="0 0 9.7 9.7" style="enable-background:new 0 0 9.7 9.7;" xml:space="preserve">
<style type="text/css">
	.st0{fill:#002147;}
</style>
<g>
	<path class="st0" d="M0.4,9.7c-0.1,0-0.2,0-0.3-0.1C0,9.4,0,9.2,0.1,9L9,0.1C9.2,0,9.4,0,9.6,0.1s0.1,0.4,0,0.5L0.6,9.6
		C0.6,9.6,0.5,9.7,0.4,9.7z"/>
	<path class="st0" d="M9.3,9.7c-0.1,0-0.2,0-0.3-0.1L0.1,0.6C0,0.5,0,0.3,0.1,0.1s0.4-0.1,0.5,0L9.6,9c0.1,0.1,0.1,0.4,0,0.5
		C9.5,9.6,9.4,9.7,9.3,9.7z"/>
</g>
</svg>
