<?xml version="1.0" encoding="utf-8"?>
<!-- Generator: Adobe Illustrator 19.2.1, SVG Export Plug-In . SVG Version: 6.00 Build 0)  -->
<svg version="1.1" id="Layer_1" xmlns="http://www.w3.org/2000/svg" xmlns:xlink="http://www.w3.org/1999/xlink" x="0px" y="0px"
	 viewBox="0 0 20 20" style="enable-background:new 0 0 20 20;" xml:space="preserve">
<style type="text/css">
	.st0{fill:#FFFFFF;}
</style>
<g>
	<path class="st0" d="M14.8,11.2c0.1-0.4,0.2-0.8,0.2-1.2c0-0.4-0.1-0.9-0.2-1.3h3.8c0.1,0.4,0.1,0.8,0.1,1.3c0,0.4,0,0.8-0.1,1.2
		H14.8z M12.5,18.4v-4.1c0.8-0.4,1.4-1.1,1.8-1.8h4.1C17.5,15.3,15.3,17.5,12.5,18.4 M11.2,18.7c-0.4,0.1-0.8,0.1-1.2,0.1
		s-0.8,0-1.2-0.1v-3.8C9.1,14.9,9.6,15,10,15s0.9-0.1,1.2-0.2V18.7z M7.5,18.4c-2.8-0.8-5-3.1-5.9-5.9h4.1c0.4,0.8,1.1,1.4,1.8,1.8
		V18.4z M1.3,10c0-0.4,0-0.8,0.1-1.3h3.8C5.1,9.2,5,9.6,5,10c0,0.4,0.1,0.8,0.2,1.2H1.4C1.3,10.8,1.3,10.4,1.3,10 M7.5,1.6v4.1
		C6.7,6.1,6.1,6.7,5.7,7.5H1.6C2.5,4.7,4.7,2.5,7.5,1.6 M8.8,1.4C9.2,1.3,9.6,1.3,10,1.3s0.8,0,1.2,0.1v3.8C10.9,5.1,10.4,5,10,5
		S9.1,5.1,8.8,5.2V1.4z M13.7,10c0,2.1-1.7,3.7-3.7,3.7c-2.1,0-3.7-1.7-3.7-3.7S7.9,6.3,10,6.3C12.1,6.3,13.7,7.9,13.7,10 M12.5,1.6
		c2.8,0.8,5,3.1,5.9,5.9h-4.1c-0.4-0.8-1.1-1.4-1.8-1.8V1.6z M10,0C4.5,0,0,4.5,0,10s4.5,10,10,10s10-4.5,10-10S15.5,0,10,0"/>
</g>
</svg>
