<?xml version="1.0" encoding="utf-8"?>
<!-- Generator: Adobe Illustrator 19.2.1, SVG Export Plug-In . SVG Version: 6.00 Build 0)  -->
<svg version="1.1" id="Layer_1" xmlns="http://www.w3.org/2000/svg" xmlns:xlink="http://www.w3.org/1999/xlink" x="0px" y="0px"
	 viewBox="0 0 20 20" style="enable-background:new 0 0 20 20;" xml:space="preserve">
<style type="text/css">
	.st0{fill:#FFFFFF;}
</style>
<path class="st0" d="M10,0C4.5,0,0,4.5,0,10s4.5,10,10,10s10-4.5,10-10S15.5,0,10,0z M10,3.1c1,0,1.8,0.8,1.8,1.8
	c0,1-0.8,1.8-1.8,1.8S8.3,5.8,8.3,4.8C8.3,3.8,9.1,3.1,10,3.1z M11.5,16.9H8.5c-0.6,0-1-0.5-1-1c0-0.6,0.5-1,1-1H9V9.6H8.5
	c-0.6,0-1-0.4-1-1c0-0.6,0.5-1,1-1H10c0.5,0,1,0.5,1,1v6.4h0.5c0.5,0,0.9,0.4,0.9,1C12.5,16.5,12,16.9,11.5,16.9z"/>
</svg>
