<?xml version="1.0" encoding="utf-8"?>
<!-- Generator: Adobe Illustrator 19.2.1, SVG Export Plug-In . SVG Version: 6.00 Build 0)  -->
<svg version="1.1" id="Layer_1" xmlns="http://www.w3.org/2000/svg" xmlns:xlink="http://www.w3.org/1999/xlink" x="0px" y="0px"
	 viewBox="0 0 10.9 10.9" style="enable-background:new 0 0 10.9 10.9;" xml:space="preserve">
<style type="text/css">
	.st0{fill:#000333;}
</style>
<path class="st0" d="M6.9,5.5l3.8-3.8c0.4-0.4,0.4-1,0-1.4s-1-0.4-1.4,0L5.5,4.1L1.7,0.3c-0.4-0.4-1-0.4-1.4,0s-0.4,1,0,1.4l3.8,3.8
	L0.3,9.2c-0.4,0.4-0.4,1,0,1.4c0.2,0.2,0.5,0.3,0.7,0.3s0.5-0.1,0.7-0.3l3.8-3.8l3.8,3.8c0.2,0.2,0.5,0.3,0.7,0.3s0.5-0.1,0.7-0.3
	c0.4-0.4,0.4-1,0-1.4L6.9,5.5z"/>
</svg>
