<?xml version="1.0" encoding="utf-8"?>
<!-- Generator: Adobe Illustrator 16.0.4, SVG Export Plug-In . SVG Version: 6.00 Build 0)  -->
<!DOCTYPE svg PUBLIC "-//W3C//DTD SVG 1.1//EN" "http://www.w3.org/Graphics/SVG/1.1/DTD/svg11.dtd">
<svg version="1.1" id="Layer_1" xmlns="http://www.w3.org/2000/svg" xmlns:xlink="http://www.w3.org/1999/xlink" x="0px" y="0px"
	 width="10.932px" height="10.933px" viewBox="0 0 10.932 10.933" enable-background="new 0 0 10.932 10.933" xml:space="preserve">
<path fill="#FFFFFF" d="M6.88,5.467l3.759-3.759c0.391-0.391,0.391-1.023,0-1.414s-1.023-0.391-1.414,0L5.466,4.052L1.707,0.293
	c-0.391-0.391-1.023-0.391-1.414,0s-0.391,1.023,0,1.414l3.759,3.759L0.293,9.226c-0.391,0.391-0.391,1.023,0,1.414
	C0.488,10.835,0.744,10.933,1,10.933s0.512-0.098,0.707-0.293l3.759-3.759l3.759,3.759c0.195,0.195,0.451,0.293,0.707,0.293
	s0.512-0.098,0.707-0.293c0.391-0.391,0.391-1.023,0-1.414L6.88,5.467z"/>
</svg>
