<?xml version="1.0" encoding="utf-8"?>
<!-- Generator: Adobe Illustrator 19.2.1, SVG Export Plug-In . SVG Version: 6.00 Build 0)  -->
<svg version="1.1" id="Layer_1" xmlns="http://www.w3.org/2000/svg" xmlns:xlink="http://www.w3.org/1999/xlink" x="0px" y="0px"
	 viewBox="0 0 20 20" style="enable-background:new 0 0 20 20;" xml:space="preserve">
<style type="text/css">
	.st0{fill:#4776AE;}
</style>
<g>
	<rect x="13.2" y="4.8" class="st0" width="1.9" height="10.5"/>
	<rect x="9.1" y="10.7" class="st0" width="1.9" height="4.5"/>
	<rect x="4.9" y="8.5" class="st0" width="1.9" height="6.7"/>
	<path class="st0" d="M10,0C4.5,0,0,4.5,0,10s4.5,10,10,10s10-4.5,10-10S15.5,0,10,0z M7.6,15.6c0,0.2-0.2,0.4-0.4,0.4H4.6
		c-0.2,0-0.4-0.2-0.4-0.4V8.1c0-0.2,0.2-0.4,0.4-0.4h2.6c0.2,0,0.4,0.2,0.4,0.4V15.6z M11.7,15.6c0,0.2-0.2,0.4-0.4,0.4H8.7
		c-0.2,0-0.4-0.2-0.4-0.4v-5.3c0-0.2,0.2-0.4,0.4-0.4h2.6c0.2,0,0.4,0.2,0.4,0.4V15.6z M15.8,15.6c0,0.2-0.2,0.4-0.4,0.4h-2.6
		c-0.2,0-0.4-0.2-0.4-0.4V4.4c0-0.2,0.2-0.4,0.4-0.4h2.6c0.2,0,0.4,0.2,0.4,0.4V15.6z"/>
</g>
</svg>
