<?xml version="1.0" encoding="utf-8"?>
<!-- Generator: Adobe Illustrator 19.2.1, SVG Export Plug-In . SVG Version: 6.00 Build 0)  -->
<svg version="1.1" id="Layer_1" xmlns="http://www.w3.org/2000/svg" xmlns:xlink="http://www.w3.org/1999/xlink" x="0px" y="0px"
	 viewBox="0 0 20 20" style="enable-background:new 0 0 20 20;" xml:space="preserve">
<style type="text/css">
	.st0{fill:#FFFFFF;}
</style>
<g>
	<path class="st0" d="M10,0C4.5,0,0,4.5,0,10s4.5,10,10,10s10-4.5,10-10S15.5,0,10,0z M15.7,9.4l-2.3,2.3l0.5,3.2
		c0.1,0.3-0.1,0.6-0.4,0.8c-0.1,0.1-0.3,0.2-0.5,0.2c-0.1,0-0.3,0-0.4-0.1L10,14.2l-2.7,1.5c-0.1,0.1-0.3,0.1-0.4,0.1
		c-0.2,0-0.3-0.1-0.5-0.2C6.1,15.5,6,15.1,6,14.8l0.5-3.2L4.3,9.4C4,9.2,3.9,8.8,4,8.5C4.2,8.2,4.4,8,4.7,8l3.1-0.5l1.4-2.8
		C9.4,4.4,9.7,4.2,10,4.2s0.6,0.2,0.8,0.5l1.4,2.8L15.3,8c0.3,0,0.6,0.3,0.7,0.6C16.1,8.8,16,9.2,15.7,9.4z"/>
	<polygon class="st0" points="11.6,8.3 11.4,7.8 10,4.9 8.6,7.8 8.4,8.3 7.8,8.3 4.7,8.8 7,11.1 7.4,11.4 7.3,12 6.8,15.1 9.5,13.7 
		10,13.4 10.5,13.7 13.2,15.1 12.7,12 12.6,11.4 13,11.1 15.3,8.8 12.2,8.3 	"/>
</g>
</svg>
