<svg width="151" height="35" viewBox="0 0 151 35" xmlns="http://www.w3.org/2000/svg">
    <g fill="#011E41" fill-rule="nonzero">
        <path d="M28.08 19.214c-.052.334-.12.664-.201.989 2.153-1.38 4.436-3.288 6.578-5.873a17.2 17.2 0 0 0-.61-2.35c-1.349 2.811-3.508 5.325-5.767 7.234zM28.207 17.277a27.506 27.506 0 0 0 4.78-7.39c-.367-.75-.787-1.47-1.254-2.153-.571 3.118-1.967 6.089-3.602 8.485.04.348.068.7.076 1.058z"/>
        <path d="M34.734 16.718c-1.452 2.053-4.51 4.123-7.65 5.63-.148.297-.311.587-.484.867 2.263-.708 4.82-1.863 7.579-3.712a14.35 14.35 0 0 1-.969 3.187c-3.19 1.416-5.838 2.128-8.082 2.403-.258.264-.533.517-.817.753 2.174.024 4.753-.304 7.893-1.284a13.269 13.269 0 0 1-2.438 2.804c-2.868.208-5.22.05-7.191-.34-.306.167-.62.32-.943.457a20.44 20.44 0 0 0 6.004 1.416c-.84.495-1.71.897-2.585 1.213-2.052-.575-3.838-1.249-5.375-2.009-.396.086-.8.148-1.212.187 1.275.873 2.749 1.69 4.437 2.428a14.013 14.013 0 0 1-3.19.29 29.73 29.73 0 0 1-3.28-2.71 10.8 10.8 0 0 1-1.469-.234 28.435 28.435 0 0 0 2.681 2.732 13.763 13.763 0 0 1-2.977-.897 24.409 24.409 0 0 1-1.55-2.444 10.766 10.766 0 0 1-1.345-.7c.32.718.698 1.462 1.143 2.233a13.388 13.388 0 0 1-2.513-2.002 15.965 15.965 0 0 1-.973-2.17 10.761 10.761 0 0 1-2.818-7.274c0-5.966 4.837-10.803 10.803-10.803 4.836 0 8.93 3.18 10.307 7.561 1.06-2.313 1.9-5.192 2.171-8.831a17.546 17.546 0 0 0-1.794-1.621c.454 3.355.154 6.224-.566 8.655a13.427 13.427 0 0 0-1.178-1.963c.148-2.291-.03-5.05-.879-8.396-.71-.374-1.45-.7-2.213-.975 1.348 2.518 2.052 5.525 2.253 8.315a15.338 15.338 0 0 0-1.66-1.633c-.64-2.163-1.728-4.621-3.48-7.441A17.425 17.425 0 0 0 18.1.17c1.88 2.03 3.309 4.337 4.31 6.598a16.111 16.111 0 0 0-2.44-1.34c-1.17-1.668-2.694-3.4-4.68-5.143a17.13 17.13 0 0 0-2.206.416c1.774 1.064 3.407 2.462 4.815 3.977a15.422 15.422 0 0 0-2.79-.525 29.874 29.874 0 0 0-4.353-2.67c-.734.306-1.444.662-2.124 1.061 1.406.148 2.804.734 4.261 1.57-.853.047-1.694.169-2.51.36a24.526 24.526 0 0 0-3.374-.846c-.662.5-1.289 1.044-1.873 1.629a11.31 11.31 0 0 1 2.8-.052c-1.77.649-3.482 1.555-4.934 2.653a17.321 17.321 0 0 0-2.937 9.68c0 9.602 7.765 17.383 17.345 17.383 9.501 0 17.344-7.708 17.344-17.382-.002-.277-.01-.551-.021-.822z"/>
        <g>
            <path d="M77.087 5.107H74.59l-4.027 5.638-4.025-5.638H64.04l4.962 6.698-5.012 6.767h2.498l4.075-5.751 4.074 5.75h2.498l-5.011-6.766zM127.764 13.801c1.635-.692 2.714-2.082 2.714-4.138 0-2.918-2.064-4.556-5.452-4.556h-5.89v13.465h2.22v-4.264h4.037c1.27 1.193 2.34 2.689 3.113 4.264h2.714c-.815-1.685-2.277-3.633-3.456-4.77zm-6.407-6.72h3.601c1.975 0 3.231.897 3.231 2.671 0 1.796-1.234 2.625-3.096 2.625h-3.736V7.082zM142.977 5.107h-5.027v13.465h5.027c4.353 0 7.16-2.717 7.16-6.734 0-4.017-2.805-6.731-7.16-6.731zm-.157 11.49h-2.649V7.082h2.649c2.873 0 5.049 1.706 5.049 4.758 0 3.05-2.176 4.757-5.05 4.757zM51.518 4.783c-3.89 0-7.191 3.154-7.191 7.043 0 3.89 3.3 7.044 7.19 7.044 3.89 0 7.192-3.154 7.192-7.044 0-3.89-3.302-7.043-7.191-7.043zm0 12.055c-2.765 0-5.085-2.25-5.085-5.012 0-2.762 2.32-5.01 5.085-5.01 2.764 0 5.085 2.248 5.085 5.01 0 2.763-2.321 5.012-5.085 5.012zM105.404 4.783c-3.89 0-7.191 3.154-7.191 7.043 0 3.89 3.3 7.044 7.19 7.044 3.89 0 7.192-3.154 7.192-7.044 0-3.89-3.302-7.043-7.191-7.043zm0 12.055c-2.765 0-5.085-2.25-5.085-5.012 0-2.762 2.32-5.01 5.085-5.01 2.764 0 5.085 2.248 5.085 5.01 0 2.763-2.321 5.012-5.085 5.012zM83.113 18.572h2.221v-4.848h6.485a7.96 7.96 0 0 0 .947-1.931h-7.432V7.082h8.227V5.107h-10.45v13.465h.002z"/>
            <g>
                <path d="M127.75 26.172c0-1.233-.883-1.907-2.323-1.907h-2.503v5.692h.95v-1.792h1.69c.531.503.983 1.13 1.307 1.792h1.163a8.048 8.048 0 0 0-1.447-2.005c.724-.294 1.163-.895 1.163-1.78zm-2.359 1.168h-1.515v-2.241h1.515c.846 0 1.393.362 1.393 1.11-.002.807-.54 1.13-1.393 1.13zM49.752 27.547c0 .92-.5 1.64-1.545 1.64-1.046 0-1.564-.722-1.564-1.64v-3.284h-.95v3.284c0 1.48.95 2.541 2.514 2.541 1.582 0 2.493-1.062 2.493-2.541v-3.284h-.95v3.284h.002zM138.566 25.687c0-.401.364-.686 1.092-.686.431 0 1.012.137 1.63.511l.492-.773c-.53-.35-1.315-.605-2.102-.605-1.237 0-2.13.565-2.13 1.605 0 2.136 3.387 1.394 3.387 2.677 0 .44-.468.801-1.116.801a2.837 2.837 0 0 1-1.903-.756l-.525.742c.569.537 1.543.881 2.414.881 1.22 0 2.178-.7 2.178-1.716.008-2.032-3.417-1.418-3.417-2.68zM88.506 25.687c0-.401.364-.686 1.092-.686.432 0 1.012.137 1.63.511l.492-.773c-.53-.35-1.315-.605-2.102-.605-1.237 0-2.13.565-2.13 1.605 0 2.136 3.387 1.394 3.387 2.677 0 .44-.468.801-1.116.801a2.837 2.837 0 0 1-1.903-.756l-.525.742c.569.537 1.543.881 2.414.881 1.22 0 2.178-.7 2.178-1.716.008-2.032-3.417-1.418-3.417-2.68zM145.355 25.687c0-.401.364-.686 1.092-.686.432 0 1.012.137 1.63.511l.492-.773c-.529-.35-1.314-.605-2.102-.605-1.237 0-2.13.565-2.13 1.605 0 2.136 3.387 1.394 3.387 2.677 0 .44-.467.801-1.116.801a2.837 2.837 0 0 1-1.903-.756l-.525.742c.569.537 1.543.881 2.414.881 1.22 0 2.178-.7 2.178-1.716.008-2.032-3.417-1.418-3.417-2.68zM57.505 28.35l-3.432-4.087h-.8v5.694h.951v-4.145l3.433 4.145h.797v-5.694h-.949zM61.425 24.264h1v5.69h-1zM94.707 24.264h1v5.69h-1zM98.095 25.099h1.937v4.858h.951v-4.858h1.939v-.836h-4.827zM84.909 26.172c0-1.233-.883-1.907-2.323-1.907h-2.504v5.692h.951v-1.792h1.69c.531.503.98 1.13 1.307 1.792h1.163a8.048 8.048 0 0 0-1.448-2.005c.722-.294 1.164-.895 1.164-1.78zm-2.36 1.168h-1.516v-2.241h1.515c.845 0 1.392.362 1.392 1.11-.002.807-.539 1.13-1.392 1.13zM107.541 26.912c-.435-.608-1.055-1.676-1.559-2.647h-1.103a35.045 35.045 0 0 0 2.187 3.612v2.08h.95v-2.08c.601-.855 1.443-2.196 2.188-3.612h-1.103c-.504.97-1.124 2.039-1.56 2.647zM67.703 28.89c-.801-1.638-1.26-2.753-1.83-4.625H64.84c.716 2.311 1.46 4.071 2.343 5.692h.984c.883-1.62 1.627-3.38 2.343-5.692h-.976c-.57 1.872-1.028 2.985-1.83 4.626zM72.975 29.957h4.365v-.835h-3.416V27.5h2.692c.167-.253.29-.507.388-.798h-3.08V25.1h3.416v-.836h-4.365v5.694zM130.606 29.957h4.365v-.835h-3.417V27.5h2.693c.167-.253.29-.507.388-.798h-3.08V25.1h3.416v-.836h-4.365v5.694zM117.974 24.263h-2.504v5.692h.95v-4.856h1.516c.845 0 1.392.38 1.392 1.13 0 .807-.537 1.147-1.392 1.147h-.859l-.366.825h1.207c1.42 0 2.38-.702 2.38-2.01-.001-1.234-.884-1.928-2.324-1.928z"/>
            </g>
        </g>
    </g>
</svg>
