<svg xmlns="http://www.w3.org/2000/svg" width="161" height="46" viewBox="0 0 161 46">
    <path fill="#333" fill-rule="nonzero" d="M13.392 0c4.213 0 7.523 1.38 9.93 3.987 2.257 2.3 3.31 5.366 3.31 9.2 0 4.14-1.504 7.36-4.363 9.813-2.407 1.993-5.417 3.067-9.028 3.067-4.213 0-7.523-1.38-10.081-3.987C1.053 19.473 0 16.56 0 12.88c0-4.14 1.505-7.513 4.364-9.813C6.77 1.073 9.78 0 13.392 0zM7.674 45.847c-1.505 0-2.558-.307-3.16-.92-.451-.46-.752-1.227-.903-2.147 0-.307-.15-.767-.15-1.687 0-.613-.15-1.073-.15-1.38-.151-1.533-.452-2.453-.753-2.76-.15-.153-.602-.306-1.354-.46v-.306h3.611c.15 2.913.3 5.06.451 6.593.15 1.38 1.054 2.147 2.558 2.147.903 0 1.505-.307 1.956-.767.452-.46.753-1.533.903-3.067 0-.766.15-1.533.15-2.146 0-1.534-.601-2.3-1.805-2.454v-.306h4.815v.306c-.903 0-1.505.46-1.806.92-.3.46-.451 1.534-.601 3.527-.151 1.687-.452 2.913-.903 3.527-.452.92-1.354 1.38-2.86 1.38zm6.019-21.16c3.009 0 5.115-1.227 6.62-3.68 1.204-1.994 1.806-4.6 1.806-7.82 0-4.14-1.054-7.36-3.31-9.507-1.656-1.687-3.612-2.453-5.718-2.453-3.01 0-5.116 1.226-6.62 3.68-1.205 1.993-1.807 4.6-1.807 7.82 0 4.14 1.054 7.36 3.31 9.506 1.656 1.687 3.462 2.454 5.719 2.454zm1.354 11.5h3.01c.45.613 1.504 1.84 3.159 3.68l1.655 1.686 1.204 1.227v-2.607c0-1.686-.15-2.76-.452-3.22-.3-.306-.902-.613-1.956-.613v-.307h4.815v.307c-.602 0-1.053.307-1.203.46-.301.307-.452 1.993-.452 5.06v3.22h-.451c-1.054-1.227-2.257-2.607-3.762-4.14-.903-.92-1.806-1.84-2.708-2.913v1.993c0 2.3.15 3.68.451 4.14.3.46.903.613 1.956.767v.306h-4.965v-.306c.752 0 1.203-.307 1.504-.614.301-.46.452-1.84.452-4.446 0-1.38 0-2.147-.15-2.3-.603-.767-1.204-1.074-2.107-1.38 0 .153 0 0 0 0zM76.437 5.98h-.752c-.15-1.687-.903-2.76-2.257-3.373-1.053-.46-2.558-.767-4.514-.767h-3.16v9.66h2.558c1.956 0 3.31 0 4.213-.153v5.673h-.752c0-1.533-.301-2.607-.752-3.067-.452-.46-1.355-.766-2.709-.766h-2.558v6.44c0 1.993.301 3.22 1.053 3.68.452.306 1.656.613 3.461.766v.767H46.795l-6.47-10.427c-.752.92-1.655 2.147-2.708 3.834-1.204 1.84-1.806 3.066-1.806 3.833 0 1.073.903 1.687 2.709 1.84v.767H28.288v-.767c2.106-.153 3.611-.767 4.815-1.687.602-.613 1.655-1.686 2.859-3.68l3.61-5.213-3.911-6.44c-2.107-3.527-4.514-5.213-7.373-5.367V.92h7.824l6.019 9.507c.15-.307.602-.767 1.204-1.687 1.655-2.607 2.558-4.447 2.558-5.367 0-.92-.903-1.38-2.558-1.533V.92h9.93v.767c-1.956.153-3.61.766-4.815 1.84-.902.766-1.805 1.993-2.858 3.68l-2.709 4.14L48 19.32c2.107 3.22 4.213 4.907 6.62 4.907 2.559 0 4.364-.307 5.417-.767 1.355-.767 2.107-2.147 2.107-4.14V6.133c0-1.84-.3-3.066-1.053-3.526-.602-.46-1.655-.767-3.31-.767V.92h18.356l.301 5.06zM33.554 45.233v.307h-5.266v-.307c.752-.153 1.204-.306 1.505-.613.3-.46.45-1.073.45-2.147V39.56c0-1.38-.15-2.147-.45-2.453-.301-.307-.753-.46-1.505-.46v-.307h5.266v.307c-.752.153-1.204.306-1.504.46-.301.306-.452 1.073-.452 2.3v2.76c0 1.226.15 2.146.452 2.453.3.307.752.46 1.504.613zm10.533-8.126c-.301.306-.903 1.533-1.806 3.526C40.927 43.7 40.175 45.54 39.874 46c0-.153-.452-1.073-1.204-2.607-.451-.92-.752-1.686-1.053-2.453-.15-.307-.301-.767-.602-1.533-.301-.614-.451-1.074-.602-1.227-.451-.92-1.053-1.38-1.806-1.533v-.307h4.966v.307c-1.053.153-1.505.46-1.505.92 0 .153.301 1.226 1.053 2.913.452 1.227.903 2.147 1.355 3.067.451-.92.752-1.84 1.203-2.914.753-1.686 1.054-2.606 1.054-2.913 0-.46-.452-.767-1.505-.92v-.307h4.213v.307c-.752-.153-1.053 0-1.354.307zm8.877 1.84v3.68h-.3c0-.614-.15-1.074-.452-1.227-.15-.153-.602-.307-1.053-.307h-1.505v1.227c0 1.227.15 1.84.301 2.147.15.306.752.46 1.505.46 1.504 0 2.407-.92 3.01-2.914h.3c-.3 1.227-.451 2.3-.752 3.22h-7.674v-.306c.752-.154 1.354-.307 1.505-.614.15-.46.3-1.073.3-2.146V38.64c0-.92-.15-1.533-.45-1.84-.302-.307-.753-.46-1.506-.46v-.307h7.674v2.454h-.3c-.151-1.38-1.204-2.147-3.01-2.147h-1.053v3.68h.752c1.053 0 1.505-.153 1.655-.153.15-.154.301-.46.452-1.074h.601v.154zm12.94 6.44c-.601 0-1.203-.154-1.504-.307a6.768 6.768 0 0 1-1.806-1.84c-.15-.307-.752-1.227-1.504-2.76 1.203-.307 1.805-.92 1.805-1.993 0-1.227-.902-1.994-2.708-1.994v5.98c0 1.074.15 1.84.451 2.147.301.307.753.46 1.655.46v.307h-5.416v-.307c.752-.153 1.354-.307 1.504-.613.15-.307.301-.767.301-1.38v-4.14c0-.92-.15-1.687-.451-1.84-.15-.154-.752-.46-1.505-.46v-.307h3.762c2.708 0 4.062.767 4.062 2.3 0 .92-.601 1.687-1.956 2.3.301.613.753 1.227 1.355 2.147 1.053 1.38 2.106 2.146 3.16 2.3v.306h-1.204v-.306zm5.417.306c-.752 0-1.655-.306-2.708-.766v-2.914h.301c.301 2.147 1.204 3.22 2.558 3.22 1.053 0 1.655-.613 1.655-1.686 0-.767-.752-1.38-2.106-2.147-1.656-.767-2.408-1.687-2.408-2.76 0-.92.451-1.533 1.204-2.147.602-.46 1.354-.613 2.106-.613.753 0 1.505.153 2.107.613v2.454h-.301c-.451-1.687-1.053-2.607-2.107-2.607-.451 0-.752.153-1.053.46-.3.307-.451.613-.451.92 0 .767.752 1.533 2.257 2.3 1.504.767 2.257 1.687 2.257 2.76 0 .92-.452 1.687-1.204 2.147-.451.613-1.204.766-2.107.766zm10.684-.46v.307h-5.267v-.307c.753-.153 1.204-.306 1.355-.613.3-.46.45-1.073.45-2.147V39.56c0-1.38-.15-2.147-.45-2.453-.301-.307-.753-.46-1.505-.46v-.307h5.266v.307c-.752.153-1.204.306-1.504.46-.301.306-.452 1.073-.452 2.3v2.76c0 1.226.15 2.146.452 2.453.45.307.902.46 1.655.613zM92.086 0c4.213 0 7.523 1.38 10.081 3.987 2.257 2.3 3.31 5.366 3.31 9.2 0 4.14-1.504 7.36-4.363 9.813-2.407 1.993-5.417 3.067-9.028 3.067-4.213 0-7.523-1.38-9.93-3.987-2.258-2.453-3.311-5.367-3.311-9.047 0-4.14 1.505-7.36 4.363-9.813C85.465 1.073 88.475 0 92.086 0zm.3 24.687c3.01 0 5.267-1.227 6.621-3.68 1.204-1.994 1.806-4.6 1.806-7.82 0-4.14-1.053-7.36-3.31-9.507-1.655-1.687-3.46-2.453-5.718-2.453-3.01 0-5.116 1.226-6.62 3.68-1.204 1.993-1.806 4.6-1.806 7.82 0 4.14 1.053 7.36 3.31 9.506 1.655 1.687 3.46 2.454 5.718 2.454zM88.927 36.8v5.213c0 1.38.15 2.147.452 2.454.3.306.752.46 1.504.613v.307h-5.417v-.307c.753-.153 1.204-.307 1.505-.613.301-.307.451-1.227.451-2.76V36.8c-1.354 0-2.257.153-2.407.307-.451.306-.602.92-.903 1.993h-.451c.15-1.227.3-2.147.3-2.913 1.204 0 2.107.153 3.01.153h2.558c1.354 0 2.408 0 3.01-.153v.46c0 .306 0 .766.15 1.38 0 .613 0 1.073.15 1.226h-.3c-.151-1.073-.602-1.84-1.054-1.993-.602-.307-1.204-.46-2.257-.46h-.3zm12.489 1.533c0 .154-.15.307-.301.614-.15.306-.3.613-.3.766-.603 1.227-.904 1.994-.904 2.147v1.227c0 .766.15 1.226.301 1.533.301.307.753.46 1.505.613v.307h-5.417v-.307c.903-.153 1.354-.306 1.655-.766.15-.307.301-.614.301-1.227v-1.227c-.451-.92-.903-1.84-1.505-2.606-.902-1.38-1.504-2.3-1.805-2.454-.301-.153-.602-.306-1.204-.306v-.307h4.665v.307c-.753.153-1.054.46-1.054.766 0 .307.301.92.903 1.84.15.307.452.614.752 1.227.301.307.452.613.452.767.3-.46.752-1.074 1.053-1.84.452-.767.602-1.38.602-1.84 0-.307-.3-.614-.903-.767v-.307h3.762v.307c-1.354-.153-2.107.46-2.558 1.533zm9.63-13.34V5.673c0-1.686-.301-2.76-.752-3.373-.452-.307-1.204-.613-2.257-.613V.92c2.557 0 5.567-.153 9.028-.153 6.47 0 9.78 1.84 9.78 5.673 0 1.687-.752 3.22-2.107 4.447-1.053.92-2.257 1.533-3.912 1.993l.753.92c1.504 1.84 2.858 3.373 4.062 4.6 3.762 3.833 6.47 5.827 8.125 5.827 1.656 0 2.86-.46 3.461-1.227.602-.613.903-1.687.903-3.22V6.9c0-1.993-.301-3.373-.903-3.987-.602-.613-1.655-1.073-3.46-1.226V.92l7.824-.153h2.106c10.984 0 16.552 3.986 16.552 12.113 0 2.76-.903 5.06-2.86 7.36-1.654 1.84-3.61 3.067-5.867 3.833-1.656.614-3.913.92-6.922.92h-11.135c-1.956 0-3.46-.153-4.363-.46A14.463 14.463 0 0 1 125.94 23c-1.805-1.073-3.46-2.453-4.815-4.14-.903-1.073-2.407-3.067-4.664-5.98 1.805-.307 3.46-1.073 4.514-2.3 1.053-1.073 1.504-2.147 1.504-3.527 0-1.226-.451-2.453-1.354-3.373-1.354-1.38-3.31-2.147-5.718-2.147h-.451v18.4c0 1.84.451 3.067 1.204 3.527.451.307 1.655.613 3.46.767v.766h-8.576zm1.805 16.867v-1.84c0-1.84-.15-2.913-.601-3.22-.301-.153-.753-.307-1.355-.46v-.307h3.762c1.204 0 2.257.154 3.16.614 1.053.46 1.505 1.073 1.505 1.993 0 1.84-1.355 2.76-3.913 2.913V41.4c.903-.153 1.355-.307 1.656-.613.3-.307.451-.767.451-1.534 0-1.686-1.053-2.453-3.31-2.453v5.98c0 1.073.15 1.84.451 2.147.301.153.752.46 1.655.46v.306h-5.567v-.306c.903-.154 1.354-.46 1.655-.767.301-.613.451-1.38.451-2.76zm17.304 3.527c-.602 0-1.204-.154-1.504-.307a6.768 6.768 0 0 1-1.806-1.84c-.15-.307-.752-1.227-1.505-2.76 1.204-.307 1.806-.92 1.806-1.993 0-1.227-.903-1.994-2.709-1.994v5.98c0 1.074.15 1.84.452 2.147.3.307.752.46 1.655.46v.307h-5.417v-.307c.753-.153 1.354-.307 1.505-.613.15-.307.3-.767.3-1.38v-4.14c0-.92-.15-1.687-.45-1.84-.151-.154-.753-.46-1.505-.46v-.307h3.761c2.709 0 4.063.767 4.063 2.3 0 .92-.602 1.687-1.956 2.3.3.613.752 1.227 1.354 2.147 1.053 1.38 2.107 2.146 3.16 2.3v.306h-1.204v-.306zm9.028-6.44v3.68h-.3c0-.614-.151-1.074-.302-1.227-.15-.153-.601-.307-1.053-.307h-1.505v1.227c0 1.227.15 1.84.301 2.147.15.306.602.46 1.355.46 1.504 0 2.407-.92 3.16-2.914h.3c-.3 1.38-.602 2.454-.902 3.22h-7.524v-.306c.752-.154 1.354-.307 1.505-.614.15-.306.3-1.073.3-2.146V38.64c0-.92-.15-1.533-.45-1.84-.302-.307-.753-.46-1.505-.46v-.307h7.674v2.454h-.301c-.15-.92-.452-1.534-1.054-1.84a5.518 5.518 0 0 0-1.805-.307h-1.054v3.68h.753c1.053 0 1.504-.153 1.805-.153.15-.154.301-.46.301-1.074h.301v.154zm4.514-36.954c-.3 0-.903 0-1.655.154v17.94c0 1.533.301 2.606 1.053 3.22.602.46 1.505.613 3.01.613 3.16 0 5.567-1.227 7.373-3.527 1.354-1.84 2.106-4.293 2.106-7.206 0-3.834-1.204-6.747-3.762-8.74-2.106-1.534-4.814-2.454-8.125-2.454zm2.257 43.7c-.752 0-1.655-.306-2.708-.766v-2.914h.3c.302 2.147 1.205 3.22 2.559 3.22 1.053 0 1.655-.613 1.655-1.686 0-.767-.752-1.38-2.107-2.147-1.655-.767-2.407-1.687-2.407-2.76 0-.92.451-1.533 1.204-2.147.601-.46 1.354-.613 2.106-.613.752 0 1.505.153 2.107.613v2.454h-.301c-.452-1.687-1.054-2.607-2.107-2.607-.451 0-.752.153-1.053.46-.301.307-.451.613-.451.92 0 .767.752 1.533 2.257 2.3 1.504.767 2.257 1.687 2.257 2.76 0 .92-.452 1.687-1.204 2.147-.452.613-1.204.766-2.107.766zm8.426 0c-.752 0-1.655-.306-2.708-.766v-2.914h.301c.3 2.147 1.204 3.22 2.558 3.22 1.053 0 1.655-.613 1.655-1.686 0-.767-.752-1.38-2.106-2.147-1.656-.767-2.408-1.687-2.408-2.76 0-.92.451-1.533 1.204-2.147.602-.46 1.354-.613 2.106-.613.753 0 1.505.153 2.107.613l-.15 2.454h-.302c-.451-1.687-1.053-2.607-2.106-2.607-.451 0-.752.153-1.053.46-.301.307-.452.613-.452.92 0 .767.753 1.533 2.257 2.3 1.505.767 2.257 1.687 2.257 2.76 0 .92-.451 1.687-1.203 2.147-.301.613-1.054.766-1.957.766z"/>
</svg>
