<svg xmlns="http://www.w3.org/2000/svg" width="95" height="30" viewBox="0 0 95 30">
    <g fill="none" fill-rule="evenodd">
        <path fill="#000" d="M5.111 22.681c.285-.096.837-.33 1.629-.88 1.202-.835.904-3.035.86-4.545l-.078-2.604.006.004-.073-2.431c0-.129-.008-.25-.008-.364v-1.415c0-.192.041-.727.844-.727.434 0 .687.18.822.33.08.087.141.393.186.492.071-.058.149-.116.232-.173.22-.15.476-.281.764-.39a3.48 3.48 0 0 1 1.031-.201c1.126 0 2.051.377 2.751 1.12.69.733 1.039 1.752 1.039 3.03 0 .55-.064 1.082-.19 1.58-.13.514-.34.974-.624 1.368-.307.408-.7.733-1.172.975-.476.242-1.06.365-1.738.365-.609 0-1.102-.106-1.576-.374-.13-.074-.25-.187-.36-.272l-.034.694s-.009.246-.036.605c-.048.63-.24 1.947-1.576 2.702-.667.377-1.396.688-1.96.906l.075-.02-.272.095c-.459.172-.766.267-.766.267-1.575.546-3.884 1.338-3.884 1.338 1.616 1.772 3.105 3.375 4.694 5.152 2.117-1.132 4.66-2.068 7.09-1.944 1.606-1.312 3.798-1.998 5.907-2.219l-2.478-1.422c-.901-.518-2.181-1.524-3.098-1.762-.875-.227-1.849-.308-2.742-.14-.546.104-1.092.262-1.57.54-.164.094-.719.423-1.21.717.144.117.28.242.432.35 2.517 1.787 2.559 2.366 3.546 3.165l-4.496-3.44c-.043-.035-.02-.072.017-.102 1.324-1.107 2.894-1.622 4.67-1.63.78-.002 1.728.006 2.418.402l5.7 3.273c.177.101-.595.264-.68.278-1.823.299-3.657.591-5.18 1.6-.382.252-.721.64-1.197.722-.732.127-1.497-.049-2.256.102-.92.184-1.817.469-2.677.828a19.44 19.44 0 0 0-2.11 1.007c-.117.067-.604.264-.725.128-1.651-1.85-3.34-3.67-5.011-5.504-.077-.085.09-.163.157-.184.676-.214 3.495-1 4.907-1.392zm-3.757-6.804s.65.823 2.063.823c.634 0 1.12-.255 1.12-.8 0-1.153-4.37-1.137-4.37-3.779 0-1.633 1.495-2.386 3.218-2.386 1.12 0 2.908.369 2.908 1.698v.439s.06.523-.922.523c-.96 0-.897-.496-.897-.496v-.018c0-.384-.586-.576-1.04-.576-.732 0-1.236.256-1.236.736 0 1.281 4.404 1.025 4.404 3.747 0 1.537-1.381 2.498-3.185 2.498-2.274 0-3.242-1.245-3.242-1.245s-.46-.488.111-1.067c.62-.63 1.068-.097 1.068-.097zm16.66 2.065c0 .19-.132.344-.296.344H16.38c-.164 0-.297-.154-.297-.344l.002-1.649-.002-2.754V11.15c0-.258.046-.492.195-.694.111-.15.348-.33.704-.33h.135c.357 0 .59.18.701.33.15.202.198.436.198.694v6.792zM34.208 6.7c.163-.143.322-.27.689-.27.435 0 .61.133.745.283.183.203.24.483.24.741v10.49c0 .19-.162.343-.363.343h-1.207c-.2 0-.342-.133-.342-.323v-.402c-.066.054-.156.13-.23.18a3.231 3.231 0 0 1-.811.387c-.32.105-.695.158-1.114.158a3.773 3.773 0 0 1-1.486-.293 3.298 3.298 0 0 1-1.19-.85 4.092 4.092 0 0 1-.784-1.331c-.187-.508-.281-1.093-.281-1.738 0-.537.082-1.065.244-1.57.164-.511.403-.964.712-1.346.309-.394.695-.717 1.147-.957a3.32 3.32 0 0 1 1.572-.37c.75 0 1.357.133 1.805.392.141.082.273.17.395.262V7.444c0-.24.06-.569.26-.745zm5.154.756v10.487c0 .19-.163.344-.363.344h-1.224a.353.353 0 0 1-.363-.344V7.441c0-.71.489-1.01 1.012-1.01.522 0 .938.391.938 1.024zm8.962 4.592c.227.631.227 1.592.227 1.592v.532c0 .19-.163.343-.363.343h-5.533c.104.618.353 1.134.742 1.536.463.48 1.107.75 1.968.826.042.005.092.009.182.009.164 0 .399-.014.698-.04.43-.038.872-.144 1.317-.316a.614.614 0 0 1 .55.048.733.733 0 0 1 .295.362.677.677 0 0 1-.431.827c-.413.183-.86.323-1.33.415-.353.07-.762.105-1.216.105-.157 0-.322-.005-.491-.012a4.823 4.823 0 0 1-1.706-.337c-.532-.212-1-.514-1.392-.897-.401-.379-.72-.855-.944-1.408-.221-.548-.334-1.175-.334-1.864 0-.643.118-1.22.35-1.717.232-.498.551-.917.949-1.248.408-.33.887-.58 1.426-.742.53-.16 1.102-.241 1.702-.241a3.703 3.703 0 0 1 2.541 1.014c.342.336.622.737.793 1.213zm3.27-4.544c0-.159-.09-1.157.872-1.157.445 0 .705.187.846.342.192.214.293.472.293.745v3.163c.12-.091.251-.177.391-.257a4.39 4.39 0 0 1 .824-.356 3.305 3.305 0 0 1 1.02-.153c.85 0 1.607.247 2.253.735.645.489 1.097 1.178 1.342 2.05.063.26.108.52.137.792.03.267.045.543.045.819a5.58 5.58 0 0 1-.225 1.566c-.154.523-.393.99-.714 1.387a3.63 3.63 0 0 1-1.238.997c-.503.253-1.103.382-1.784.382-.614 0-1.142-.086-1.57-.257a3.387 3.387 0 0 1-.807-.455 2.613 2.613 0 0 1-.34.32.98.98 0 0 1-.476.213c-.13.026-.291.028-.524.003l-.344-.039V7.503zm16.269 3.494c.79.795 1.19 1.865 1.19 3.181 0 1.304-.395 2.365-1.174 3.15-.779.784-1.857 1.182-3.204 1.182-1.263 0-2.315-.372-3.13-1.104-.828-.744-1.249-1.825-1.249-3.212 0-.588.088-1.152.263-1.676a3.922 3.922 0 0 1 .806-1.404c.371-.41.836-.736 1.38-.968.54-.231 1.179-.348 1.896-.348 1.347 0 2.432.403 3.222 1.199zm9.518 0c.79.795 1.192 1.865 1.192 3.181 0 1.305-.395 2.365-1.174 3.15-.78.784-1.857 1.182-3.205 1.182-1.262 0-2.315-.372-3.13-1.104-.828-.744-1.248-1.825-1.248-3.212 0-.589.088-1.152.262-1.676.178-.535.45-1.008.807-1.404a3.9 3.9 0 0 1 1.38-.968c.541-.231 1.179-.348 1.896-.348 1.347 0 2.431.403 3.22 1.199zm3.162-4.65c.445 0 .698.03.846.178.257.26.292.53.292.908v5.184l3.13-2.63h2.535l-4.23 3.6 4.68 4.796h-2.687l-3.428-3.455v3.455h-2.026V7.34s-.088-.994.888-.994zm8.496 10.109c.08.057.174.117.28.18.09.053.207.102.347.146l.029.01c.13.053.284.097.46.13.339.062.842.065 1.317.004.2-.026.378-.077.528-.153a.816.816 0 0 0 .314-.269c.07-.102.106-.245.106-.426 0-.164-.056-.3-.178-.428a2.354 2.354 0 0 0-.644-.459c-.199-.099-.43-.201-.685-.302a18.495 18.495 0 0 1-.838-.356 6.743 6.743 0 0 1-.817-.426 3.016 3.016 0 0 1-.738-.627 1.922 1.922 0 0 1-.407-1.027c-.04-.387.02-.773.179-1.15.176-.399.434-.717.77-.952a3.37 3.37 0 0 1 1.074-.492c.4-.096.827-.116 1.29-.116.574 0 1.585.205 1.74.24l.712.173v1.867s-.132-.082-.49-.247a5.887 5.887 0 0 0-1.398-.45 3.466 3.466 0 0 0-.61-.06h-.055c-.21 0-.416.026-.61.076-.202.05-.367.127-.494.233-.058.048-.126.126-.134.308a.55.55 0 0 0 .033.248c.027.07.069.13.13.182.282.265.564.456.854.58.325.138.657.272.987.398.339.132.667.282.979.447.348.183.666.458.943.817.13.176.226.359.294.553.07.201.106.43.106.685 0 .66-.184 1.22-.548 1.665-.36.44-.9.747-1.604.915a5.01 5.01 0 0 1-1.94.15 7.841 7.841 0 0 1-1.65-.367c-.28-.093-.483-.252-.598-.47a1.042 1.042 0 0 1-.128-.585l.008-.043a.893.893 0 0 1 .289-.49.741.741 0 0 1 .638-.179s.091.02.159.067zm-62.878-5.84c.505.444.761.991.761 1.627v5.698c0 .19-.162.345-.362.345H25.35a.354.354 0 0 1-.363-.345v-5c0-.169-.022-.344-.063-.52a1.096 1.096 0 0 0-.206-.422.906.906 0 0 0-.356-.267 1.5 1.5 0 0 0-.611-.107c-.205.008-.445.088-.7.237-.28.163-.543.37-.78.615a3.167 3.167 0 0 0-.573.819c-.14.29-.212.567-.212.826v3.82c0 .189-.162.344-.363.344h-1.208a.354.354 0 0 1-.362-.345v-5.527l.002-.008v-1.528c0-.135.02-.519.156-.733.152-.242.35-.385.694-.385.11 0 .19 0 .252.003l-.001-.003c.345 0 .542.143.694.385.136.214.155.598.155.733v.343c.116-.132.245-.26.386-.382.265-.23.587-.429.955-.593.382-.17.826-.262 1.32-.273h.066c.793 0 1.441.216 1.927.642zm-13.15 4.359c.071-.35.107-.692.107-1.018 0-.285-.036-.603-.107-.947a3.203 3.203 0 0 0-.34-.918 2.044 2.044 0 0 0-.606-.667c-.237-.168-.532-.249-.901-.249-.2 0-.396.043-.6.132-.207.089-.393.216-.557.38a2.137 2.137 0 0 0-.602 1.444v1.29c0 .213.03.466.091.752.057.27.163.53.315.774.142.242.329.44.562.6.216.15.486.221.824.221.362 0 .652-.076.884-.23a1.85 1.85 0 0 0 .59-.64 3.2 3.2 0 0 0 .34-.924zm59.46 1.207c.18.262.404.461.686.613.275.147.63.223 1.054.223.387 0 .716-.076.978-.226a2.01 2.01 0 0 0 .675-.62 2.88 2.88 0 0 0 .394-.904c.092-.357.138-.723.138-1.09 0-.357-.044-.723-.13-1.088a2.725 2.725 0 0 0-.402-.922 2.153 2.153 0 0 0-.695-.638c-.272-.159-.618-.24-1.025-.24-.398 0-.737.077-1.006.228a1.854 1.854 0 0 0-.659.61 2.62 2.62 0 0 0-.396.925 5.234 5.234 0 0 0 0 2.247c.076.334.207.63.388.882zm-9.52 0c.18.262.404.461.686.613.276.147.631.223 1.054.223.387 0 .716-.076.979-.226.27-.155.498-.364.675-.62.172-.254.305-.56.393-.904.092-.357.139-.723.139-1.09 0-.357-.044-.723-.132-1.088a2.709 2.709 0 0 0-.4-.922 2.16 2.16 0 0 0-.695-.637c-.273-.16-.618-.24-1.026-.24-.398 0-.737.076-1.005.227a1.844 1.844 0 0 0-.66.61c-.187.273-.319.58-.396.925a5.21 5.21 0 0 0-.124 1.14c0 .381.042.754.124 1.107.077.334.207.63.387.882zm-9.314-.804c.01.18.052.376.127.58.07.192.183.37.335.531.15.17.34.306.575.414.231.108.522.162.865.162.656 0 1.125-.239 1.436-.73.342-.54.515-1.233.515-2.063a6.18 6.18 0 0 0-.094-1.048 2.886 2.886 0 0 0-.323-.928 1.85 1.85 0 0 0-.61-.65c-.247-.162-.58-.245-.991-.245-.386 0-.745.128-1.097.391-.35.262-.575.58-.685.972a4.499 4.499 0 0 0-.064.357 2.252 2.252 0 0 0-.021.281v1.504a2.974 2.974 0 0 0 .029.439l.003.033zm-10.981-2.325h3.919a3.028 3.028 0 0 0-.143-.786 1.74 1.74 0 0 0-.4-.675 1.373 1.373 0 0 0-.538-.34 2.127 2.127 0 0 0-1.413.023 1.998 1.998 0 0 0-.669.406 2.088 2.088 0 0 0-.542.702c-.098.197-.17.421-.214.67zm-9.86 3.629c.237-.15.442-.347.61-.586.174-.248.31-.526.402-.826a3.05 3.05 0 0 0 .141-.902v-.634a4.8 4.8 0 0 0-.077-.903c-.057-.405-.247-.76-.583-1.096-.317-.318-.73-.473-1.262-.473-.315 0-.58.067-.813.204-.24.142-.434.33-.59.575-.165.256-.29.56-.374.904a4.79 4.79 0 0 0-.129 1.13c0 .327.036.67.108 1.017.068.336.182.647.339.925.153.256.359.473.607.639.233.155.522.23.884.23.278 0 .52-.066.737-.204zM17.03 8.987a1.265 1.265 0 1 1-.002-2.53 1.265 1.265 0 0 1 .002 2.53z"/>
        <path fill="#231F20" d="M.955 2.441c.124.033.281.046.471.046.688 0 1.107-.337 1.107-.952 0-.589-.412-.873-1.041-.873-.25 0-.44.02-.537.046V2.44zM.385.291A6.537 6.537 0 0 1 1.479.205c.563 0 .976.132 1.238.37.242.212.386.536.386.933 0 .404-.118.721-.34.953-.302.324-.793.49-1.35.49a1.93 1.93 0 0 1-.458-.04v1.786h-.57V.29zM7.47 1.495l.42 1.627c.09.358.176.689.235 1.02h.02c.072-.325.176-.669.281-1.013l.518-1.634h.485l.49 1.601c.119.384.21.721.282 1.045h.02c.053-.324.138-.661.243-1.039l.452-1.607h.57l-1.022 3.202H9.94l-.485-1.528a10.814 10.814 0 0 1-.282-1.052H9.16a9.578 9.578 0 0 1-.288 1.059l-.511 1.52h-.524l-.957-3.2h.59zm4.85 1.707c.013.787.511 1.111 1.088 1.111.412 0 .662-.073.877-.165l.099.417c-.203.092-.55.198-1.055.198-.976 0-1.559-.648-1.559-1.614 0-.966.563-1.726 1.487-1.726 1.035 0 1.31.919 1.31 1.508 0 .119-.013.211-.02.27h-2.226zm2.963-.708c0-.377-.006-.701-.026-.999h.504l.02.629h.026c.144-.43.491-.702.878-.702.065 0 .111.007.164.02v.55a.855.855 0 0 0-.197-.02c-.406 0-.694.31-.773.747a1.66 1.66 0 0 0-.026.271v1.707h-.57V2.494zm2.399.708c.013.787.51 1.111 1.087 1.111.413 0 .662-.073.878-.165l.099.417c-.204.092-.55.198-1.055.198-.977 0-1.56-.648-1.56-1.614 0-.966.564-1.726 1.488-1.726 1.035 0 1.31.919 1.31 1.508 0 .119-.013.211-.02.27h-2.227zM23.383 0v3.87c0 .284.007.609.026.827h-.517l-.026-.556h-.014c-.177.357-.563.629-1.08.629-.767 0-1.357-.655-1.357-1.627-.006-1.066.649-1.72 1.422-1.72.485 0 .812.23.956.489h.014V0h.576zm2.322 4.697c.013-.218.026-.543.026-.827V0h.57v2.011h.013c.203-.357.57-.588 1.081-.588.786 0 1.343.66 1.337 1.633 0 1.145-.715 1.714-1.422 1.714-.459 0-.826-.179-1.062-.602h-.019l-.026.529h-.498zM6.557 3.07c0 1.184-.812 1.7-1.578 1.7-.859 0-1.52-.635-1.52-1.647 0-1.072.694-1.7 1.572-1.7.91 0 1.526.667 1.526 1.647zm23.067-1.575l.695 1.892c.072.212.15.463.202.655h.014c.059-.192.124-.436.203-.668l.629-1.879h.609l-.865 2.283c-.413 1.098-.694 1.66-1.087 2.004-.282.251-.564.35-.708.377l-.144-.49c.144-.046.334-.138.505-.284.157-.126.353-.35.484-.649a.426.426 0 0 0 .046-.138.512.512 0 0 0-.04-.152l-1.172-2.95h.63zm-3.323 1.919c0 .072.013.145.026.211.112.404.446.682.865.682.603 0 .963-.496.963-1.23 0-.642-.328-1.192-.943-1.192-.394 0-.76.272-.878.715-.013.066-.033.145-.033.238v.576zm-3.494-.616c0-.073-.007-.172-.027-.244a.85.85 0 0 0-.832-.675c-.596 0-.95.529-.95 1.237 0 .648.315 1.184.937 1.184.387 0 .74-.258.845-.695.02-.079.027-.158.027-.251v-.556zm-3.435-.013c.007-.37-.15-.946-.8-.946-.582 0-.838.543-.883.946h1.683zm-5.361 0c.006-.37-.151-.946-.8-.946-.583 0-.838.543-.884.946h1.684zm-9.97.318c0 .7.4 1.23.964 1.23.55 0 .963-.522.963-1.244 0-.542-.269-1.23-.95-1.23-.681 0-.976.635-.976 1.244z"/>
        <path fill="#000" d="M93.363 27.524c.204-.263.32-.614.32-1.054 0-.38-.087-.703-.262-.966-.204-.322-.495-.498-.874-.498s-.67.176-.874.498c-.204.293-.292.615-.292.995 0 .44.059.703.32 1.025.263.293.525.44.817.44.32 0 .612-.147.845-.44zm-2.157.41c-.35-.35-.524-.82-.524-1.435 0-.585.175-1.083.524-1.464.38-.38.816-.556 1.37-.556.554 0 .99.176 1.34.556.32.38.496.85.496 1.406 0 .674-.204 1.171-.612 1.552-.32.322-.758.469-1.282.469-.525 0-.962-.176-1.312-.527zm-2.069.469h.67v-3.836h-.67v3.836zm-.029-4.54c-.087-.087-.116-.204-.116-.35 0-.118.029-.206.116-.293.088-.088.175-.118.32-.118.147 0 .234.03.321.118a.377.377 0 0 1 .117.292c0 .147-.03.264-.117.352-.087.088-.174.117-.32.117-.146 0-.233-.03-.32-.117zm-1.806 4.54h.67V22.78h-.67v5.623zm-1.924-.879c.204-.322.32-.673.32-1.054 0-.38-.086-.703-.261-.966-.204-.322-.496-.498-.875-.498-.378 0-.67.146-.903.469-.175.263-.262.615-.262 1.024 0 .381.116.703.32 1.025.204.293.467.44.816.44.32 0 .612-.147.845-.44zm-2.156.41c-.35-.35-.525-.82-.525-1.435 0-.615.175-1.112.525-1.464.379-.38.816-.556 1.37-.556.553 0 .99.176 1.31.556.35.44.525.82.525 1.406 0 .674-.204 1.171-.612 1.552-.32.322-.757.469-1.282.469-.524 0-.961-.176-1.31-.527zm-1.69.469h-.67v-3.31h-.554v-.526h.554v-.176c0-.293.029-.556.087-.79.058-.206.175-.381.35-.557.116-.117.262-.205.437-.264a1.25 1.25 0 0 1 .495-.088c.32 0 .437.03.583.118l-.087.527a1.164 1.164 0 0 0-.437-.088c-.292 0-.496.117-.612.351a1.86 1.86 0 0 0-.146.762v.205h.903v.527h-.903v3.309zm-3.205-4.54l.67-.204v.908h1.02v.527h-1.02v2.05c0 .205.029.41.116.556.088.117.204.176.408.176s.32 0 .408-.03l.03.528a2.21 2.21 0 0 1-.613.088c-.32 0-.582-.088-.757-.293-.175-.205-.262-.527-.262-.996v-2.08h-.583v-.526h.583v-.703zm-2.914 4.54V24.567h.582l.03.761h.029c.087-.263.233-.468.408-.615.204-.146.408-.234.612-.234l.233.03v.643l-.263-.029a.823.823 0 0 0-.582.264c-.146.146-.263.38-.321.644-.03.088-.03.205-.03.322v2.05h-.698zm-1.924-.85c.233-.292.35-.643.35-1.083 0-.38-.087-.703-.262-.966-.233-.322-.525-.498-.874-.498-.408 0-.7.146-.904.469-.204.292-.291.644-.291 1.024 0 .41.116.762.35 1.055.203.263.495.41.815.41.321 0 .612-.147.816-.41zm-2.156.382c-.32-.323-.495-.82-.495-1.436 0-.615.174-1.112.524-1.464.35-.38.787-.556 1.34-.556.554 0 .991.176 1.341.556.32.38.495.85.495 1.406 0 .674-.204 1.171-.582 1.552-.321.322-.758.469-1.283.469a1.89 1.89 0 0 1-1.34-.527zm-3.497-2.226c.146.03.32.058.554.058.408 0 .728-.088.99-.292.234-.205.35-.469.35-.85 0-.351-.116-.615-.35-.79-.203-.176-.524-.264-.903-.264-.32 0-.553.03-.64.058v2.08zm-.7 2.694v-5.271c.38-.088.817-.117 1.312-.117.641 0 1.137.146 1.486.439.32.293.466.673.466 1.142 0 .498-.145.879-.407 1.142-.38.38-.904.557-1.603.557h-.32c-.088 0-.176 0-.234-.03v2.138h-.7zm-1.864 0h.7v-3.836h-.7v3.836zm.029-4.656c-.087-.088-.117-.205-.117-.352 0-.117.03-.205.117-.293.087-.087.175-.117.32-.117.146 0 .234.03.321.117a.377.377 0 0 1 .117.293c0 .147-.03.264-.117.352-.087.088-.175.117-.32.117-.146 0-.234-.03-.321-.117zM56.916 28.35c.013-.218.026-.542.026-.826v-3.87h.57v2.011h.013c.204-.357.57-.589 1.081-.589.786 0 1.343.662 1.337 1.634 0 1.145-.714 1.713-1.422 1.713-.458 0-.825-.178-1.061-.601h-.02l-.026.529h-.498zM60.814 25l.695 1.892c.072.212.15.463.202.655h.014c.059-.192.124-.437.203-.668L62.557 25h.609l-.865 2.282c-.413 1.099-.694 1.66-1.087 2.005-.282.251-.564.35-.708.377l-.144-.49c.144-.046.334-.139.505-.284.157-.126.353-.35.484-.649a.426.426 0 0 0 .046-.138.512.512 0 0 0-.04-.152L60.186 25h.63zm-3.32 2.105c0 .073.012.146.025.212.112.403.446.681.865.681.603 0 .963-.496.963-1.23 0-.642-.328-1.191-.943-1.191-.393 0-.76.271-.878.715-.013.066-.033.145-.033.238v.575z"/>
    </g>
</svg>
