<?xml version="1.0" encoding="utf-8"?>
<!-- Generator: Adobe Illustrator 19.2.1, SVG Export Plug-In . SVG Version: 6.00 Build 0)  -->
<svg version="1.1" id="Layer_1" xmlns="http://www.w3.org/2000/svg" xmlns:xlink="http://www.w3.org/1999/xlink" x="0px" y="0px"
	 viewBox="0 0 15 15" style="enable-background:new 0 0 15 15;" xml:space="preserve">
<style type="text/css">
	.st0{fill:#4776AE;}
</style>
<g>
	<path class="st0" d="M11.3,13.6H1.4V2.8h6.2l1-1l0.2-0.2L8.5,1.4H1.1C0.5,1.4,0,1.9,0,2.5v11.3C0,14.5,0.5,15,1.1,15h10.4
		c0.6,0,1.1-0.5,1.1-1.1V6.6L11.3,8V13.6z"/>
	<path class="st0" d="M14.2,0.7c-0.5-0.4-1-0.7-1.5-0.7c-0.8,0-1.5,0.5-1.6,0.7c-0.2,0.2-6.2,6.2-6.2,6.2C4.8,7,4.7,7.1,4.7,7.2
		c-0.1,0.5-0.7,2.3-0.9,3c-0.1,0.2-0.1,0.3-0.1,0.3c-0.1,0.2,0,0.5,0.2,0.6c0.1,0.1,0.3,0.2,0.4,0.2s0.1,0,0.2,0c0,0,2.8-0.9,3.2-1
		c0.1,0,0.2-0.1,0.3-0.2l0.2-0.2c4.6-4.6,5.8-5.8,6-6C14.8,3.4,15,2.8,15,2.2C15,1.7,14.7,1.1,14.2,0.7z M13.6,2.3
		c0,0.2-0.1,0.4-0.4,0.7C13,3.2,10.9,5.3,7.4,8.7L7.1,9c-0.4,0.1-1,0.3-1.7,0.5C5.7,8.8,5.9,8.2,6,7.8c0.9-0.9,5.9-5.9,6.1-6.1
		c0,0,0.3-0.3,0.6-0.3c0.2,0,0.4,0.1,0.5,0.3C13.5,1.9,13.6,2.1,13.6,2.3z"/>
</g>
</svg>
