<svg xmlns="http://www.w3.org/2000/svg" width="36" height="36" viewBox="0 0 36 36">
    <g fill="none" fill-rule="evenodd">
        <path fill="#FFA000" d="M17.919 0C8.063 0 0 8.063 0 17.919c0 9.855 8.063 17.918 17.919 17.918 9.855 0 17.918-8.063 17.918-17.918C35.837 8.063 27.774 0 17.92 0z"/>
        <path fill="#FFF" fill-rule="nonzero" d="M25.144 23.198H10.549c-.1 0-.184-.003-.253-.007.135-.21.333-.48.495-.697.799-1.082 2.133-2.605 2.133-4.4v-4.306c0-2.935 2.111-5.325 4.866-5.325 2.754 0 4.886 2.39 4.886 5.325v4.307c0 1.855 1.23 3.404 2.13 4.505.151.184.332.406.473.595-.04.002-.086.003-.135.003M17.8 26.737a2.132 2.132 0 0 1-2.124-2.134h4.25a2.133 2.133 0 0 1-2.126 2.134m8.084-5.029c-.766-.936-1.812-2.26-1.812-3.613v-4.307c0-3.71-2.76-6.728-6.283-6.728-3.525 0-6.262 3.018-6.262 6.73v4.306c0 1.328-1.137 2.586-1.857 3.56-.649.877-1.16 1.568-.815 2.26.305.609 1.065.688 1.693.688h3.757c0 1.94 1.566 3.514 3.497 3.514 1.93 0 3.493-1.574 3.495-3.515h3.846c.398 0 1.334 0 1.655-.684.326-.694-.194-1.33-.914-2.21"/>
    </g>
</svg>
