<?xml version="1.0" encoding="utf-8"?>
<!-- Generator: Adobe Illustrator 19.2.1, SVG Export Plug-In . SVG Version: 6.00 Build 0)  -->
<svg version="1.1" id="Layer_1" xmlns="http://www.w3.org/2000/svg" xmlns:xlink="http://www.w3.org/1999/xlink" x="0px" y="0px"
	 viewBox="0 0 25 25" style="enable-background:new 0 0 25 25;" xml:space="preserve">
<style type="text/css">
	.st0{fill:#333333;}
</style>
<g>
	<path class="st0" d="M16.9,8.1c-0.3-0.3-0.8-0.3-1.1,0l-3.3,3.3L9.2,8.1c-0.3-0.3-0.8-0.3-1.1,0c-0.3,0.3-0.3,0.8,0,1.1l3.3,3.3
		l-3.3,3.3c-0.3,0.3-0.3,0.8,0,1.1c0.3,0.3,0.8,0.3,1.1,0l3.3-3.3l3.3,3.3c0.3,0.3,0.8,0.3,1.1,0c0.3-0.3,0.3-0.8,0-1.1l-3.3-3.3
		l3.3-3.3C17.2,8.9,17.2,8.4,16.9,8.1 M12.5,23.5c-6,0-10.9-4.9-10.9-11S6.5,1.6,12.5,1.6s10.9,4.9,10.9,10.9S18.5,23.5,12.5,23.5
		 M12.5,0C5.6,0,0,5.6,0,12.5S5.6,25,12.5,25S25,19.4,25,12.5S19.4,0,12.5,0"/>
</g>
</svg>
