<?xml version="1.0" encoding="utf-8"?>
<!-- Generator: Adobe Illustrator 19.2.1, SVG Export Plug-In . SVG Version: 6.00 Build 0)  -->
<svg version="1.1" id="Layer_1" xmlns="http://www.w3.org/2000/svg" xmlns:xlink="http://www.w3.org/1999/xlink" x="0px" y="0px"
	 viewBox="0 0 25 25" style="enable-background:new 0 0 25 25;" xml:space="preserve">
<style type="text/css">
	.st0{fill:#333333;}
</style>
<path class="st0" d="M12.5,1.4C6.6,1.4,1.8,6.2,1.8,12.1c0,5.2,3.9,9.7,9,10.6l-1.3,0.7C9.2,23.5,9,23.7,9,23.9c0,0.2,0,0.4,0.1,0.5
	l0.1,0.2C9.3,24.9,9.5,25,9.8,25c0.1,0,0.3,0,0.4-0.1l3.4-1.8l0.3-0.1c0.2-0.1,0.3-0.3,0.4-0.5c0.1-0.2,0-0.4-0.1-0.6l-2.3-3.6
	c-0.2-0.4-0.7-0.5-1.1-0.3l-0.1,0.1c-0.2,0.1-0.3,0.2-0.3,0.4c-0.1,0.2,0,0.5,0.1,0.7l1,1.5c-4.3-0.5-7.7-4.3-7.7-8.7
	c0-4.8,3.9-8.8,8.8-8.8c4.8,0,8.8,3.9,8.8,8.8c0,2.8-1.3,5.3-3.5,7c-0.2,0.2-0.3,0.4-0.4,0.6c0,0.3,0,0.5,0.2,0.7
	c0.3,0.4,0.9,0.5,1.4,0.2c2.7-2,4.3-5.2,4.3-8.6C23.2,6.2,18.4,1.4,12.5,1.4z"/>
</svg>
