<?xml version="1.0" encoding="utf-8"?>
<!-- Generator: Adobe Illustrator 16.0.4, SVG Export Plug-In . SVG Version: 6.00 Build 0)  -->
<!DOCTYPE svg PUBLIC "-//W3C//DTD SVG 1.1//EN" "http://www.w3.org/Graphics/SVG/1.1/DTD/svg11.dtd">
<svg version="1.1" id="Layer_1" xmlns="http://www.w3.org/2000/svg" xmlns:xlink="http://www.w3.org/1999/xlink" x="0px" y="0px"
	 width="25px" height="25px" viewBox="0 0 25 25" enable-background="new 0 0 25 25" xml:space="preserve">
<g>
	<path fill="#B3B3B3" d="M16.92,8.08c-0.305-0.305-0.801-0.305-1.105,0L12.5,11.395L9.186,8.08c-0.305-0.305-0.801-0.305-1.106,0
		c-0.305,0.305-0.305,0.801,0,1.104l3.315,3.315L8.08,15.814c-0.305,0.305-0.305,0.801,0,1.104c0.305,0.304,0.801,0.304,1.106,0
		l3.314-3.313l3.314,3.313c0.305,0.304,0.801,0.304,1.104,0c0.306-0.305,0.306-0.801,0-1.104L13.605,12.5l3.313-3.315
		C17.225,8.881,17.225,8.385,16.92,8.08 M12.5,23.462c-6.031,0-10.938-4.931-10.938-10.962S6.469,1.562,12.5,1.562
		c6.031,0,10.938,4.907,10.938,10.938S18.531,23.462,12.5,23.462 M12.5,0C5.596,0,0,5.596,0,12.5C0,19.404,5.596,25,12.5,25
		C19.404,25,25,19.404,25,12.5C25,5.596,19.404,0,12.5,0"/>
</g>
</svg>
