<svg width="11" height="10" viewBox="0 0 11 10" fill="none" xmlns="http://www.w3.org/2000/svg">
<g clip-path="url(#clip0_547_31599)">
<path fill-rule="evenodd" clip-rule="evenodd" d="M10.5188 9.85586C10.7104 9.66428 10.7104 9.35367 10.5188 9.1621L6.35646 4.99974L10.5192 0.836973C10.7108 0.645396 10.7108 0.334789 10.5192 0.143212C10.3277 -0.0483652 10.017 -0.0483654 9.82547 0.143212L5.6627 4.30597L1.49992 0.143194C1.30834 -0.0483826 0.997736 -0.0483825 0.806158 0.143194C0.614581 0.334771 0.614581 0.645379 0.806158 0.836956L4.96894 4.99974L0.806561 9.16211C0.614984 9.35369 0.614984 9.6643 0.806561 9.85588C0.998138 10.0475 1.30875 10.0475 1.50032 9.85588L5.6627 5.6935L9.82507 9.85586C10.0166 10.0474 10.3273 10.0474 10.5188 9.85586Z" fill="#666666"/>
</g>
<defs>
<clipPath id="clip0_547_31599">
<rect width="10.0004" height="10.001" fill="white" transform="translate(0.66272 -0.000488281)"/>
</clipPath>
</defs>
</svg>
