<?xml version="1.0" encoding="utf-8"?>
<!-- Generator: Adobe Illustrator 19.2.1, SVG Export Plug-In . SVG Version: 6.00 Build 0)  -->
<svg version="1.1" id="Layer_1" xmlns="http://www.w3.org/2000/svg" xmlns:xlink="http://www.w3.org/1999/xlink" x="0px" y="0px"
	 viewBox="0 0 14.4 11.2" style="enable-background:new 0 0 14.4 11.2;" xml:space="preserve">
<style type="text/css">
	.st0{fill:#333333;}
</style>
<g>
	<path class="st0" d="M0.6,1.2h13.1c0.3,0,0.6-0.3,0.6-0.6S14.1,0,13.8,0H0.6C0.3,0,0,0.3,0,0.6S0.3,1.2,0.6,1.2 M13.8,10H0.6
		C0.3,10,0,10.3,0,10.6s0.3,0.6,0.6,0.6h13.1c0.3,0,0.6-0.3,0.6-0.6S14.1,10,13.8,10 M13.8,5H0.6C0.3,5,0,5.3,0,5.6s0.3,0.6,0.6,0.6
		h13.1c0.3,0,0.6-0.3,0.6-0.6S14.1,5,13.8,5"/>
</g>
</svg>
