<?xml version="1.0" encoding="utf-8"?>
<!-- Generator: Adobe Illustrator 16.0.4, SVG Export Plug-In . SVG Version: 6.00 Build 0)  -->
<!DOCTYPE svg PUBLIC "-//W3C//DTD SVG 1.1//EN" "http://www.w3.org/Graphics/SVG/1.1/DTD/svg11.dtd">
<svg version="1.1" id="Layer_1" xmlns="http://www.w3.org/2000/svg" xmlns:xlink="http://www.w3.org/1999/xlink" x="0px" y="0px"
	 width="14.375px" height="11.25px" viewBox="0 0 14.375 11.25" enable-background="new 0 0 14.375 11.25" xml:space="preserve">
<g>
	<path fill="#B3B3B3" d="M0.625,1.25H13.75c0.346,0,0.625-0.28,0.625-0.625S14.096,0,13.75,0H0.625C0.28,0,0,0.28,0,0.625
		S0.28,1.25,0.625,1.25 M13.75,10H0.625C0.28,10,0,10.28,0,10.625s0.28,0.625,0.625,0.625H13.75c0.346,0,0.625-0.28,0.625-0.625
		S14.096,10,13.75,10 M13.75,5H0.625C0.28,5,0,5.28,0,5.625S0.28,6.25,0.625,6.25H13.75c0.346,0,0.625-0.28,0.625-0.625
		S14.096,5,13.75,5"/>
</g>
</svg>
