<?xml version="1.0" encoding="utf-8"?>
<!-- Generator: Adobe Illustrator 19.2.1, SVG Export Plug-In . SVG Version: 6.00 Build 0)  -->
<svg version="1.1" id="Layer_1" xmlns="http://www.w3.org/2000/svg" xmlns:xlink="http://www.w3.org/1999/xlink" x="0px" y="0px"
	 viewBox="0 0 12.5 12.5" style="enable-background:new 0 0 12.5 12.5;" xml:space="preserve">
<style type="text/css">
	.st0{fill:#002147;}
</style>
<g>
	<path class="st0" d="M11.4,2.5c-0.2,0.2-1.9,1.9-5.1,5L6.1,7.7C5.7,7.8,4.8,8.1,4.2,8.3c0.2-0.7,0.5-1.5,0.6-1.9
		C5.4,5.7,9.9,1.3,10,1.1c0,0,0.3-0.3,0.7-0.3c0.2,0,0.4,0.1,0.6,0.3c0.2,0.2,0.4,0.5,0.4,0.7C11.7,2,11.6,2.2,11.4,2.5 M11.9,0.5
		C11.5,0.2,11.1,0,10.7,0c-0.6,0-1.1,0.4-1.3,0.5C9.3,0.7,4.1,5.9,4.1,5.9C4.1,5.9,4.1,6,4,6C3.9,6.6,3.2,8.9,3.2,8.9
		c0,0.1,0,0.2,0.1,0.3c0.1,0.1,0.1,0.1,0.2,0.1c0,0,0.1,0,0.1,0c0,0,2.4-0.8,2.8-0.9c0.1,0,0.1,0,0.1-0.1c0.2-0.2,5-4.9,5.4-5.3
		c0.4-0.4,0.6-0.8,0.6-1.3C12.5,1.3,12.3,0.9,11.9,0.5 M9.8,11.7h-9V2h5.5l0.8-0.8l0,0H0.8C0.3,1.2,0,1.5,0,2v9.8
		c0,0.4,0.3,0.8,0.8,0.8h9c0.4,0,0.8-0.4,0.8-0.8V6L9.8,6.7V11.7z"/>
</g>
</svg>
