<?xml version="1.0" encoding="utf-8"?>
<!-- Generator: Adobe Illustrator 16.0.4, SVG Export Plug-In . SVG Version: 6.00 Build 0)  -->
<!DOCTYPE svg PUBLIC "-//W3C//DTD SVG 1.1//EN" "http://www.w3.org/Graphics/SVG/1.1/DTD/svg11.dtd">
<svg version="1.1" id="Layer_1" xmlns="http://www.w3.org/2000/svg" xmlns:xlink="http://www.w3.org/1999/xlink" x="0px" y="0px"
	 width="12.5px" height="12.491px" viewBox="0 0 12.5 12.491" enable-background="new 0 0 12.5 12.491" xml:space="preserve">
<g>
	<path fill="#4775AD" d="M11.351,2.456C11.134,2.68,9.433,4.359,6.298,7.449l-0.24,0.235c-0.359,0.111-1.22,0.389-1.87,0.599
		C4.397,7.591,4.648,6.755,4.76,6.36c0.67-0.67,5.101-5.094,5.27-5.26c0.032-0.032,0.331-0.32,0.7-0.32
		c0.209,0,0.41,0.096,0.615,0.292c0.244,0.234,0.371,0.46,0.373,0.671C11.722,1.96,11.599,2.199,11.351,2.456 M11.884,0.509
		C11.533,0.171,11.144,0,10.73,0c-0.649,0-1.122,0.419-1.251,0.547C9.296,0.728,4.125,5.892,4.125,5.892
		C4.084,5.933,4.055,5.984,4.04,6.04C3.9,6.557,3.197,8.855,3.191,8.879C3.154,8.996,3.187,9.125,3.273,9.211
		c0.063,0.062,0.146,0.095,0.231,0.095c0.033,0,0.067-0.005,0.1-0.015C3.628,9.283,6,8.516,6.39,8.398
		c0.051-0.015,0.098-0.043,0.137-0.079c0.246-0.243,5-4.924,5.385-5.321c0.396-0.41,0.596-0.837,0.588-1.27
		C12.492,1.303,12.285,0.892,11.884,0.509 M9.753,11.711H0.78V1.958h5.481l0.79-0.76L7.03,1.177H0.78C0.349,1.177,0,1.527,0,1.958
		v9.753c0,0.431,0.349,0.78,0.78,0.78h8.974c0.43,0,0.779-0.35,0.779-0.78V5.997L9.753,6.742V11.711z"/>
</g>
</svg>
