<?xml version="1.0" encoding="utf-8"?>
<!-- Generator: Adobe Illustrator 19.2.1, SVG Export Plug-In . SVG Version: 6.00 Build 0)  -->
<svg version="1.1" id="Layer_1" xmlns="http://www.w3.org/2000/svg" xmlns:xlink="http://www.w3.org/1999/xlink" x="0px" y="0px"
	 viewBox="0 0 25 25" style="enable-background:new 0 0 25 25;" xml:space="preserve">
<style type="text/css">
	.st0{fill:#B3B3B3;}
</style>
<g>
	<g>
		<path class="st0" d="M12.5,23.5c-6,0-10.9-4.9-10.9-11S6.5,1.6,12.5,1.6c6,0,10.9,4.9,10.9,10.9S18.5,23.5,12.5,23.5 M12.5,0
			C5.6,0,0,5.6,0,12.5C0,19.4,5.6,25,12.5,25S25,19.4,25,12.5C25,5.6,19.4,0,12.5,0 M12.5,8.6c0.9,0,1.6-0.7,1.6-1.6
			s-0.7-1.6-1.6-1.6c-0.9,0-1.6,0.7-1.6,1.6S11.6,8.6,12.5,8.6 M14.1,18h-0.8v-7c0,0,0,0,0,0s0,0,0,0c0-0.4-0.4-0.8-0.8-0.8h-1.6
			c-0.4,0-0.8,0.3-0.8,0.8s0.3,0.8,0.8,0.8h0.8V18h-0.8c-0.4,0-0.8,0.3-0.8,0.8c0,0.4,0.3,0.8,0.8,0.8h3.1c0.4,0,0.8-0.4,0.8-0.8
			C14.8,18.3,14.5,18,14.1,18"/>
	</g>
</g>
</svg>
