<?xml version="1.0" encoding="utf-8"?>
<!-- Generator: Adobe Illustrator 19.2.1, SVG Export Plug-In . SVG Version: 6.00 Build 0)  -->
<svg version="1.1" id="Layer_1" xmlns="http://www.w3.org/2000/svg" xmlns:xlink="http://www.w3.org/1999/xlink" x="0px" y="0px"
	 viewBox="0 0 14.6 14.6" style="enable-background:new 0 0 14.6 14.6;" xml:space="preserve">
<style type="text/css">
	.st0{fill:#333333;}
</style>
<path class="st0" d="M8.3,6.4V1c0-0.6-0.4-1-1-1c-0.6,0-1,0.4-1,1l0,5.4H1c-0.6,0-1,0.4-1,1c0,0.6,0.4,1,1,1h5.4l-0.1,5.3
	c0,0.6,0.4,1,1,1c0.3,0,0.6-0.1,0.7-0.3c0.1-0.1,0.3-0.4,0.3-0.7V8.3h5.4c0.3,0,0.6-0.1,0.7-0.3c0.1-0.1,0.3-0.4,0.3-0.7
	c0-0.6-0.4-1-1-1L8.3,6.4z"/>
</svg>
