<?xml version="1.0" encoding="utf-8"?>
<!-- Generator: Adobe Illustrator 19.2.1, SVG Export Plug-In . SVG Version: 6.00 Build 0)  -->
<svg version="1.1" id="Layer_1" xmlns="http://www.w3.org/2000/svg" xmlns:xlink="http://www.w3.org/1999/xlink" x="0px" y="0px"
	 viewBox="0 0 19.9 19.8" style="enable-background:new 0 0 19.9 19.8;" xml:space="preserve">
<style type="text/css">
	.st0{fill:#B3B3B3;}
</style>
<g>
	<path class="st0" d="M7.4,7.5H1.2V1.3h6.2V7.5z M7.4,0H1.2C0.5,0,0,0.6,0,1.2v6.2c0,0.7,0.6,1.2,1.2,1.2h6.2c0.7,0,1.2-0.6,1.2-1.2
		V1.2C8.7,0.6,8.1,0,7.4,0 M7.4,18.8H1.2v-6.2h6.2V18.8z M7.4,11.2H1.2c-0.7,0-1.2,0.6-1.2,1.2v6.2c0,0.7,0.6,1.2,1.2,1.2h6.2
		c0.7,0,1.2-0.6,1.2-1.2v-6.2C8.7,11.8,8.1,11.2,7.4,11.2 M18.7,18.8h-6.2v-6.2h6.2V18.8z M18.7,11.2h-6.2c-0.7,0-1.2,0.6-1.2,1.2
		v6.2c0,0.7,0.6,1.2,1.2,1.2h6.2c0.7,0,1.2-0.6,1.2-1.2v-6.2C19.9,11.8,19.3,11.2,18.7,11.2 M18.7,7.5h-6.2V1.3h6.2V7.5z M18.7,0
		h-6.2c-0.7,0-1.2,0.6-1.2,1.2v6.2c0,0.7,0.6,1.2,1.2,1.2h6.2c0.7,0,1.2-0.6,1.2-1.2V1.2C19.9,0.6,19.3,0,18.7,0"/>
</g>
</svg>
