<svg width="21" height="20" viewBox="0 0 21 20" fill="none" xmlns="http://www.w3.org/2000/svg">
<path fill-rule="evenodd" clip-rule="evenodd" d="M2.98242 10C2.98242 5.6 6.58242 2 10.9824 2C15.3824 2 18.9824 5.6 18.9824 10C18.9824 14.4 15.3824 18 10.9824 18C6.58242 18 2.98242 14.4 2.98242 10ZM3.98242 10C3.98242 13.8667 7.11576 17 10.9824 17C14.8491 17 17.9824 13.8667 17.9824 10C17.9824 6.13333 14.8491 3 10.9824 3C7.11576 3 3.98242 6.13333 3.98242 10ZM10.2491 14.5333H11.5158V13.2667H10.2491V14.5333ZM9.18242 6.06667C9.64909 5.66667 10.2491 5.46667 10.9824 5.46667C11.7824 5.46667 12.3824 5.66667 12.7824 6.06667C13.2491 6.46667 13.4491 7.06667 13.4491 7.8C13.4491 8.33333 13.3158 8.8 13.0491 9.26667C12.7824 9.66667 12.3824 10.1333 11.9158 10.6C11.7158 10.8 11.5824 11 11.5158 11.2C11.4491 11.3333 11.4491 11.6 11.4491 12H10.2491C10.2491 11.4667 10.3158 11 10.3824 10.8C10.5158 10.5333 10.7824 10.2667 11.1824 9.86667C11.5824 9.4 11.8491 9.06667 12.0491 8.8C12.2491 8.53333 12.3158 8.2 12.3158 7.86667C12.3158 7.4 12.1824 7.06667 11.9824 6.86667C11.7158 6.66667 11.3824 6.53333 10.9824 6.53333C10.6491 6.53333 10.3158 6.66667 10.0491 6.86667C9.78242 7.06667 9.64909 7.6 9.64909 8H8.51576V7.93333C8.44909 7.26667 8.71575 6.46667 9.18242 6.06667Z" fill="#002147"/>
</svg>
