<svg width="21" height="20" viewBox="0 0 21 20" xmlns="http://www.w3.org/2000/svg">
    <path d="M10.27 2c-4.4 0-8 3.6-8 8s3.6 8 8 8 8-3.6 8-8-3.6-8-8-8zm0 15a7 7 0 0 1-7-7 7 7 0 0 1 7-7 7 7 0 0 1 7 7 7 7 0 0 1-7 7zm-.734-2.467h1.267v-1.266H9.536v1.266zm.734-9.066c-.734 0-1.334.2-1.8.6-.467.4-.734 1.2-.667 1.866V8h1.133c0-.4.134-.933.4-1.133.267-.2.6-.334.934-.334.4 0 .733.134 1 .334.2.2.333.533.333 1 0 .333-.067.666-.267.933s-.466.6-.866 1.067c-.4.4-.667.666-.8.933-.067.2-.134.667-.134 1.2h1.2c0-.4 0-.667.067-.8.067-.2.2-.4.4-.6.467-.467.867-.933 1.133-1.333.267-.467.4-.934.4-1.467 0-.733-.2-1.333-.666-1.733-.4-.4-1-.6-1.8-.6z" fill="#4776AE" fill-rule="nonzero"/>
</svg>
