<?xml version="1.0" encoding="utf-8"?>
<!-- Generator: Adobe Illustrator 16.0.4, SVG Export Plug-In . SVG Version: 6.00 Build 0)  -->
<!DOCTYPE svg PUBLIC "-//W3C//DTD SVG 1.1//EN" "http://www.w3.org/Graphics/SVG/1.1/DTD/svg11.dtd">
<svg version="1.1" id="Layer_1" xmlns="http://www.w3.org/2000/svg" xmlns:xlink="http://www.w3.org/1999/xlink" x="0px" y="0px"
	 width="17.345px" height="20px" viewBox="0 0 17.345 20" enable-background="new 0 0 17.345 20" xml:space="preserve">
<g>
	<path fill="#B3B3B3" d="M15.668,15.327H1.724c-0.096,0-0.176-0.003-0.242-0.007c0.129-0.2,0.318-0.455,0.473-0.662
		c0.763-1.027,2.038-2.474,2.038-4.178v-4.09c0-2.788,2.017-5.058,4.649-5.058c2.631,0,4.668,2.27,4.668,5.058v4.09
		c0,1.762,1.176,3.233,2.035,4.279c0.145,0.175,0.318,0.386,0.452,0.565C15.759,15.326,15.715,15.327,15.668,15.327 M8.653,18.688
		c-1.12,0-2.028-0.908-2.03-2.027h4.061C10.681,17.78,9.773,18.688,8.653,18.688 M16.376,13.912
		c-0.731-0.889-1.731-2.147-1.731-3.432v-4.09C14.645,2.866,12.009,0,8.642,0C5.274,0,2.659,2.866,2.659,6.391v4.09
		c0,1.262-1.086,2.456-1.774,3.382c-0.62,0.832-1.109,1.489-0.779,2.146c0.291,0.578,1.018,0.653,1.618,0.653h3.589
		C5.314,18.505,6.809,20,8.654,20c1.844,0,3.338-1.495,3.34-3.339h3.674c0.381,0,1.275,0,1.582-0.649
		C17.561,15.353,17.064,14.748,16.376,13.912"/>
</g>
</svg>
