<svg width="20" height="20" viewBox="0 0 20 20" xmlns="http://www.w3.org/2000/svg">
    <path d="M10 2c-4.4 0-8 3.6-8 8s3.6 8 8 8 8-3.6 8-8-3.6-8-8-8zm0 15a7 7 0 0 1-7-7 7 7 0 0 1 7-7 7 7 0 0 1 7 7 7 7 0 0 1-7 7zm-.733-2.467h1.266v-1.266H9.267v1.266zM10 5.467c-.733 0-1.333.2-1.8.6-.467.4-.733 1.2-.667 1.866V8h1.134c0-.4.133-.933.4-1.133.266-.2.6-.334.933-.334.4 0 .733.134 1 .334.2.2.333.533.333 1 0 .333-.066.666-.266.933s-.467.6-.867 1.067c-.4.4-.667.666-.8.933-.067.2-.133.667-.133 1.2h1.2c0-.4 0-.667.066-.8.067-.2.2-.4.4-.6.467-.467.867-.933 1.134-1.333.266-.467.4-.934.4-1.467 0-.733-.2-1.333-.667-1.733-.4-.4-1-.6-1.8-.6z" fill="#CCD2D9" fill-rule="nonzero"/>
</svg>
