<svg width="16" height="16" viewBox="0 0 16 16" fill="none" xmlns="http://www.w3.org/2000/svg">
<path d="M12.6667 7.99992C12.6667 8.36811 12.3682 8.66659 12 8.66659H8.66667V11.9999C8.66667 12.3681 8.36819 12.6666 8 12.6666C7.63181 12.6666 7.33334 12.3681 7.33334 11.9999V8.66659H4C3.63181 8.66659 3.33334 8.36811 3.33334 7.99992C3.33334 7.63173 3.63181 7.33325 4 7.33325H7.33334V3.99992C7.33334 3.63173 7.63181 3.33325 8 3.33325C8.36819 3.33325 8.66667 3.63173 8.66667 3.99992V7.33325H12C12.3682 7.33325 12.6667 7.63173 12.6667 7.99992Z" fill="#006666"/>
</svg>
