<svg width="20" height="20" viewBox="0 0 20 20" fill="none" xmlns="http://www.w3.org/2000/svg">
<path fill-rule="evenodd" clip-rule="evenodd" d="M13.3 12.449L18.1 17.249C18.25 17.399 18.325 17.624 18.25 17.924C18.25 18.149 18.175 18.374 18.025 18.524C17.875 18.674 17.65 18.749 17.425 18.749C17.2 18.749 16.975 18.674 16.825 18.524L12.025 13.724C10.825 14.624 9.325 15.149 7.825 15.149C4.075 15.149 1 12.074 1 8.32402C1 4.57402 4.075 1.49902 7.825 1.49902C11.575 1.49902 14.65 4.57402 14.65 8.32402C14.65 9.82402 14.2 11.249 13.3 12.449ZM13 8.32402C13 5.47402 10.675 3.22402 7.9 3.22402C5.05 3.22402 2.8 5.54902 2.8 8.32402C2.8 11.174 5.05 13.424 7.9 13.424C10.75 13.424 13 11.174 13 8.32402Z" fill="#002147"/>
</svg>
