<?xml version="1.0" encoding="utf-8"?>
<!-- Generator: Adobe Illustrator 19.2.1, SVG Export Plug-In . SVG Version: 6.00 Build 0)  -->
<svg version="1.1" id="Layer_1" xmlns="http://www.w3.org/2000/svg" xmlns:xlink="http://www.w3.org/1999/xlink" x="0px" y="0px"
	 viewBox="0 0 11.4 18" style="enable-background:new 0 0 11.4 18;" xml:space="preserve">
<style type="text/css">
	.st0{fill:#333333;}
</style>
<g>
	<g>
		<path class="st0" d="M5.7,0C6,0,6.3,0.1,6.5,0.3l4.6,4.6c0.4,0.4,0.4,1.1,0,1.5s-1.1,0.4-1.5,0L5.7,2.6L1.8,6.4
			c-0.4,0.4-1.1,0.4-1.5,0s-0.4-1.1,0-1.5l4.6-4.6C5.1,0.1,5.4,0,5.7,0"/>
	</g>
	<g>
		<path class="st0" d="M5.7,18c-0.3,0-0.6-0.1-0.8-0.3l-4.6-4.6c-0.4-0.4-0.4-1.1,0-1.5s1.1-0.4,1.5,0l3.9,3.8l3.9-3.8
			c0.4-0.4,1.1-0.4,1.5,0s0.4,1.1,0,1.5l-4.6,4.6C6.3,17.9,6,18,5.7,18"/>
	</g>
</g>
</svg>
