<?xml version="1.0" encoding="utf-8"?>
<!-- Generator: Adobe Illustrator 19.2.1, SVG Export Plug-In . SVG Version: 6.00 Build 0)  -->
<svg version="1.1" id="Layer_1" xmlns="http://www.w3.org/2000/svg" xmlns:xlink="http://www.w3.org/1999/xlink" x="0px" y="0px"
	 viewBox="0 0 50 50" style="enable-background:new 0 0 50 50;" xml:space="preserve">
<style type="text/css">
	.st0{fill:none;}
	.st1{fill:#4776AE;}
</style>
<g>
	<path class="st0" d="M25,4c0-2.2,1.8-4,4-4h17c2.2,0,4,1.8,4,4v17c0,2.2-1.8,4-4,4H29c-2.2,0-4-1.8-4-4V4z"/>
</g>
<g>
	<path class="st0" d="M0,29c0-2.2,1.8-4,4-4h17c2.2,0,4,1.8,4,4v17c0,2.2-1.8,4-4,4H4c-2.2,0-4-1.8-4-4V29z"/>
</g>
<g>
	<path class="st1" d="M19,34.9l-7,7c-0.1,0.2-0.4,0.3-0.9,0.3c-0.3,0-0.7-0.1-0.9-0.3l-4.4-4.4c-0.5-0.5-0.5-1.2,0-1.8
		c0.4-0.4,1.2-0.4,1.8,0l3.5,3.5l6.1-6.1c0.4-0.5,1.2-0.5,1.8,0C19.6,33.7,19.6,34.5,19,34.9"/>
</g>
</svg>
