<svg width="16" height="16" viewBox="0 0 16 16" fill="none" xmlns="http://www.w3.org/2000/svg">
<path d="M12.6668 8.00016C12.6668 8.36835 12.3684 8.66683 12.0002 8.66683H8.66683V12.0002C8.66683 12.3684 8.36835 12.6668 8.00016 12.6668C7.63197 12.6668 7.3335 12.3684 7.3335 12.0002V8.66683H4.00016C3.63197 8.66683 3.3335 8.36835 3.3335 8.00016C3.3335 7.63197 3.63197 7.3335 4.00016 7.3335H7.3335V4.00016C7.3335 3.63197 7.63197 3.3335 8.00016 3.3335C8.36835 3.3335 8.66683 3.63197 8.66683 4.00016V7.3335H12.0002C12.3684 7.3335 12.6668 7.63197 12.6668 8.00016Z" fill="#367A7C"/>
</svg>
