<svg width="17" height="16" viewBox="0 0 17 16" fill="none" xmlns="http://www.w3.org/2000/svg">
<path fill-rule="evenodd" clip-rule="evenodd" d="M8.69648 15.8148C8.79177 15.9074 8.88706 16 9.07764 16H9.26822C9.55409 15.9074 9.64938 15.7222 9.64938 15.4444V7.94444C9.64938 7.75926 9.74467 7.48148 9.83996 7.38889L15.2715 2.01852C15.3668 1.83333 15.4621 1.55556 15.3668 1.37037C15.2715 1.18519 14.9856 1 14.795 1H0.97799C0.78741 1 0.50154 1.18519 0.40625 1.37037C0.40625 1.55556 0.40625 1.83333 0.59683 2.01852L5.93307 7.38889C6.02836 7.48148 6.12365 7.75926 6.12365 7.94444V13.1296C6.12365 13.3148 6.21894 13.4074 6.40952 13.5L8.69648 15.8148ZM8.5059 13.963L7.36242 12.8519V7.94444C7.36242 7.48148 7.07655 6.83333 6.69539 6.55556L2.40734 2.2037H13.461L9.07764 6.55556C8.69648 6.83333 8.5059 7.48148 8.5059 7.94444V13.963Z" fill="#002147"/>
<path fill-rule="evenodd" clip-rule="evenodd" d="M8.69648 15.8148C8.79177 15.9074 8.88706 16 9.07764 16H9.26822C9.55409 15.9074 9.64938 15.7222 9.64938 15.4444V7.94444C9.64938 7.75926 9.74467 7.48148 9.83996 7.38889L15.2715 2.01852C15.3668 1.83333 15.4621 1.55556 15.3668 1.37037C15.2715 1.18519 14.9856 1 14.795 1H0.97799C0.78741 1 0.50154 1.18519 0.40625 1.37037C0.40625 1.55556 0.40625 1.83333 0.59683 2.01852L5.93307 7.38889C6.02836 7.48148 6.12365 7.75926 6.12365 7.94444V13.1296C6.12365 13.3148 6.21894 13.4074 6.40952 13.5L8.69648 15.8148ZM8.5059 13.963L7.36242 12.8519V7.94444C7.36242 7.48148 7.07655 6.83333 6.69539 6.55556L2.40734 2.2037H13.461L9.07764 6.55556C8.69648 6.83333 8.5059 7.48148 8.5059 7.94444V13.963Z" fill="#002147"/>
</svg>
