<?xml version="1.0" encoding="utf-8"?>
<!-- Generator: Adobe Illustrator 19.2.1, SVG Export Plug-In . SVG Version: 6.00 Build 0)  -->
<svg version="1.1" id="Layer_1" xmlns="http://www.w3.org/2000/svg" xmlns:xlink="http://www.w3.org/1999/xlink" x="0px" y="0px"
	 viewBox="0 0 15.7 17.3" style="enable-background:new 0 0 15.7 17.3;" xml:space="preserve">
<style type="text/css">
	.st0{fill:#4775AD;}
</style>
<g>
	<path class="st0" d="M7.3,12.7c-0.3-0.3-0.9-0.3-1.2,0l-1.7,1.8V0.8C4.4,0.4,4.1,0,3.6,0C3.2,0,2.9,0.4,2.9,0.8v13.7l-1.6-1.8
		c-0.3-0.3-0.8-0.3-1.1,0c-0.3,0.3-0.3,0.8,0,1.1l3,3.2c0,0,0,0,0,0c0,0,0,0,0.1,0.1c0,0,0,0,0.1,0c0,0,0.1,0,0.1,0.1c0,0,0,0,0,0
		c0,0,0.1,0,0.1,0c0,0,0,0,0,0c0,0,0.1,0,0.2,0c0,0,0,0,0,0c0.1,0,0.1,0,0.2,0c0,0,0,0,0,0c0,0,0.1,0,0.1,0c0,0,0,0,0,0
		c0,0,0.1,0,0.1-0.1c0,0,0,0,0,0c0,0,0.1,0,0.1-0.1c0,0,0,0,0,0l3-3.2C7.7,13.5,7.7,13,7.3,12.7"/>
	<path class="st0" d="M12.3,7.8H6.7C6.2,7.8,5.9,7.4,5.9,7s0.4-0.8,0.8-0.8h5.6c0.4,0,0.8,0.4,0.8,0.8S12.7,7.8,12.3,7.8"/>
	<path class="st0" d="M9.7,11.1h-3c-0.4,0-0.8-0.4-0.8-0.8s0.4-0.8,0.8-0.8h3c0.4,0,0.8,0.4,0.8,0.8S10.1,11.1,9.7,11.1"/>
	<path class="st0" d="M14.9,4.5H6.7c-0.4,0-0.8-0.4-0.8-0.8s0.4-0.8,0.8-0.8h8.2c0.4,0,0.8,0.4,0.8,0.8S15.3,4.5,14.9,4.5"/>
</g>
</svg>
