<?xml version="1.0" encoding="utf-8"?>
<!-- Generator: Adobe Illustrator 19.2.1, SVG Export Plug-In . SVG Version: 6.00 Build 0)  -->
<svg version="1.1" id="Layer_1" xmlns="http://www.w3.org/2000/svg" xmlns:xlink="http://www.w3.org/1999/xlink" x="0px" y="0px"
	 viewBox="0 0 17.3 20" style="enable-background:new 0 0 17.3 20;" xml:space="preserve">
<style type="text/css">
	.st0{fill:#333333;}
</style>
<g>
	<path class="st0" d="M15.7,15.3H1.7c-0.1,0-0.2,0-0.2,0c0.1-0.2,0.3-0.5,0.5-0.7c0.8-1,2-2.5,2-4.2V6.4c0-2.8,2-5.1,4.6-5.1
		c2.6,0,4.7,2.3,4.7,5.1v4.1c0,1.8,1.2,3.2,2,4.3c0.1,0.2,0.3,0.4,0.5,0.6C15.8,15.3,15.7,15.3,15.7,15.3 M8.7,18.7
		c-1.1,0-2-0.9-2-2h4.1C10.7,17.8,9.8,18.7,8.7,18.7 M16.4,13.9c-0.7-0.9-1.7-2.1-1.7-3.4V6.4c0-3.5-2.6-6.4-6-6.4
		c-3.4,0-6,2.9-6,6.4v4.1c0,1.3-1.1,2.5-1.8,3.4c-0.6,0.8-1.1,1.5-0.8,2.1c0.3,0.6,1,0.7,1.6,0.7h3.6c0,1.8,1.5,3.3,3.3,3.3
		c1.8,0,3.3-1.5,3.3-3.3h3.7c0.4,0,1.3,0,1.6-0.6C17.6,15.4,17.1,14.7,16.4,13.9"/>
</g>
</svg>
