<?xml version="1.0" encoding="utf-8"?>
<!-- Generator: Adobe Illustrator 19.2.1, SVG Export Plug-In . SVG Version: 6.00 Build 0)  -->
<svg version="1.1" id="Layer_1" xmlns="http://www.w3.org/2000/svg" xmlns:xlink="http://www.w3.org/1999/xlink" x="0px" y="0px"
	 viewBox="0 0 30.1 30" style="enable-background:new 0 0 30.1 30;" xml:space="preserve">
<style type="text/css">
	.st0{fill:#333333;}
</style>
<g>
	<path class="st0" d="M25.4,13.3v14.8h-4.7v-9.4c0-0.5-0.4-0.9-0.9-0.9h-9.3c-0.5,0-0.9,0.4-0.9,0.9l0,9.4H4.8V13.3
		c0-0.1,0-0.1,0-0.2L15.1,2.3l10.3,10.8C25.4,13.2,25.4,13.2,25.4,13.3 M29.9,15L15.8,0.3C15.6,0.1,15.4,0,15.1,0
		c-0.3,0-0.5,0.1-0.7,0.3L0.3,15c-0.4,0.4-0.3,1,0,1.3c0.4,0.4,1,0.3,1.3,0L2.9,15v14c0,0.5,0.4,0.9,0.9,0.9h6.6
		c0.5,0,0.9-0.4,0.9-0.9l0-9.4h7.5v9.4c0,0.5,0.4,0.9,0.9,0.9h6.6c0.5,0,0.9-0.4,0.9-0.9V15l1.3,1.3c0.2,0.2,0.4,0.3,0.7,0.3
		c0.2,0,0.5-0.1,0.6-0.3C30.2,16,30.2,15.4,29.9,15"/>
</g>
</svg>
