<?xml version="1.0" encoding="utf-8"?>
<!-- Generator: Adobe Illustrator 19.2.1, SVG Export Plug-In . SVG Version: 6.00 Build 0)  -->
<svg version="1.1" id="Layer_1" xmlns="http://www.w3.org/2000/svg" xmlns:xlink="http://www.w3.org/1999/xlink" x="0px" y="0px"
	 viewBox="0 0 30 30" style="enable-background:new 0 0 30 30;" xml:space="preserve">
<style type="text/css">
	.st0{fill:#4776AE;}
</style>
<path class="st0" d="M15,30C6.7,30,0,23.3,0,15C0,6.7,6.7,0,15,0c0.6,0,1,0.4,1,1s-0.4,1-1,1C7.8,2,2,7.8,2,15c0,7.2,5.8,13,13,13
	c7.2,0,13-5.8,13-13c0-0.6,0.4-1,1-1s1,0.4,1,1C30,23.3,23.3,30,15,30z"/>
</svg>
