<?xml version="1.0" encoding="utf-8"?>
<!-- Generator: Adobe Illustrator 19.2.1, SVG Export Plug-In . SVG Version: 6.00 Build 0)  -->
<svg version="1.1" id="Layer_1" xmlns="http://www.w3.org/2000/svg" xmlns:xlink="http://www.w3.org/1999/xlink" x="0px" y="0px"
	 viewBox="0 0 30 30" style="enable-background:new 0 0 30 30;" xml:space="preserve">
<style type="text/css">
	.st0{fill:#4775AD;}
</style>
<g>
	<path class="st0" d="M15,18.8c-2.1,0-3.8-1.7-3.8-3.8c0-2.1,1.7-3.8,3.8-3.8c2.1,0,3.8,1.7,3.8,3.8C18.8,17.1,17.1,18.8,15,18.8
		 M15,9.4c-3.1,0-5.6,2.5-5.6,5.6c0,3.1,2.5,5.6,5.6,5.6c3.1,0,5.6-2.5,5.6-5.6C20.7,11.9,18.1,9.4,15,9.4 M28.1,15.9
		c-0.1,0.1-0.2,0.1-0.4,0.2l-3.5,0.9l-0.3,1c-0.1,0.4-0.3,0.9-0.6,1.3l-0.5,0.9l1.8,3.1c0.1,0.2,0.2,0.4,0.2,0.5l-1.2,1.2
		c-0.1,0-0.3-0.1-0.3-0.1l-3.1-2l-1,0.5c-0.5,0.2-0.9,0.4-1.4,0.6l-1,0.3l-0.8,3.5c0,0.2-0.1,0.3-0.2,0.4h-1.7
		c-0.1-0.1-0.1-0.2-0.2-0.4l-0.9-3.5l-1-0.3c-0.5-0.2-1-0.4-1.5-0.6l-1-0.5l-3.1,2c-0.1,0.1-0.3,0.1-0.4,0.1L5,23.7
		c0-0.1,0.1-0.3,0.2-0.4l1.9-3.2l-0.5-0.9c-0.2-0.4-0.4-0.8-0.5-1.2l-0.3-1l-3.4-0.9c-0.2,0-0.4-0.1-0.5-0.2v-1.7c0,0,0,0,0,0
		c0,0,0.2-0.1,0.3-0.1l3.5-0.8l0.3-1c0.1-0.4,0.3-0.9,0.6-1.3l0.5-0.9L5.2,6.8C5,6.6,5,6.4,5,6.3l1.2-1.2c0.1,0,0.3,0.1,0.3,0.1
		l3.1,2l1-0.5c0.5-0.3,1-0.5,1.5-0.6l1-0.3L14,2.3c0.1-0.2,0.1-0.4,0.2-0.5h1.7c0,0,0.1,0.2,0.1,0.3l0.8,3.6l1,0.3
		c0.5,0.2,1,0.4,1.4,0.6l1,0.5l3-1.9c0.1-0.1,0.3-0.1,0.4-0.1l1.2,1.2c0,0.1-0.1,0.3-0.2,0.4l-1.9,3.1l0.5,0.9
		c0.3,0.5,0.4,1,0.6,1.4l0.3,1l3.5,0.8c0.2,0,0.4,0.2,0.4,0.2L28.1,15.9z M28.1,12.2l-2.4-0.5c-0.2-0.6-0.4-1.2-0.7-1.7l1.3-2.2
		c0.5-0.8,0.7-1.9,0-2.7L25,3.8c-0.7-0.7-2-0.6-2.7-0.1L20.2,5c-0.5-0.3-1.1-0.5-1.7-0.7l-0.5-2.4C17.8,1,17,0,15.9,0h-1.9
		c-1,0-1.7,1-1.9,1.9l-0.6,2.4C11,4.5,10.3,4.7,9.8,5L7.6,3.7C6.9,3.2,5.6,3,4.9,3.8L3.6,5.1C2.8,5.8,3.1,7,3.6,7.7L4.9,10
		c-0.3,0.5-0.5,1.1-0.7,1.6l-2.4,0.5C1,12.3,0,13.1,0,14.1V16c0,1,1,1.7,1.9,1.9l2.4,0.6c0.2,0.5,0.4,1,0.6,1.5l-1.4,2.3
		c-0.5,0.8-0.7,1.9,0,2.7l1.3,1.3c0.7,0.7,2,0.6,2.7,0.1L9.8,25c0.6,0.3,1.2,0.6,1.8,0.8l0.6,2.4C12.4,29,13,30,14.1,30H16
		c1,0,1.8-1,2-1.9l0.5-2.4c0.6-0.2,1.2-0.4,1.7-0.7l2.1,1.3c0.7,0.5,2,0.6,2.7-0.1l1.3-1.3c0.7-0.7,0.5-1.9,0-2.7L25,20.1
		c0.3-0.5,0.5-1,0.7-1.6l2.4-0.6C29,17.7,30,17,30,16v-1.9C30,13.1,29,12.3,28.1,12.2"/>
</g>
</svg>
